<?xml version="1.0" encoding="UTF-8" standalone="no"?>
<!-- Created with Inkscape (http://www.inkscape.org/) -->

<svg
   width="72.125999"
   height="19.09"
   viewBox="0 0 19.083337 5.050896"
   version="1.1"
   id="svg1"
   xml:space="preserve"
   inkscape:version="1.3.2 (091e20e, 2023-11-25, custom)"
   sodipodi:docname="PPSH-41_killfeed.svg"
   xmlns:inkscape="http://www.inkscape.org/namespaces/inkscape"
   xmlns:sodipodi="http://sodipodi.sourceforge.net/DTD/sodipodi-0.dtd"
   xmlns="http://www.w3.org/2000/svg"
   xmlns:svg="http://www.w3.org/2000/svg"><sodipodi:namedview
     id="namedview1"
     pagecolor="#ffffff"
     bordercolor="#000000"
     borderopacity="0.25"
     inkscape:showpageshadow="2"
     inkscape:pageopacity="0.0"
     inkscape:pagecheckerboard="0"
     inkscape:deskcolor="#d1d1d1"
     inkscape:document-units="px"
     inkscape:zoom="13.041755"
     inkscape:cx="43.590759"
     inkscape:cy="5.1756838"
     inkscape:window-width="1920"
     inkscape:window-height="1017"
     inkscape:window-x="-8"
     inkscape:window-y="-8"
     inkscape:window-maximized="1"
     inkscape:current-layer="layer2"
     inkscape:lockguides="false"
     showgrid="false" /><defs
     id="defs1"><inkscape:path-effect
       effect="powerclip"
       id="path-effect84"
       is_visible="true"
       lpeversion="1"
       inverse="true"
       flatten="false"
       hide_clip="false"
       message="Use fill-rule evenodd on &lt;b&gt;fill and stroke&lt;/b&gt; dialog if no flatten result after convert clip to paths." /><inkscape:path-effect
       effect="powerclip"
       id="path-effect36"
       is_visible="true"
       lpeversion="1"
       inverse="true"
       flatten="false"
       hide_clip="false"
       message="Use fill-rule evenodd on &lt;b&gt;fill and stroke&lt;/b&gt; dialog if no flatten result after convert clip to paths." /><inkscape:path-effect
       effect="powerclip"
       id="path-effect32"
       is_visible="true"
       lpeversion="1"
       inverse="true"
       flatten="false"
       hide_clip="false"
       message="Use fill-rule evenodd on &lt;b&gt;fill and stroke&lt;/b&gt; dialog if no flatten result after convert clip to paths." /><inkscape:perspective
       sodipodi:type="inkscape:persp3d"
       inkscape:vp_x="0 : -143.44911 : 1"
       inkscape:vp_y="0 : 1000 : 0"
       inkscape:vp_z="210 : -143.44911 : 1"
       inkscape:persp3d-origin="105 : -192.94912 : 1"
       id="perspective1" /><clipPath
       clipPathUnits="userSpaceOnUse"
       id="clipPath31"><path
         style="display:none;fill:#444446;fill-opacity:1;stroke:#323234;stroke-width:1.05833;stroke-linecap:round;stroke-linejoin:round;stroke-miterlimit:29;stroke-dasharray:none;stroke-opacity:1"
         d="m 200.89242,2.0944225 c -1.3801,-0.00442 -1.60668,3.8158657 -1.60668,3.8158657 h 3.18467 c 0,0 -0.20157,-3.8114587 -1.57799,-3.8158657 z"
         id="path32"
         sodipodi:nodetypes="sccs" /><path
         id="lpe_path-effect32"
         style="fill:#444446;fill-opacity:1;stroke:#323234;stroke-width:1.05833;stroke-linecap:round;stroke-linejoin:round;stroke-miterlimit:29;stroke-dasharray:none;stroke-opacity:1"
         class="powerclip"
         d="M 192.42084,-4.3114227 H 209.3353 V 13.004711 h -16.91446 z m 8.47158,6.4058452 c -1.3801,-0.00442 -1.60668,3.8158657 -1.60668,3.8158657 h 3.18467 c 0,0 -0.20157,-3.8114587 -1.57799,-3.8158657 z" /></clipPath><clipPath
       clipPathUnits="userSpaceOnUse"
       id="clipPath80"><g
         id="g84"
         style="display:none;fill:#d9d9d9;fill-opacity:1;stroke:none;stroke-width:0.999999"><path
           id="path80"
           style="display:inline;opacity:1;fill:#d9d9d9;fill-opacity:1;stroke:none;stroke-width:1.05833;stroke-linecap:round;stroke-linejoin:round;stroke-miterlimit:29;stroke-dasharray:none;stroke-opacity:1"
           d="m 207.41409,9.5141321 c 3.35858,-3.7e-6 3.47529,5.5121339 0,5.5260149 l -8.22624,0.03285 c -3.55393,0.01419 -3.43121,-5.5588565 -0.0287,-5.5588602 z"
           sodipodi:nodetypes="sssss"
           inkscape:label="Hole" /><path
           id="path81"
           style="display:inline;opacity:1;fill:#d9d9d9;fill-opacity:1;stroke:none;stroke-width:1.05833;stroke-linecap:round;stroke-linejoin:round;stroke-miterlimit:29;stroke-dasharray:none;stroke-opacity:1"
           d="m 192.55218,9.5141321 c 3.35858,-3.7e-6 3.47529,5.5121339 0,5.5260149 l -8.22624,0.03285 c -3.55394,0.01419 -3.43121,-5.5588565 -0.0287,-5.5588602 z"
           sodipodi:nodetypes="sssss"
           inkscape:label="Hole" /><path
           id="path82"
           style="display:inline;opacity:1;fill:#d9d9d9;fill-opacity:1;stroke:none;stroke-width:1.05833;stroke-linecap:round;stroke-linejoin:round;stroke-miterlimit:29;stroke-dasharray:none;stroke-opacity:1"
           d="m 177.14523,9.5141324 c 3.35858,-4e-6 3.47529,5.5121336 0,5.5260136 l -8.22624,0.03285 c -3.55394,0.01419 -3.43121,-5.5588556 -0.0287,-5.5588596 z"
           sodipodi:nodetypes="sssss"
           inkscape:label="Hole" /><path
           id="path83"
           style="display:inline;opacity:1;fill:#d9d9d9;fill-opacity:1;stroke:none;stroke-width:1.05833;stroke-linecap:round;stroke-linejoin:round;stroke-miterlimit:29;stroke-dasharray:none;stroke-opacity:1"
           d="m 162.02535,9.5141321 c 3.35858,-3.7e-6 3.47529,5.5121339 0,5.5260149 l -8.22624,0.03285 c -3.55394,0.01419 -3.43121,-5.5588565 -0.0287,-5.5588602 z"
           sodipodi:nodetypes="sssss"
           inkscape:label="Hole" /><path
           id="path84"
           style="display:inline;opacity:1;fill:#d9d9d9;fill-opacity:1;stroke:#d9d9d9;stroke-width:1.05833;stroke-linecap:round;stroke-linejoin:round;stroke-miterlimit:29;stroke-dasharray:none;stroke-opacity:1"
           d="m 216.95674,10.043246 c 3.09356,0 3.20087,4.437934 0,4.474072 l -2.35542,0.0266 c -3.27331,0.03695 -3.16046,-4.500665 -0.0264,-4.500665 z"
           sodipodi:nodetypes="sssss"
           inkscape:label="Hole" /></g><path
         id="lpe_path-effect84"
         style="fill:#d9d9d9;fill-opacity:1;stroke:none;stroke-width:0.999999"
         class="powerclip"
         d="M 72.335576,2.9526606 H 228.98446 V 30.878569 H 72.335576 Z m 135.078514,6.5614715 -8.25494,4.7e-6 c -3.40251,3.7e-6 -3.52523,5.5730502 0.0287,5.5588602 l 8.22624,-0.03285 c 3.47529,-0.01388 3.35858,-5.5260186 0,-5.5260149 z m -14.86191,0 -8.25494,4.7e-6 c -3.40251,3.7e-6 -3.52524,5.5730502 0.0287,5.5588602 l 8.22624,-0.03285 c 3.47529,-0.01388 3.35858,-5.5260186 0,-5.5260149 z m -15.40695,3e-7 -8.25494,4e-6 c -3.40251,4e-6 -3.52524,5.5730496 0.0287,5.5588596 l 8.22624,-0.03285 c 3.47529,-0.01388 3.35858,-5.5260176 0,-5.5260136 z m -15.11988,-3e-7 -8.25494,4.7e-6 c -3.40251,3.7e-6 -3.52524,5.5730502 0.0287,5.5588602 l 8.22624,-0.03285 c 3.47529,-0.01388 3.35858,-5.5260186 0,-5.5260149 z m 54.93139,0.5291139 -2.38182,7e-6 c -3.13406,0 -3.24691,4.537615 0.0264,4.500665 l 2.35542,-0.0266 c 3.20087,-0.03614 3.09356,-4.474072 0,-4.474072 z" /></clipPath><inkscape:path-effect
       effect="powerclip"
       id="path-effect1"
       is_visible="true"
       lpeversion="1"
       inverse="true"
       flatten="false"
       hide_clip="false"
       message="Use fill-rule evenodd on &lt;b&gt;fill and stroke&lt;/b&gt; dialog if no flatten result after convert clip to paths." /><inkscape:path-effect
       effect="powerclip"
       id="path-effect65"
       is_visible="true"
       lpeversion="1"
       inverse="true"
       flatten="false"
       hide_clip="false"
       message="Use fill-rule evenodd on &lt;b&gt;fill and stroke&lt;/b&gt; dialog if no flatten result after convert clip to paths." /><inkscape:path-effect
       effect="powerclip"
       id="path-effect33"
       is_visible="true"
       lpeversion="1"
       inverse="true"
       flatten="false"
       hide_clip="false"
       message="Use fill-rule evenodd on &lt;b&gt;fill and stroke&lt;/b&gt; dialog if no flatten result after convert clip to paths." /><clipPath
       clipPathUnits="userSpaceOnUse"
       id="clipPath32"><ellipse
         style="display:none;fill:#424242;fill-opacity:1;stroke:none;stroke-width:2.11667;stroke-linecap:round;stroke-linejoin:round;stroke-miterlimit:29;stroke-dasharray:none;stroke-opacity:1;paint-order:normal"
         id="ellipse33"
         cx="157.6105"
         cy="26.437967"
         rx="3.2623587"
         ry="0.78343379" /></clipPath><clipPath
       clipPathUnits="userSpaceOnUse"
       id="clipPath64"><g
         id="g65"
         style="display:block;stroke-width:0.999999"><path
           style="opacity:1;fill:#d9d9d9;fill-opacity:1;stroke:none;stroke-width:2.11667;stroke-linecap:round;stroke-linejoin:round;stroke-miterlimit:29;stroke-dasharray:none;stroke-opacity:1"
           d="m 36.418352,17.636514 v -3.586941 c 0,-1.061291 1.05835,-2.347631 2.347632,-2.347631 h 2.589449 v 0.99749 l -0.673332,1.166248 3.595279,1.634791 h 2.458463 v 0.423178 h 4.433299 V 15.33926 h 1.428631 l 0.02079,1.428479 -0.801063,0.462494 h -5.50484 l -0.374427,0.374427 z"
           id="path64"
           sodipodi:nodetypes="ccccccccccccccccc" /><rect
           style="fill:#d9d9d9;fill-opacity:1;stroke:none;stroke-width:2.11667;stroke-linecap:round;stroke-linejoin:round;stroke-miterlimit:29;stroke-dasharray:none;stroke-opacity:1"
           id="rect64"
           width="1.0583333"
           height="4.2846022"
           x="104.95296"
           y="16.314445" /><rect
           style="display:inline;fill:#d9d9d9;fill-opacity:1;stroke:none;stroke-width:2.11667;stroke-linecap:round;stroke-linejoin:round;stroke-miterlimit:29;stroke-dasharray:none;stroke-opacity:1"
           id="rect65"
           width="1.0583333"
           height="4.2846022"
           x="137.75305"
           y="16.313532" /></g></clipPath><clipPath
       clipPathUnits="userSpaceOnUse"
       id="clipPath1"><ellipse
         style="display:block;fill:#d9d9d9;fill-opacity:1;stroke:none;stroke-width:16.557;stroke-linecap:round;stroke-linejoin:round;stroke-miterlimit:29;stroke-dasharray:none;stroke-opacity:1;paint-order:normal"
         id="ellipse1"
         cx="157.57542"
         cy="26.333157"
         rx="3.8353176"
         ry="0.98178834" /></clipPath></defs><g
     inkscape:groupmode="layer"
     id="layer2"
     inkscape:label="Layer 2"
     style="display:inline;opacity:1;stroke-width:14.0805"
     transform="matrix(0.07102044,0,0,0.07102044,-0.04840176,-0.03792523)"><path
       style="display:inline;opacity:1;fill:#d9d9d9;fill-opacity:1;stroke:none;stroke-width:29.8037;stroke-linecap:round;stroke-linejoin:round;stroke-miterlimit:29;stroke-dasharray:none;stroke-opacity:1"
       d="m 117.6924,25.878569 h 8.00894 l -0.29099,-9.990052 13.37806,-1.238974 0.6475,10.692903 1.43981,0.05738 c 1.13032,0 -0.37217,-7.060015 2.92139,-7.060015 h 9.1699 c 2.5906,-1.298946 5.54051,-1.622993 10.4683,-1.622993 h 56.07438 c 2.55911,-2.559111 6.3436,-8.7641574 3.40828,-8.7641574 H 203.6713 l -2.84039,1.3197731 -2.95513,-1.3197731 H 81.393057 c -2.620808,0 -4.057481,1.5020244 -4.057481,4.1172504 h 40.333054 z"
       id="path6"
       sodipodi:nodetypes="ccccccsccccccccccc"
       clip-path="url(#clipPath80)"
       inkscape:path-effect="#path-effect84"
       inkscape:original-d="m 117.6924,25.878569 h 8.00894 l -0.29099,-9.990052 13.37806,-1.238974 0.6475,10.692903 1.43981,0.05738 c 1.13032,0 -0.37217,-7.060015 2.92139,-7.060015 h 9.1699 c 2.5906,-1.298946 5.54051,-1.622993 10.4683,-1.622993 h 56.07438 c 2.55911,-2.559111 6.3436,-8.7641574 3.40828,-8.7641574 H 203.6713 l -2.84039,1.3197731 -2.95513,-1.3197731 H 81.393057 c -2.620808,0 -4.057481,1.5020244 -4.057481,4.1172504 h 40.333054 z" /><path
       style="fill:#d9d9d9;fill-opacity:1;stroke:#d9d9d9;stroke-width:1.05803;stroke-linecap:round;stroke-linejoin:round;stroke-miterlimit:29;stroke-dasharray:none;stroke-opacity:1"
       d="m 120.34487,28.442937 c 2.11428,0.02958 4.71475,-0.147724 5.153,-1.541842 -0.32117,-0.291428 -0.38719,-0.583789 -0.33718,-1.034215 -1.91634,0.118113 -4.64538,0.144295 -5.74904,0.871916 z"
       id="path23"
       sodipodi:nodetypes="ccccc" /><path
       style="fill:none;stroke:#d9d9d9;stroke-width:2.11606;stroke-linecap:round;stroke-miterlimit:29;stroke-dasharray:none;stroke-opacity:1"
       d="m 81.798805,28.56108 c 0,0 0.486899,-0.504544 0.486899,0.748347 v 3.101686 c -0.02938,1.720058 1.140112,2.936038 3.205409,3.489433 h 11.117495 c 8.653822,0 5.603202,-8.723583 7.668642,-8.723583 l 3.55377,0.05738"
       id="path1"
       sodipodi:nodetypes="ccccccc"
       inkscape:label="Trigger Guard" /><path
       style="display:inline;opacity:1;fill:#d9d9d9;fill-opacity:1;stroke:none;stroke-width:14.9018;stroke-linecap:round;stroke-linejoin:round;stroke-miterlimit:29;stroke-dasharray:none;stroke-opacity:1"
       d="m 87.277167,26.452844 c 0.994534,2.037011 -1.153036,2.989655 3.643722,6.541483 0.407513,0.08888 0.538166,-0.150409 0.286906,-0.401669 -1.515973,-1.618893 -2.750498,-3.398612 -2.151803,-6.225887 z"
       id="path4"
       sodipodi:nodetypes="ccccc"
       inkscape:label="Trigger" /><path
       style="display:inline;opacity:1;fill:#d9d9d9;fill-opacity:1;stroke:none;stroke-width:14.9018;stroke-linecap:round;stroke-linejoin:round;stroke-miterlimit:29;stroke-dasharray:none;stroke-opacity:1"
       d="m 91.780206,26.366662 1.480981,1.950473 1.501269,0.02029 -0.101438,2.901098 c 0.452874,0.452874 1.278107,1.086356 1.278107,0.08115 v -3.002536 h 4.341505 l 1.57227,-2.179701 c -7.918638,0 -10.072694,0.229226 -10.072694,0.229226 z"
       id="path5"
       sodipodi:nodetypes="ccccccccc" /><path
       id="path2"
       style="opacity:1;fill:#d9d9d9;fill-opacity:1;stroke:none;stroke-width:29.8037;stroke-linecap:round;stroke-linejoin:round;stroke-miterlimit:29;stroke-dasharray:none;stroke-opacity:1"
       inkscape:label="Stock"
       d="M 75.169716,12.968363 C 63.10582,28.720154 51.65308,20.164026 44.298215,21.346146 L 3.2133847,25.591882 c -2.0435485,0.364432 -2.60277876,1.530035 -2.52491047,3.4432 L 2.1803728,54.512597 c 0.076511,1.45366 1.224452,2.142017 3.4432007,2.065507 C 32.904696,50.319007 37.010927,46.83252 52.217112,40.740828 c 2.287587,0.589147 4.136625,1.826257 6.541719,1.721342 12.6898,-19.602203 30.602705,-16.726628 58.023329,-16.726628 l 0.0408,-12.767179 z m 0.624251,3.667476 c 0.896079,1.94e-4 1.622446,0.726561 1.62264,1.62264 9.1e-5,0.896281 -0.726359,1.622963 -1.62264,1.623157 -0.896483,9.1e-5 -1.623248,-0.726674 -1.623157,-1.623157 1.94e-4,-0.896281 0.726876,-1.622731 1.623157,-1.62264 z"
       sodipodi:nodetypes="cccccccccccccccc" /><g
       id="g72"
       style="display:inline;opacity:1;fill:#d9d9d9;fill-opacity:1;stroke:none;stroke-width:198.259"><path
         id="path69"
         style="display:inline;opacity:1;fill:#d9d9d9;fill-opacity:1;stroke:none;stroke-width:14.9018;stroke-linecap:round;stroke-linejoin:round;stroke-miterlimit:29;stroke-dasharray:none;stroke-opacity:1"
         d="m 206.76022,10.572466 c 2.82854,-2e-6 2.92683,3.413273 0,3.421868 l -6.92802,0.02034 c -2.99306,0.0088 -2.88971,-3.442204 -0.0241,-3.442207 z"
         sodipodi:nodetypes="sssss"
         inkscape:label="Hole" /><path
         id="path70"
         style="display:inline;opacity:1;fill:#d9d9d9;fill-opacity:1;stroke:none;stroke-width:14.9018;stroke-linecap:round;stroke-linejoin:round;stroke-miterlimit:29;stroke-dasharray:none;stroke-opacity:1"
         d="m 191.89831,10.572466 c 2.82854,-3e-6 2.92683,3.413274 0,3.42187 l -6.92802,0.02034 c -2.99306,0.0088 -2.88971,-3.442206 -0.0241,-3.442209 z"
         sodipodi:nodetypes="sssss"
         inkscape:label="Hole" /><path
         id="path71"
         style="display:inline;opacity:1;fill:#d9d9d9;fill-opacity:1;stroke:none;stroke-width:14.9018;stroke-linecap:round;stroke-linejoin:round;stroke-miterlimit:29;stroke-dasharray:none;stroke-opacity:1"
         d="m 176.49136,10.572466 c 2.82854,-2e-6 2.92683,3.413273 0,3.421868 l -6.92802,0.02034 c -2.99306,0.0088 -2.88971,-3.442204 -0.0241,-3.442207 z"
         sodipodi:nodetypes="sssss"
         inkscape:label="Hole" /><path
         id="path72"
         style="display:inline;opacity:1;fill:#d9d9d9;fill-opacity:1;stroke:none;stroke-width:14.9018;stroke-linecap:round;stroke-linejoin:round;stroke-miterlimit:29;stroke-dasharray:none;stroke-opacity:1"
         d="m 161.37148,10.572466 c 2.82854,-2e-6 2.92683,3.413272 0,3.421867 l -6.92802,0.02034 c -2.99306,0.0088 -2.88971,-3.442203 -0.0241,-3.442206 z"
         sodipodi:nodetypes="sssss"
         inkscape:label="Hole" /></g><path
       id="rect5"
       style="display:inline;fill:#d9d9d9;fill-opacity:1;stroke:none;stroke-width:29.8037;stroke-linecap:round;stroke-linejoin:round;stroke-miterlimit:29;stroke-dasharray:none"
       inkscape:label="Mag (temp)"
       d="m 136.37552,26.411532 c -0.88255,21.025048 1.66575,33.435571 6.3045,51.537543 l -12.87804,4.371406 c -6.37514,-20.123908 -6.49054,-33.817842 -5.4095,-55.803741 z"
       sodipodi:nodetypes="ccccc"
       transform="matrix(0.99679269,-0.08002712,0.08223065,0.99661333,0,0)" /><g
       id="g37"
       style="stroke-width:14.0805" /><path
       style="fill:none;fill-opacity:1;stroke:#d9d9d9;stroke-width:1.05803;stroke-linecap:round;stroke-linejoin:round;stroke-miterlimit:29;stroke-dasharray:none;stroke-opacity:1"
       d="m 119.3305,26.901096 1.01437,1.501268 c -7.05145,0.861515 -7.90666,-1.213652 -6.77599,-1.866442 0.67504,-0.389736 4.15245,2.879418 5.76162,0.365174 z"
       id="path22"
       sodipodi:nodetypes="ccsc" /><path
       style="display:inline;fill:#d9d9d9;fill-opacity:1;stroke:none;stroke-width:29.8037;stroke-linecap:round;stroke-linejoin:round;stroke-miterlimit:29;stroke-dasharray:none;stroke-opacity:1"
       d="m 95.715963,7.355079 h 13.714287 c 0,-1.2033813 -0.73984,-2.1635832 -2.43449,-2.1098899 -3.69788,0 -2.81625,-2.8299865 -4.62553,-2.8402361 -2.15943,-0.012233 -0.20269,3.1648348 -5.355874,3.1648348 -0.935969,0 -1.298393,0.5231358 -1.298393,1.7852912 z"
       id="path26"
       sodipodi:nodetypes="cccssc" /><path
       style="display:inline;fill:#d9d9d9;fill-opacity:1;stroke:none;stroke-width:14.9018;stroke-linecap:round;stroke-linejoin:round;stroke-miterlimit:29;stroke-dasharray:none;stroke-opacity:1"
       d="m 194.20748,7.2300612 4.99218,-2.0083504 h 3.61503 l 4.6479,2.0083505 z"
       id="path28"
       sodipodi:nodetypes="ccccc" /><path
       style="fill:#d9d9d9;fill-opacity:1;stroke:none;stroke-width:29.8037;stroke-linecap:round;stroke-linejoin:round;stroke-miterlimit:29;stroke-dasharray:none;stroke-opacity:1"
       d="m 200.77765,8.0047107 -3.35681,-1.4632268 c 0,-1.310993 0.87055,-5.85290663 1.31977,-5.85290663 h 1.20501 c 0.5964,0.33207973 1.10965,0.32570073 1.72145,0 h 1.20501 c 0.48859,0 1.46322,4.50304413 1.46322,5.68076233 z"
       id="path29"
       sodipodi:nodetypes="cccccccc"
       clip-path="url(#clipPath31)"
       inkscape:path-effect="#path-effect32"
       inkscape:original-d="m 200.77765,8.0047107 -3.35681,-1.4632268 c 0,-1.310993 0.87055,-5.85290663 1.31977,-5.85290663 h 1.20501 c 0.5964,0.33207973 1.10965,0.32570073 1.72145,0 h 1.20501 c 0.48859,0 1.46322,4.50304413 1.46322,5.68076233 z"
       transform="translate(0.02869072,0.51643294)" /><path
       style="display:inline;opacity:1;fill:#d9d9d9;fill-opacity:1;stroke:none;stroke-width:33.1143;stroke-linecap:round;stroke-linejoin:round;stroke-miterlimit:29;stroke-dasharray:none;stroke-opacity:1"
       d="m 195.16999,-68.726774 40.83644,-10.886119 -9.93863,6.919228 15.00627,4.78548 -12.8074,6.074448 7.78407,6.65177 -40.66272,-8.714014 1.99274,-1.122504 -1.90438,-0.96715 1.71071,-1.162715 z"
       id="path65"
       sodipodi:nodetypes="ccccccccccc"
       inkscape:label="Muzzle Flash"
       transform="matrix(0.9031382,0,0,0.89691536,51.661981,71.940031)" /></g></svg>
