<?xml version="1.0" encoding="UTF-8" standalone="no"?>
<svg
   width="110"
   height="110"
   version="1.1"
   id="svg18"
   sodipodi:docname="battlesaw.svg"
   inkscape:version="1.4 (86a8ad7, 2024-10-11)"
   xmlns:inkscape="http://www.inkscape.org/namespaces/inkscape"
   xmlns:sodipodi="http://sodipodi.sourceforge.net/DTD/sodipodi-0.dtd"
   xmlns:xlink="http://www.w3.org/1999/xlink"
   xmlns="http://www.w3.org/2000/svg"
   xmlns:svg="http://www.w3.org/2000/svg">
  <sodipodi:namedview
     id="namedview18"
     pagecolor="#ffffff"
     bordercolor="#000000"
     borderopacity="0.25"
     inkscape:showpageshadow="2"
     inkscape:pageopacity="0.0"
     inkscape:pagecheckerboard="0"
     inkscape:deskcolor="#d1d1d1"
     inkscape:zoom="2.1015625"
     inkscape:cx="35.211896"
     inkscape:cy="139.18216"
     inkscape:window-width="1920"
     inkscape:window-height="1009"
     inkscape:window-x="-8"
     inkscape:window-y="-8"
     inkscape:window-maximized="1"
     inkscape:current-layer="svg18" />
  <defs
     id="defs10">
    <linearGradient
       id="b">
      <stop
         stop-color="#1c0803"
         offset="0"
         id="stop1" />
      <stop
         stop-color="#8e3405"
         offset="1"
         id="stop2" />
    </linearGradient>
    <linearGradient
       id="c">
      <stop
         offset="0"
         stop-color="#400000"
         id="stop3" />
      <stop
         offset="1"
         stop-color="#953737"
         id="stop4" />
    </linearGradient>
    <linearGradient
       id="a">
      <stop
         stop-color="#212121"
         offset="0"
         id="stop5" />
      <stop
         stop-color="#949494"
         offset="1"
         id="stop6" />
    </linearGradient>
    <clipPath
       id="k">
      <path
         d="m 976,-1056 v 156 h 124 v -156 z"
         fill="#b2b2b2"
         stroke-width="95.458"
         id="path6" />
    </clipPath>
    <clipPath
       id="g">
      <path
         d="m -863.208,-528 c -32.792,0 -32.792,48 0,48 H -560 v -48 z"
         fill-opacity="0.566"
         stroke-width="1.257"
         id="path7" />
    </clipPath>
    <linearGradient
       id="d">
      <stop
         stop-color="#362618"
         offset="0"
         id="stop7" />
      <stop
         stop-color="#946941"
         offset=".482"
         id="stop8" />
      <stop
         stop-color="#3b140e"
         offset="1"
         id="stop9" />
    </linearGradient>
    <clipPath
       id="i">
      <path
         d="M 157.953,126.88 A 6.448,6.448 0 0 0 156,127.252 c -5.72,1.845 -10.255,7.727 -15.973,7.992 -5.202,0 -7.803,-3.467 -13.873,-3.467 -6.07,0 -6.938,6.793 -13.875,6.793 v 10.407 c 0,0 6.44,0 6.44,6.937 0,4.336 2.185,11.271 8.255,10.404 2.414,-0.525 4.28,-2.817 5.147,-6.285 1.175,-4.695 8.259,-6.132 10.611,-3.062 5.203,6.937 7.374,12.457 11.71,15.925 13.874,10.406 24.278,0 20.81,-10.406 -5.203,-13.007 -21.35,-16.982 -21.35,-20.45 0,-3.47 8.67,-0.001 10.405,-3.47 1.13,-2.259 -0.5,-11.818 -6.354,-11.69 z m -29.869,15.817 a 2.0315,2.0315 0 1 1 0,4.063 2.0315,2.0315 0 0 1 0,-4.063 z m 30.465,15.91 c 1.462,-0.084 4.576,1.58 5.69,4.438 1.18,3.233 -1.002,3.885 -3.06,2.266 -2.974,-2.213 -4.56,-5.476 -3.146,-6.56 0.13,-0.084 0.307,-0.132 0.516,-0.144 z"
         fill="#545454"
         stroke-width="1.301"
         stroke-linecap="square"
         id="path9" />
    </clipPath>
    <linearGradient
       xlink:href="#a"
       id="h"
       gradientUnits="userSpaceOnUse"
       x1="-807.58398"
       y1="-563.10797"
       x2="-630.36603"
       y2="-464.595"
       gradientTransform="matrix(1.1695332,-0.67523022,0.67523022,1.1695332,492.96955,-731.90502)" />
    <linearGradient
       xlink:href="#b"
       id="j"
       gradientUnits="userSpaceOnUse"
       x1="115.443"
       y1="131.04601"
       x2="183.403"
       y2="171.60201"
       gradientTransform="matrix(1.1695332,-0.67523022,0.67523022,1.1695332,-104.19301,-41.431475)" />
    <linearGradient
       xlink:href="#c"
       id="l"
       gradientUnits="userSpaceOnUse"
       x1="987.93201"
       y1="-938.94897"
       x2="1084.814"
       y2="-1019.22"
       gradientTransform="matrix(1.1695332,-0.67523022,0.67523022,1.1695332,324.50605,2118.7948)" />
    <clipPath
       id="e">
      <path
         d="m 119.13,47.753 c -8.612,-7.8 -8.33,-8.892 -12.716,-18.528 -4.027,-8.413 -21.602,-6.146 -21.602,-6.146 v 104.078 l 31.217,-0.05 z"
         fill="#787878"
         stroke-width="0.217"
         id="path10" />
    </clipPath>
    <linearGradient
       xlink:href="#d"
       id="f"
       x1="125.081"
       y1="66.349998"
       x2="60.452"
       y2="111.221"
       gradientUnits="userSpaceOnUse"
       gradientTransform="matrix(1.1695332,-0.67523022,0.67523022,1.1695332,-3.5854391,72.233778)" />
  </defs>
  <path
     d="m 119.13,47.753 c -8.612,-7.8 -8.33,-8.892 -12.716,-18.528 -4.027,-8.413 -21.602,-6.146 -21.602,-6.146 v 104.078 l 31.217,-0.05 z"
     clip-path="url(#e)"
     fill="url(#f)"
     stroke="#000000"
     stroke-width="11.2087"
     id="path11"
     style="fill:url(#f)"
     transform="matrix(0.64128153,0.37024403,-0.37024403,0.64128153,29.043398,-44.994708)" />
  <path
     d="m 36.613662,68.100576 -0.29823,-4.620968 2.866612,0.172392 z m 2.568382,-4.448576 -0.298233,-4.620966 2.866612,0.172397 z m 2.568379,-4.448569 -0.298232,-4.620968 2.866614,0.172396 z m 2.568382,-4.448572 -0.298226,-4.620966 2.866608,0.172392 z m 2.568382,-4.448574 -0.298227,-4.620957 2.866614,0.172387 z m 2.568387,-4.44857 -0.298229,-4.62096 2.866988,0.17175 z"
     id="path12"
     style="stroke-width:0.999965" />
  <path
     d="m 52.024333,41.408505 -0.298614,-4.620323 2.866994,0.171756 z m 2.56838,-4.448567 -0.298606,-4.620327 2.866983,0.171757 z m 2.568377,-4.44857 -0.298593,-4.620321 2.866978,0.171745 z m 2.568385,-4.448576 -0.298223,-4.620955 2.866607,0.172382 z m 2.568384,-4.448573 -0.298226,-4.620957 2.866607,0.172396 z"
     id="path13"
     style="stroke-width:0.999965" />
  <path
     d="m 64.865871,19.166295 -0.297857,-4.621604 2.866608,0.172393 z m 2.568751,-4.449211 -0.298589,-4.620322 2.866604,0.172395 z m 2.568383,-4.44857 -0.298224,-4.6209651 2.866606,0.1723951 z m 2.568382,-4.44857 -0.298221,-4.6209643 2.866608,0.1723945 z"
     id="path14"
     style="stroke-width:0.999965" />
  <path
     clip-path="url(#g)"
     d="m -863.208,-528 c -32.792,0 -32.792,48 0,48 H -560 v -48 z"
     transform="matrix(-0.08026158,0.13901694,-0.13901694,-0.08026158,-53.67677,110.87504)"
     fill="url(#h)"
     stroke="#000000"
     stroke-width="51.7051"
     id="path15"
     style="fill:url(#h)" />
  <path
     transform="matrix(-0.37024403,0.64128153,-0.64128153,-0.37024403,196.38979,52.481311)"
     d="M 157.953,126.88 A 6.448,6.448 0 0 0 156,127.252 c -5.72,1.845 -10.255,7.727 -15.973,7.992 -5.202,0 -7.803,-3.467 -13.873,-3.467 -6.07,0 -6.938,6.793 -13.875,6.793 v 10.407 c 0,0 6.44,0 6.44,6.937 0,4.336 2.185,11.271 8.255,10.404 2.414,-0.525 4.28,-2.817 5.147,-6.285 1.175,-4.695 8.259,-6.132 10.611,-3.062 5.203,6.937 7.374,12.457 11.71,15.925 13.874,10.406 24.278,0 20.81,-10.406 -5.203,-13.007 -21.35,-16.982 -21.35,-20.45 0,-3.47 8.67,-0.001 10.405,-3.47 1.13,-2.259 -0.5,-11.818 -6.354,-11.69 z m -29.869,15.817 a 2.0315,2.0315 0 1 1 0,4.063 2.0315,2.0315 0 0 1 0,-4.063 z m 30.465,15.91 c 1.462,-0.084 4.576,1.58 5.69,4.438 1.18,3.233 -1.002,3.885 -3.06,2.266 -2.974,-2.213 -4.56,-5.476 -3.146,-6.56 0.13,-0.084 0.307,-0.132 0.516,-0.144 z"
     clip-path="url(#i)"
     fill="url(#j)"
     stroke="#000000"
     stroke-width="11.2087"
     stroke-linecap="square"
     id="path16"
     style="fill:url(#j)" />
  <circle
     cx="-79.842705"
     cy="-40.485641"
     r="1.0655625"
     transform="rotate(-150)"
     id="circle16"
     style="stroke-width:0.999965" />
  <circle
     transform="rotate(-150)"
     r="1.0655625"
     cy="-63.905006"
     cx="-97.237549"
     id="circle17"
     style="stroke-width:0.999965" />
  <path
     transform="matrix(0.02742767,-0.04750612,0.04750612,0.02742767,80.72378,147.29248)"
     clip-path="url(#k)"
     d="m 976,-1056 v 156 h 124 v -156 z"
     fill="url(#l)"
     stroke="#000000"
     stroke-width="121.539"
     id="path17"
     style="fill:url(#l)" />
  <path
     d="M 40.732885,67.837586 68.896615,19.056572"
     fill="none"
     stroke="#000000"
     stroke-width="4.019"
     stroke-opacity="0.561"
     id="path18" />
</svg>
