<?xml version="1.0" encoding="UTF-8" standalone="no"?>
<svg
   width="83"
   height="92"
   viewBox="0 0 83 92"
   fill="none"
   version="1.1"
   id="svg47"
   sodipodi:docname="confetti_grenade.svg"
   inkscape:version="1.4 (86a8ad7, 2024-10-11)"
   xmlns:inkscape="http://www.inkscape.org/namespaces/inkscape"
   xmlns:sodipodi="http://sodipodi.sourceforge.net/DTD/sodipodi-0.dtd"
   xmlns="http://www.w3.org/2000/svg"
   xmlns:svg="http://www.w3.org/2000/svg">
  <defs
     id="defs47" />
  <sodipodi:namedview
     id="namedview47"
     pagecolor="#ffffff"
     bordercolor="#000000"
     borderopacity="0.25"
     inkscape:showpageshadow="2"
     inkscape:pageopacity="0.0"
     inkscape:pagecheckerboard="0"
     inkscape:deskcolor="#d1d1d1"
     inkscape:zoom="4.3858696"
     inkscape:cx="17.784387"
     inkscape:cy="73.531598"
     inkscape:window-width="1920"
     inkscape:window-height="1009"
     inkscape:window-x="-8"
     inkscape:window-y="-8"
     inkscape:window-maximized="1"
     inkscape:current-layer="svg47" />
  <rect
     x="36.264599"
     y="48.090965"
     width="7.5"
     height="7.5"
     fill="#7d2dd2"
     id="rect1" />
  <rect
     x="36.264145"
     y="40.590176"
     width="7.5"
     height="7.5"
     fill="#42bd7d"
     id="rect2" />
  <rect
     x="43.764519"
     y="48.091011"
     width="7.5"
     height="7.5"
     fill="#42bd7d"
     id="rect3" />
  <rect
     x="43.764065"
     y="40.590221"
     width="7.5"
     height="7.5"
     fill="#d2b12d"
     id="rect4" />
  <rect
     x="51.264442"
     y="48.091057"
     width="7.5"
     height="7.5"
     fill="#d2b12d"
     id="rect5" />
  <rect
     x="43.76461"
     y="33.091167"
     width="7.5"
     height="7.5"
     fill="#d22d2d"
     id="rect6" />
  <rect
     x="51.263988"
     y="40.590267"
     width="7.5"
     height="7.5"
     fill="#d22d2d"
     id="rect7" />
  <rect
     x="43.764973"
     y="55.591797"
     width="7.5"
     height="7.5"
     fill="#7d2dd2"
     id="rect8" />
  <rect
     x="51.264351"
     y="63.0909"
     width="7.5"
     height="7.5"
     fill="#7d2dd2"
     id="rect9" />
  <rect
     x="51.264896"
     y="55.591843"
     width="7.5"
     height="7.5"
     fill="#42bd7d"
     id="rect10" />
  <rect
     x="36.265053"
     y="55.591751"
     width="7.5"
     height="7.5"
     fill="#42bd7d"
     id="rect11" />
  <rect
     x="43.764427"
     y="63.090855"
     width="7.5"
     height="7.5"
     fill="#42bd7d"
     id="rect12" />
  <rect
     x="51.264805"
     y="70.591682"
     width="7.5"
     height="7.5"
     fill="#42bd7d"
     id="rect13" />
  <rect
     x="36.264465"
     y="78.090736"
     width="7.5"
     height="7.5"
     fill="#d2b12d"
     id="rect14" />
  <rect
     x="36.264507"
     y="63.090809"
     width="7.5"
     height="7.5"
     fill="#d2b12d"
     id="rect15" />
  <rect
     x="43.764881"
     y="70.591637"
     width="7.5"
     height="7.5"
     fill="#d2b12d"
     id="rect16" />
  <rect
     x="51.264313"
     y="78.090828"
     width="7.5"
     height="7.5"
     fill="#d2b12d"
     id="rect17" />
  <rect
     x="36.264961"
     y="70.591591"
     width="7.5"
     height="7.5"
     fill="#d22d2d"
     id="rect18" />
  <rect
     x="43.764389"
     y="78.090782"
     width="7.5"
     height="7.5"
     fill="#d22d2d"
     id="rect19" />
  <path
     d="m 35.776652,85.591218 c -3.132331,-1.354157 -5.510458,-4.122594 -6.32956,-7.499919 l 6.818394,4e-6 5e-6,7.500008 z"
     fill="#42bd7d"
     id="path19" />
  <path
     d="m 29.446409,78.091116 c -0.202345,-0.834072 -0.309521,-1.705307 -0.309505,-2.60148 l -3.1e-5,-4.898453 7.127925,-7.2e-5 5e-6,7.500009 z"
     fill="#d2b12d"
     id="path20" />
  <path
     d="m 29.136423,70.590404 -4e-6,-7.500008 7.127974,1.4e-5 -4.5e-5,7.499922 z"
     fill="#d22d2d"
     id="path21" />
  <path
     d="m 29.136919,63.091262 -5e-6,-7.500008 7.127975,1.4e-5 4e-6,7.500008 z"
     fill="#d2b12d"
     id="path22" />
  <path
     d="m 29.136464,55.590474 4.5e-5,-7.499921 7.127925,-7.2e-5 5e-6,7.500008 z"
     fill="#42bd7d"
     id="path23" />
  <path
     d="m 29.137009,48.091419 5.6e-5,-3.048904 c 2.8e-5,-1.58415 0.33498,-3.090198 0.937998,-4.451139 l 6.189916,4.9e-5 5e-6,7.500008 z"
     fill="#7d2dd2"
     id="path24" />
  <path
     d="m 30.074134,40.591567 c 1.190404,-2.68676 3.425489,-4.807879 6.189974,-5.847851 l -5.8e-5,5.847899 z"
     fill="#42bd7d"
     id="path25" />
  <path
     d="m 36.264614,34.743193 c 1.204456,-0.453021 2.509352,-0.700875 3.872085,-0.700952 l 1.967831,-1.8e-5 3.1e-5,-0.951145 1.660135,3.8e-5 5e-6,7.500008 -7.500008,5e-6 z"
     fill="#d2b12d"
     id="path26" />
  <path
     d="m 43.764997,27.116637 2.2e-5,5.974638 -1.660221,1.3e-5 2.1e-5,-5.474563 c 2e-6,-0.275397 0.223656,-0.500018 0.499996,-0.499983 z"
     fill="#d22d2d"
     id="path27" />
  <path
     d="m 51.264745,27.116782 2.3e-5,5.974639 -7.500009,4e-6 -2.2e-5,-5.974638 z"
     fill="#d2b12d"
     id="path28" />
  <path
     d="m 52.917063,33.091481 -1.652382,-1e-5 -2.2e-5,-5.974639 1.152393,4e-6 c 0.27634,3.5e-5 0.499984,0.224598 0.499983,0.499995 z"
     fill="#42bd7d"
     id="path29" />
  <path
     d="m 52.916863,33.091134 1.9e-5,0.951232 1.97464,-2.3e-5 c 1.363143,3.3e-5 2.668361,0.247937 3.873057,0.701332 l -3.5e-5,5.847539 -7.500008,5e-6 -5e-6,-7.500008 z"
     fill="#d2b12d"
     id="path30" />
  <path
     d="m 58.764829,34.744108 c 2.763985,1.040163 4.998634,3.161089 6.188938,5.847555 l -6.188973,-1.6e-5 z"
     fill="#42bd7d"
     id="path31" />
  <path
     d="m 64.952967,40.590277 c 0.602958,1.360955 0.937975,2.867021 0.937946,4.451171 l 3.1e-5,3.048853 -7.126945,-3.1e-5 -5e-6,-7.500008 z"
     fill="#d2b12d"
     id="path32" />
  <path
     d="m 65.891394,48.091081 5e-6,7.500008 -7.126946,-3.1e-5 -4e-6,-7.500009 z"
     fill="#d22d2d"
     id="path33" />
  <path
     d="m 65.891849,55.591868 5e-6,7.500009 -7.126946,-3.2e-5 -5e-6,-7.500008 z"
     fill="#d2b12d"
     id="path34" />
  <path
     d="m 65.891304,63.090924 4e-6,7.500008 -7.126945,-3.1e-5 -5e-6,-7.500008 z"
     fill="#42bd7d"
     id="path35" />
  <path
     d="m 65.891758,70.591712 3.1e-5,4.898453 c -1.03e-4,0.896222 -0.107261,1.767419 -0.309607,2.601544 l -6.817364,-2.1e-5 -5e-6,-7.500008 z"
     fill="#7d2dd2"
     id="path36" />
  <path
     d="m 65.581682,78.090843 c -0.819079,3.377314 -3.197248,6.145806 -6.329514,7.499961 l -0.487846,2.7e-5 -4e-6,-7.500009 z"
     fill="#42bd7d"
     id="path37" />
  <path
     d="m 59.252618,85.591584 c -0.160702,0.06946 -0.323417,0.135225 -0.487886,0.197157 l 4e-5,-0.197131 z"
     fill="#d2b12d"
     id="path38" />
  <path
     d="m 58.764819,85.788691 c -1.204752,0.453307 -2.509908,0.701311 -3.873051,0.701279 l -3.627022,1.2e-5 1.8e-5,-0.898367 7.500008,-5e-6 z"
     fill="#d22d2d"
     id="path39" />
  <path
     d="m 51.264832,86.489932 -7.500008,5e-6 1.9e-5,-0.898368 7.500008,-4e-6 z"
     fill="#d2b12d"
     id="path40" />
  <path
     d="m 43.764911,86.489887 -3.627916,6.7e-5 c -1.362783,-1e-5 -2.667641,-0.247891 -3.872051,-0.700989 l -2.3e-5,-0.197441 7.500008,-5e-6 z"
     fill="#42bd7d"
     id="path41" />
  <path
     d="m 36.263661,85.787742 c -0.164871,-0.06197 -0.327825,-0.12781 -0.488812,-0.197447 l 0.488789,7e-6 z"
     fill="#7d2dd2"
     id="path42" />
  <path
     d="m 42.104569,27.616292 c 2e-6,-0.275397 0.223569,-0.499968 0.499996,-0.499983 l 9.812497,-5.6e-5 c 0.27634,3.5e-5 0.499984,0.224598 0.499982,0.499995 l -3e-6,6.425795 1.974554,2.7e-5 c 6.075219,-1.1e-5 11.000034,4.925817 11.000028,11.000007 l 2.6e-5,30.447245 c -6e-6,6.07419 -4.924788,11.000017 -11.000008,11.000028 l -14.754859,3.4e-5 c -6.07522,1.1e-5 -11.000034,-4.925817 -11.000028,-11.000007 l 6.1e-5,-30.447295 c -4.4e-5,-6.074277 4.924788,-11.000017 10.999921,-10.999978 l 1.96783,-1.8e-5 z"
     stroke="#191a14"
     stroke-width="4"
     id="path43" />
  <path
     d="m 53.944405,13.884688 c -1.5e-5,0.392375 0.07729,0.780872 0.227586,1.143392 0.150296,0.36252 0.37055,0.69181 0.648175,0.969271 0.277624,0.27746 0.607225,0.497545 0.969992,0.647676 0.362817,0.150216 0.751579,0.227372 1.144264,0.227323 0.392649,8.7e-5 0.781505,-0.07719 1.144262,-0.227281 0.362707,-0.150172 0.69232,-0.370266 0.970017,-0.647681 0.27756,-0.277452 0.497882,-0.606843 0.648162,-0.969349 0.150194,-0.362457 0.227586,-0.75101 0.2276,-1.143385 -7.2e-5,-0.392326 -0.07738,-0.780822 -0.227673,-1.143342 -0.150246,-0.362434 -0.370513,-0.691947 -0.648138,-0.969407 -0.277624,-0.277461 -0.607262,-0.497409 -0.969942,-0.64759 -0.362767,-0.15013 -0.751629,-0.227459 -1.144314,-0.22741 -0.392599,-1e-6 -0.781455,0.07728 -1.144248,0.227504 -0.362757,0.150086 -0.692334,0.370043 -0.969981,0.647545 -0.277696,0.277415 -0.497882,0.606842 -0.648162,0.969349 -0.15028,0.362507 -0.227586,0.75101 -0.2276,1.143385 z"
     fill="#453c47"
     stroke="#181519"
     stroke-width="4"
     stroke-miterlimit="3.99393"
     id="path44" />
  <path
     d="m 35.752544,21.079662 -14.969147,6.183275 -6.054186,23.075643 6.166522,2.25633 6.054192,-22.681432 6.654591,-2.79691 z"
     fill="#48354e"
     stroke="#19131b"
     stroke-width="4"
     stroke-miterlimit="3.99393"
     id="path45" />
  <path
     d="m 51.653675,12.757428 1.264406,1.127216 3.96801,-6e-6 -5.232427,7.13237 1.264339,6.098701 c 0,0 -11.100375,-1.4e-5 -11.251897,-5.9e-5 l -8.06137,9.8e-5 5.108999,-14.358354 z"
     fill="#48354e"
     stroke="#19131b"
     stroke-width="4"
     stroke-miterlimit="3.99393"
     stroke-linecap="square"
     id="path46" />
  <path
     fill-rule="evenodd"
     clip-rule="evenodd"
     d="m 38.714693,40.792854 c 6.365265,-3.7e-5 11.524859,-5.160159 11.524958,-11.525388 -3.8e-5,-6.365265 -5.15974,-11.525331 -11.524969,-11.52543 -6.364682,4.7e-5 -11.524858,5.160159 -11.524907,11.525474 -1.3e-5,6.365179 5.160186,11.525305 11.524918,11.525344 z m 3.4e-5,-4.095742 c 4.103941,3.4e-5 7.431143,-3.326082 7.431154,-7.429663 -1e-5,-4.105417 -3.327188,-7.431659 -7.431216,-7.431644 -4.104027,1.6e-5 -7.431093,3.326169 -7.43112,7.431723 2.5e-5,4.103444 3.327154,7.4296 7.431182,7.429584 z"
     fill="#a29ca2"
     stroke="#222022"
     stroke-width="2"
     stroke-miterlimit="3.99393"
     id="path47" />
</svg>
