<?xml version="1.0" encoding="UTF-8" standalone="no"?>
<svg
   width="111.386"
   height="111"
   viewBox="0 0 111.386 111"
   fill="none"
   version="1.1"
   id="svg16"
   sodipodi:docname="feral_claws.svg"
   inkscape:version="1.4 (86a8ad7, 2024-10-11)"
   xmlns:inkscape="http://www.inkscape.org/namespaces/inkscape"
   xmlns:sodipodi="http://sodipodi.sourceforge.net/DTD/sodipodi-0.dtd"
   xmlns="http://www.w3.org/2000/svg"
   xmlns:svg="http://www.w3.org/2000/svg">
  <defs
     id="defs16" />
  <sodipodi:namedview
     id="namedview16"
     pagecolor="#ffffff"
     bordercolor="#000000"
     borderopacity="0.25"
     inkscape:showpageshadow="2"
     inkscape:pageopacity="0.0"
     inkscape:pagecheckerboard="0"
     inkscape:deskcolor="#d1d1d1"
     inkscape:zoom="5.1408574"
     inkscape:cx="44.156058"
     inkscape:cy="81.017614"
     inkscape:window-width="1920"
     inkscape:window-height="1009"
     inkscape:window-x="-8"
     inkscape:window-y="-8"
     inkscape:window-maximized="1"
     inkscape:current-layer="svg16" />
  <path
     d="m 28.175248,70.215792 61.206318,-0.416535 c 4.846335,0.01879 9.075659,1.294884 12.888654,3.343944 -3.68873,2.069787 -7.77447,3.440926 -12.798233,3.557811 l -61.177205,0.416272"
     fill="#808080"
     id="path1" />
  <path
     d="m 99.121465,73.282504 c -2.712622,0.623775 -5.789185,0.883069 -9.130894,0.98568 L 32.92676,74.717353 c -1.965448,-0.04856 -4.041058,1.179961 -5.526019,2.149711 l 2.837728,0.558423 62.315271,-0.504996 z"
     fill="#4d4d4d"
     id="path2" />
  <path
     d="m 36.072824,65.948685 c -1.000816,1.937973 -0.750253,4.133499 1.923176,4.163744 l 51.333711,-0.238733 c 4.871815,0.02941 9.125919,1.3244 12.963249,3.397274 -3.702778,2.078358 -7.806998,3.450931 -12.857286,3.557478 l -56.376558,0.262181 c -2.944658,0.0037 -4.196099,1.643959 -4.691689,2.978331"
     stroke="#292929"
     stroke-width="2.6368"
     id="path3" />
  <path
     d="m 34.023586,51.770356 61.206319,-0.416535 c 4.846405,0.01885 9.075805,1.295017 12.888565,3.343878 -3.68833,2.070116 -7.77416,3.44119 -12.798145,3.557878 l -61.177204,0.416271"
     fill="#808080"
     id="path4" />
  <path
     d="M 27.032648,33.325559 88.239042,32.90909 c 4.846337,0.01879 9.07573,1.294949 12.888498,3.343796 -3.688266,2.070198 -7.774158,3.441207 -12.798077,3.557959 l -61.177205,0.416272"
     fill="#808080"
     id="path5" />
  <path
     d="m 105.42299,54.592373 c -2.7131,0.623736 -5.790178,0.882855 -9.132544,0.985159 l -56.855163,0.480156 c -1.866863,0.168183 -3.462677,1.094436 -4.936073,2.868186 l 2.027448,-0.19607 62.328056,-0.498518 z"
     fill="#4d4d4d"
     id="path6" />
  <path
     d="m 36.091238,47.732646 c -0.162296,1.550297 0.04069,3.752696 3.310774,3.757024 l 56.273924,-0.24182 c 4.876764,0.03134 9.135794,1.329807 12.977604,3.406834 -3.70611,2.07958 -7.81405,3.452627 -12.869041,3.557731 l -56.337921,0.24197 c -2.903012,0.125949 -3.196121,3.080732 -3.135601,4.571643"
     stroke="#292929"
     stroke-width="2.6368"
     id="path7" />
  <path
     d="m 98.175615,36.439686 c -2.714832,0.623432 -5.793953,0.8817 -9.138734,0.982968 l -51.288587,0.419732 c -2.900769,0.162083 -4.250958,1.674448 -5.80192,3.368845 l 0.407212,-0.678333 59.250309,-0.452783 z"
     fill="#4d4d4d"
     id="path8" />
  <path
     d="m 27.340726,29.631975 c 1.656058,2.29409 3.620145,3.775794 6.721331,3.618197 l 54.416469,-0.24725 c 4.873278,0.03001 9.129158,1.326159 12.967684,3.400246 -3.703948,2.07849 -7.809358,3.451216 -12.860949,3.557429 l -51.028041,0.23189 c -2.577429,0.270111 -3.191723,2.305314 -1.67997,3.927526"
     stroke="#292929"
     stroke-width="2.6368"
     id="path9" />
  <path
     d="m 37.885359,47.067554 -8.332903,-8.609105 0.497807,-3.353355 -3.317852,-7.570336 -6.110867,-2.169427 -6.740175,1.706418 -2.939234,5.139182 0.0776,6.704051 -2.1829195,3.136408 -4.8711118,-5.739739 -2.5644173,20.199814 3.242516,18.583149 3.2225246,-5.009257 3.398426,-0.526208 1.000379,11.054195 4.192592,4.435595 6.727373,0.0797 6.049538,-3.577333 0.575499,-9.227576 7.987752,-7.410354 -2.75049,-9.747567 z m -4.780818,0.87862 c 0.01149,0.614323 -0.107008,1.222849 -0.348636,1.790721 -0.241692,0.567949 -0.601763,1.084136 -1.059803,1.519136 -0.457973,0.434926 -1.004864,0.780235 -1.609455,1.016024 -0.604517,0.235855 -1.255011,0.357541 -1.914241,0.358344 -0.659089,7.97e-4 -1.314027,-0.119491 -1.927397,-0.353897 -0.613371,-0.234403 -1.173233,-0.57838 -1.647374,-1.012275 -0.474207,-0.43382 -0.853534,-0.949197 -1.116418,-1.516524 -0.262883,-0.567326 -0.403943,-1.175565 -0.415504,-1.789954 -0.01142,-0.614397 0.107008,-1.222848 0.348702,-1.790796 0.241627,-0.567873 0.601698,-1.08406 1.059662,-1.519127 0.457974,-0.434925 1.004938,-0.780169 1.609532,-1.015957 0.604592,-0.235789 1.254999,-0.357683 1.914165,-0.35841 0.659164,-7.26e-4 1.314167,0.119473 1.927539,0.353883 0.613371,0.234404 1.17309,0.578389 1.647374,1.012275 0.474142,0.433896 0.853534,0.949199 1.116352,1.5166 0.262883,0.567327 0.404008,1.17549 0.415503,1.789953 z m -0.193809,14.960653 c 0.01149,0.614323 -0.107008,1.22285 -0.348634,1.790721 -0.241693,0.567949 -0.601689,1.084202 -1.059663,1.519127 -0.45804,0.435001 -1.004939,0.780168 -1.609597,1.016033 -0.604518,0.235854 -1.254935,0.357606 -1.9141,0.358334 -0.65923,8.05e-4 -1.314168,-0.119473 -1.927538,-0.353883 -0.613373,-0.234404 -1.173092,-0.578389 -1.647299,-1.012209 -0.474217,-0.43396 -0.85361,-0.949263 -1.116493,-1.51659 -0.262742,-0.567337 -0.403943,-1.175565 -0.415429,-1.789887 -0.0115,-0.614465 0.107,-1.22299 0.348626,-1.790863 0.241626,-0.567872 0.601765,-1.084136 1.059737,-1.519061 0.458041,-0.435002 1.004864,-0.780235 1.609458,-1.016023 0.604657,-0.235864 1.255074,-0.357617 1.91424,-0.358345 0.659154,-8.66e-4 1.314092,0.119413 1.927464,0.353818 0.613371,0.234405 1.173165,0.578456 1.647374,1.012275 0.474217,0.433961 0.853533,0.949198 1.116416,1.516524 0.262818,0.567402 0.404019,1.175631 0.415438,1.790029 z M 25.074674,34.31038 c 0.01142,0.614399 -0.107079,1.222925 -0.3487,1.790797 -0.241692,0.567949 -0.601765,1.084136 -1.059662,1.519127 -0.457975,0.434926 -1.004864,0.780235 -1.609457,1.016023 -0.604593,0.235789 -1.255076,0.357616 -1.91424,0.358344 -0.65909,7.97e-4 -1.314169,-0.119474 -1.927539,-0.353883 -0.613372,-0.234405 -1.173092,-0.578391 -1.647232,-1.012286 -0.474283,-0.433885 -0.853678,-0.949188 -1.116419,-1.516524 -0.262882,-0.567327 -0.404085,-1.175555 -0.415504,-1.789953 -0.01156,-0.614388 0.106929,-1.222915 0.348561,-1.790787 0.241692,-0.567949 0.601764,-1.084135 1.059803,-1.519137 0.457973,-0.434925 1.004798,-0.780159 1.609457,-1.016023 0.604591,-0.235789 1.255074,-0.357616 1.91424,-0.358344 0.659164,-7.26e-4 1.314026,0.119491 1.927398,0.353897 0.61337,0.234404 1.173165,0.578455 1.647372,1.012274 0.474218,0.433962 0.853535,0.949199 1.116418,1.516525 0.262818,0.567403 0.403943,1.175565 0.415503,1.789953 z M 25.7684,76.570509 c 0.01148,0.614323 -0.107008,1.22285 -0.348703,1.790797 -0.24155,0.567939 -0.601697,1.08406 -1.059736,1.519062 -0.457898,0.434991 -1.004864,0.780233 -1.609382,1.016089 -0.604591,0.235788 -1.255151,0.35755 -1.914239,0.358343 -0.659165,7.27e-4 -1.314169,-0.119473 -1.92754,-0.353883 -0.61337,-0.234404 -1.173091,-0.578389 -1.647373,-1.012275 -0.474142,-0.433894 -0.853469,-0.949273 -1.116352,-1.516599 -0.262809,-0.567261 -0.40401,-1.17549 -0.415429,-1.789888 -0.01156,-0.614389 0.106939,-1.222914 0.348627,-1.790862 0.241626,-0.567873 0.601698,-1.084061 1.059671,-1.518986 0.457964,-0.435067 1.00493,-0.780311 1.609522,-1.016099 0.604592,-0.235788 1.255011,-0.35754 1.914164,-0.35841 0.659165,-7.26e-4 1.314104,0.119553 1.92754,0.353883 0.613371,0.234405 1.173091,0.57839 1.647308,1.012351 0.474208,0.43382 0.853534,0.949198 1.116417,1.516524 0.262885,0.567327 0.40401,1.17549 0.415505,1.789953 z m -5.711754,-20.157616 -2.790503,2.650247 0.16031,8.587507 -7.374707,-2.268608 -3.7049517,-7.475149 0.9142878,-7.57374 3.5670559,-5.267193 6.214148,-1.483823 -0.380389,6.15567 z"
     fill="#5a4d26"
     id="path10" />
  <path
     d="m 1.3179589,55.276194 c 0.157751,6.096775 0.9426982,12.319527 2.6619382,19.487745 0.3653507,2.090462 1.8677275,1.962794 2.4675209,-1.952356 0.8109321,-4.798376 5.967858,-3.930433 5.190901,1.258545 -3.1169165,14.562051 21.104563,14.337875 18.098767,0.809522 -0.475097,-1.951867 -0.03211,-3.202249 1.674562,-3.756531 6.730225,-2.8881 7.637194,-8.093116 4.284471,-13.138347 C 34.9099,56.588201 35.033215,55.36641 35.053082,54.960206 M 1.3293812,55.885559 c -0.069935,-6.09689 0.4826271,-12.321121 1.934181,-19.493145 0.2873325,-2.091126 1.7943687,-1.966967 2.5403041,1.946561 0.9900424,4.796316 6.1143427,3.916431 5.1436707,-1.270488 -3.6606737,-14.554495 20.56829,-14.386323 18.067818,-0.851522 -0.402226,1.952823 0.08746,3.202136 1.81474,3.752405 6.837734,2.872303 7.93902,8.07511 4.77483,13.127922 -0.734046,1.398184 -0.565202,2.619676 -0.530061,3.025863"
     stroke="#2b2412"
     stroke-width="2.6368"
     id="path11" />
  <path
     d="m 22.559563,47.841598 c 0.04918,2.558286 2.312668,4.630848 5.05567,4.629218 2.743001,-0.0016 4.926692,-2.076825 4.877516,-4.635111 -0.04911,-2.558361 -2.312601,-4.630923 -5.055603,-4.629293 -2.742927,0.0017 -4.926758,2.076901 -4.877583,4.635186 z"
     stroke="#2b2412"
     stroke-width="2.6368"
     id="path12" />
  <path
     d="m 15.215522,34.063288 c 0.04918,2.558285 2.312666,4.630848 5.055668,4.629219 2.743003,-0.0016 4.926758,-2.076902 4.877583,-4.635187 -0.04918,-2.558285 -2.312667,-4.630848 -5.055669,-4.629218 -2.743002,0.0016 -4.926758,2.076901 -4.877582,4.635186 z"
     stroke="#2b2412"
     stroke-width="2.6368"
     id="path13" />
  <path
     d="m 22.726108,63.002746 c 0.04918,2.558285 2.3126,4.630922 5.05567,4.629218 2.742925,-0.0017 4.926692,-2.076827 4.877515,-4.635111 -0.04911,-2.558362 -2.312601,-4.630924 -5.055603,-4.629294 -2.743068,0.0017 -4.926758,2.076901 -4.877582,4.635187 z"
     stroke="#2b2412"
     stroke-width="2.6368"
     id="path14" />
  <path
     d="m 15.560721,76.982408 c 0.04918,2.558286 2.312667,4.630847 5.055593,4.629152 2.743001,-0.0016 4.926834,-2.076835 4.877657,-4.63512 -0.04918,-2.558286 -2.312667,-4.630848 -5.055668,-4.629219 -2.743003,0.0016 -4.926759,2.076902 -4.877582,4.635187 z"
     stroke="#2b2412"
     stroke-width="2.6368"
     id="path15" />
  <path
     d="m 20.288603,55.367163 c -0.0037,0.294497 0.168245,1.477495 -1.334134,2.413021 -1.940366,1.236643 -2.083644,4.482133 -1.395166,7.33645 0.281669,1.024486 -0.449073,2.645227 -2.364854,2.32171 C 7.8493024,65.739483 6.7630093,61.133246 6.5754941,55.413667 m 13.7199719,0.323315 c -0.01471,-0.294484 0.11341,-1.477909 -1.423547,-2.409443 -1.986078,-1.231578 -2.249559,-4.476482 -1.666932,-7.332496 0.243667,-1.025214 -0.547164,-2.643894 -2.450805,-2.315425 -7.2817999,1.717897 -8.1973449,6.326888 -8.1729228,12.046599"
     stroke="#2b2412"
     stroke-width="2.6368"
     id="path16" />
</svg>
