<?xml version="1.0" encoding="UTF-8" standalone="no"?>
<svg
   width="75"
   height="78"
   viewBox="0 0 75 78"
   fill="none"
   version="1.1"
   id="svg8"
   sodipodi:docname="frag_grenade.svg"
   inkscape:version="1.4 (86a8ad7, 2024-10-11)"
   xmlns:inkscape="http://www.inkscape.org/namespaces/inkscape"
   xmlns:sodipodi="http://sodipodi.sourceforge.net/DTD/sodipodi-0.dtd"
   xmlns="http://www.w3.org/2000/svg"
   xmlns:svg="http://www.w3.org/2000/svg">
  <defs
     id="defs8" />
  <sodipodi:namedview
     id="namedview8"
     pagecolor="#ffffff"
     bordercolor="#000000"
     borderopacity="0.25"
     inkscape:showpageshadow="2"
     inkscape:pageopacity="0.0"
     inkscape:pagecheckerboard="0"
     inkscape:deskcolor="#d1d1d1"
     inkscape:zoom="5.1730769"
     inkscape:cx="16.817844"
     inkscape:cy="54.02974"
     inkscape:window-width="1920"
     inkscape:window-height="1009"
     inkscape:window-x="-8"
     inkscape:window-y="-8"
     inkscape:window-maximized="1"
     inkscape:current-layer="svg8" />
  <path
     d="m 38.83387,26.40202 c -0.276153,8.9e-5 -0.500034,0.223916 -0.500032,0.50012 l 7e-6,9.336211 c 2e-6,0.276204 0.223866,0.499948 0.499983,0.499996 l 4.903786,7e-6 4.908624,-1.4e-5 c 0.276204,-10e-7 0.500084,-0.223829 0.499996,-0.499982 l 8e-5,-9.336262 c -2e-6,-0.276203 -0.223916,-0.500034 -0.499983,-0.499995 z"
     fill="#575946"
     stroke="#191a14"
     stroke-width="4"
     stroke-miterlimit="3.99393"
     id="path1" />
  <path
     d="m 43.739826,33.326785 c -4.8547,0.0012 -9.510089,1.932443 -12.942281,5.368711 -3.432329,3.436233 -5.360234,8.096203 -5.359933,12.955124 -2.82e-4,4.858912 1.927682,9.518843 5.359851,12.955134 3.432255,3.436241 8.087626,5.367379 12.942387,5.368672 2.404251,8.6e-5 4.784947,-0.473628 7.006238,-1.394439 2.221292,-0.920811 4.239598,-2.270601 5.939712,-3.972118 1.700063,-1.701604 3.048666,-3.721754 3.968739,-5.944941 0.920023,-2.223274 1.39339,-4.605979 1.393305,-7.012326 1.38e-4,-2.40636 -0.473349,-4.789265 -1.393288,-7.012446 -0.920075,-2.223217 -2.268671,-4.243252 -3.968705,-5.944799 -1.700122,-1.701497 -3.718504,-3.051237 -5.939722,-3.9721 -2.221305,-0.920813 -4.602065,-1.39461 -7.006303,-1.394472 z"
     fill="#575946"
     id="path2" />
  <path
     d="m 61.982119,50.096563 -36.478469,3.9e-5 c -0.03999,0.470535 -0.06188,0.944016 -0.06537,1.419573 l -4.1e-5,0.26953 c 0.0035,0.475811 0.0255,0.949568 0.06545,1.420367 l 36.478381,1.1e-5 c 0.04206,-0.493553 0.06409,-0.989398 0.06589,-1.486269 l 1.9e-5,-0.137767 c -0.0019,-0.496607 -0.02389,-0.992182 -0.06587,-1.485484 z"
     fill="#404233"
     id="path3" />
  <path
     d="m 50.172644,13.170553 c -6.4e-5,0.392289 0.07729,0.780871 0.227587,1.143392 0.15016,0.362484 0.370463,0.69186 0.648088,0.96932 0.277711,0.277411 0.607225,0.497546 0.969992,0.647676 0.362767,0.150131 0.751665,0.227323 1.144264,0.227324 0.392685,-4.9e-5 0.781505,-0.07719 1.144262,-0.227281 0.362793,-0.150223 0.69232,-0.370266 0.969967,-0.647768 0.277696,-0.277415 0.497932,-0.606756 0.648212,-0.969263 0.150281,-0.362506 0.227536,-0.751095 0.227601,-1.143384 1.4e-5,-0.392376 -0.07738,-0.780822 -0.227587,-1.143392 -0.150296,-0.362521 -0.370513,-0.691947 -0.648224,-0.969357 -0.277625,-0.277461 -0.607176,-0.49746 -0.969943,-0.64759 -0.362766,-0.15013 -0.751629,-0.227459 -1.144227,-0.22746 -0.392686,4.9e-5 -0.781541,0.07733 -1.144299,0.227417 -0.362793,0.150223 -0.69237,0.37018 -0.96993,0.647632 -0.277697,0.277415 -0.497969,0.606892 -0.648249,0.969399 -0.150194,0.362457 -0.2275,0.750959 -0.227514,1.143335 z"
     fill="#47443c"
     stroke="#191815"
     stroke-width="4"
     stroke-miterlimit="3.99393"
     id="path4" />
  <path
     d="m 47.882348,12.043043 1.264319,1.127266 3.96801,-6e-6 -5.232341,7.13232 1.26434,6.098701 c 0,0 -11.100462,3.6e-5 -11.251984,-9e-6 l -8.061334,-3.8e-5 5.108963,-14.358218 z"
     fill="#4e4735"
     stroke="#1b1913"
     stroke-width="4"
     stroke-miterlimit="3.99393"
     stroke-linecap="square"
     id="path5" />
  <path
     d="m 31.98113,20.365327 -14.969147,6.183275 -6.054186,23.075643 6.166522,2.25633 6.054142,-22.681518 6.654641,-2.796824 z"
     fill="#4e4735"
     stroke="#1b1913"
     stroke-width="4"
     stroke-miterlimit="3.99393"
     id="path6" />
  <path
     d="m 43.739826,33.326785 c -4.8547,0.0012 -9.510089,1.932443 -12.942281,5.368711 -3.432329,3.436233 -5.360234,8.096203 -5.359933,12.955124 -2.82e-4,4.858912 1.927682,9.518843 5.359851,12.955134 3.432255,3.436241 8.087626,5.367379 12.942387,5.368672 2.404251,8.6e-5 4.784947,-0.473628 7.006238,-1.394439 2.221292,-0.920811 4.239598,-2.270601 5.939712,-3.972118 1.700063,-1.701604 3.048666,-3.721754 3.968739,-5.944941 0.920023,-2.223274 1.39339,-4.605979 1.393305,-7.012326 1.38e-4,-2.40636 -0.473349,-4.789265 -1.393288,-7.012446 -0.920075,-2.223217 -2.268671,-4.243252 -3.968705,-5.944799 -1.700122,-1.701497 -3.718504,-3.051237 -5.939722,-3.9721 -2.221305,-0.920813 -4.602065,-1.39461 -7.006303,-1.394472 z"
     stroke="#191a14"
     stroke-width="4"
     stroke-miterlimit="3.99393"
     id="path7" />
  <path
     fill-rule="evenodd"
     clip-rule="evenodd"
     d="m 34.943712,40.078269 c 6.365265,-3.7e-5 11.524945,-5.160209 11.524908,-11.525474 1.2e-5,-6.365179 -5.159653,-11.525382 -11.524918,-11.525345 -6.364732,-3.9e-5 -11.524859,5.16016 -11.524871,11.525338 -4.9e-5,6.365315 5.160149,11.525442 11.524881,11.525481 z m 3.4e-5,-4.095742 c 4.103941,3.4e-5 7.431093,-3.326169 7.431154,-7.429663 -6e-5,-4.105504 -3.327188,-7.43166 -7.431216,-7.431644 -4.103941,-3.4e-5 -7.431093,3.326169 -7.43117,7.431636 7.6e-5,4.103531 3.327204,7.429687 7.431232,7.429671 z"
     fill="#a1a29c"
     stroke="#222220"
     stroke-width="2"
     stroke-miterlimit="3.99393"
     id="path8" />
</svg>
