<?xml version="1.0" encoding="UTF-8" standalone="no"?>
<svg
   width="124.539"
   height="110"
   viewBox="0 0 124.539 110"
   fill="none"
   version="1.1"
   id="svg77"
   sodipodi:docname="l86a2.svg"
   inkscape:version="1.4 (86a8ad7, 2024-10-11)"
   xml:space="preserve"
   xmlns:inkscape="http://www.inkscape.org/namespaces/inkscape"
   xmlns:sodipodi="http://sodipodi.sourceforge.net/DTD/sodipodi-0.dtd"
   xmlns="http://www.w3.org/2000/svg"
   xmlns:svg="http://www.w3.org/2000/svg"><sodipodi:namedview
     id="namedview79"
     pagecolor="#505050"
     bordercolor="#ffffff"
     borderopacity="1"
     inkscape:pageshadow="0"
     inkscape:pageopacity="0"
     inkscape:pagecheckerboard="1"
     showgrid="false"
     inkscape:zoom="1.4142136"
     inkscape:cx="144.95689"
     inkscape:cy="185.61553"
     inkscape:window-width="1920"
     inkscape:window-height="1009"
     inkscape:window-x="-8"
     inkscape:window-y="-8"
     inkscape:window-maximized="1"
     inkscape:current-layer="svg77"
     inkscape:showpageshadow="2"
     inkscape:deskcolor="#d1d1d1" /><defs
     id="defs75"><clipPath
       id="clip0_619_1191"><rect
         width="110"
         height="110"
         fill="#ffffff"
         transform="translate(0.0859375)"
         id="rect72"
         x="0"
         y="0" /></clipPath><clipPath
       id="clip0_619_1196"><rect
         width="110"
         height="110"
         fill="#ffffff"
         id="rect50"
         x="0"
         y="0" /></clipPath></defs><g
     id="g79"
     transform="matrix(0.18257213,0.10540807,-0.10540807,0.18257213,26.497463,-14.629409)"><g
       stroke-width="2"
       fill="none"
       stroke-linecap="butt"
       id="g15"><path
         stroke="#50503e"
         vector-effect="non-scaling-stroke"
         d="m 387.4,118.41 q -0.63,-1.18 -1.62,-1.19 -0.56,0 -0.45,0.54 0.33,1.53 1.64,2.13"
         id="path1-9" /><path
         stroke="#50503e"
         vector-effect="non-scaling-stroke"
         d="m 348.93,112.03 4.43,7.07 q 0.25,0.4 0.72,0.4 h 0.65 a 0.58,0.58 0 0 0 0.51,-0.85 q -1.88,-3.54 -4.1,-6.81 -0.24,-0.37 -1.13,-0.38"
         id="path2-1" /><path
         stroke="#50503e"
         vector-effect="non-scaling-stroke"
         d="m 370.73,119.68 q -1.95,-3.41 -4.33,-6.62 -1.16,-1.56 -2.45,-0.11 a 0.94,0.93 51.1 0 0 -0.11,1.09 l 4.23,7.18 q 0.43,0.74 -0.29,1.19 l -71.03,43.75 a 1.2,1.2 0 0 0 -0.39,1.65 l 7.85,12.7 a 1.18,1.18 0 0 0 1.75,0.3 c 4.77,-3.88 9.04,1.44 14.32,-1.81 q 32.52,-19.97 65.24,-40.25 a 1.47,1.46 -32.1 0 0 0.47,-2.02 l -11.12,-17.88 a 0.75,0.75 0 0 0 -1.06,-0.22 l -1.95,1.31 a 0.8,0.79 -31.7 0 1 -1.13,-0.26"
         id="path3-5" /><path
         stroke="#50503e"
         vector-effect="non-scaling-stroke"
         d="m 342.52,120.05 a 1.03,1.03 0 0 0 -1.41,-0.33 l -47.23,29.1 a 1.03,1.03 0 0 0 -0.47,1.09 l 1.13,5.41 a 1.03,1.03 0 0 0 1.55,0.67 l 48.85,-30.15 a 1.03,1.03 0 0 0 0.33,-1.43 l -2.75,-4.36"
         id="path4-3" /><path
         stroke="#50503e"
         vector-effect="non-scaling-stroke"
         d="m 379.19,133.41 a 3.84,3.84 0 0 0 -3.84,-3.84 3.84,3.84 0 0 0 -3.84,3.84 3.84,3.84 0 0 0 3.84,3.84 3.84,3.84 0 0 0 3.84,-3.84"
         id="path5-8" /><path
         stroke="#3d3d3a"
         vector-effect="non-scaling-stroke"
         d="m 76.29,346.2 q 3.49,3.68 7.1,8.17 a 1.06,1.05 37.6 0 0 1.78,-0.23 c 3.56,-7.88 8.09,-20.52 14.87,-25.34 22.08,-15.71 46.22,-34.84 69.68,-52.22 a 0.83,0.83 0 0 1 1.2,0.22 l 9.38,15.04 a 1.42,1.42 0 0 0 2.07,0.38 l 23.85,-18.24 a 1.1,1.1 0 0 0 0.27,-1.44 l -9.3,-15.27 a 0.59,0.58 56.9 0 1 0.16,-0.77 l 34.91,-24.95 q 0.53,-0.37 0.18,-0.91 l -4.38,-6.78 q -0.7,-1.09 0.4,-1.77 l 51.83,-32.1 q 1.22,-0.76 1.86,0.52 0.77,1.54 1.88,3.02 a 1.67,1.38 -84.7 0 0 2.16,-2.17 l -12.82,-20.7 a 1.46,1.45 59.2 0 0 -1.95,-0.5 c -25.87,14.58 -52.17,29.01 -77.14,45.27 -20.02,13.03 -42.03,24.95 -60.21,36.15 -7.04,4.34 -14.61,10.07 -22.07,14.45 -16.75,9.82 -33.93,19.62 -49.87,30.7 a 0.89,0.88 -19 0 0 -0.38,0.76 q 0,0.15 0,0.3 -0.01,0.3 -0.25,0.46 L 46.04,308.4 q -0.8,0.52 -0.24,1.29 14.4,19.49 30.49,36.51"
         id="path6-49" /><path
         stroke="#50503e"
         vector-effect="non-scaling-stroke"
         d="m 272.23,219.99 q -0.28,-0.2 -0.44,-0.22 -0.05,0 -0.4,0.19 -5.01,2.83 -10.47,6.31 a 0.75,0.75 0 0 0 -0.04,1.24 c 7.2,5.29 8.47,11.32 9.39,20.78 q 1.75,17.93 5.65,35.93 a 0.65,0.64 75.9 0 0 0.8,0.48 l 10.29,-2.81 a 1.93,1.93 0 0 0 1.38,-2.27 c -3.4,-15.64 -7.56,-31.38 -9.79,-47.07"
         id="path7-8" /><path
         stroke="#50503e"
         vector-effect="non-scaling-stroke"
         d="m 278.5,229.38 c 1.64,-2.72 -2.15,-8.55 -3.53,-10.35 q -0.36,-0.47 -1.2,-0.23"
         id="path8-2" /><path
         stroke="#3d3d3a"
         vector-effect="non-scaling-stroke"
         d="m 267.5741,178.6228 a 1.32,1.32 0 0 0 -1.8204,-0.4136 l -4.214,2.6538 a 1.32,1.32 0 0 0 -0.4136,1.8203 l 0.1598,0.2539 a 1.32,1.32 0 0 0 1.8204,0.4136 l 4.214,-2.6538 a 1.32,1.32 0 0 0 0.4136,-1.8203 l -0.1598,-0.2539"
         id="path9-1" /><path
         stroke="#3d3d3a"
         vector-effect="non-scaling-stroke"
         d="m 255.8291,185.8462 a 1.28,1.28 0 0 0 -1.77,-0.3795 l -4.45,2.8788 a 1.28,1.28 0 0 0 -0.3794,1.77 l 0.1412,0.2183 a 1.28,1.28 0 0 0 1.77,0.3795 l 4.45,-2.8788 a 1.28,1.28 0 0 0 0.3794,-1.77 l -0.1412,-0.2183"
         id="path10-3" /><path
         stroke="#3d3d3a"
         vector-effect="non-scaling-stroke"
         d="m 241.293,195.0368 a 1.36,1.36 0 0 0 -1.8694,-0.4523 l -7.1869,4.3869 a 1.36,1.36 0 0 0 -0.4522,1.8694 l 0.0625,0.1024 a 1.36,1.36 0 0 0 1.8694,0.4523 l 7.1869,-4.3869 a 1.36,1.36 0 0 0 0.4522,-1.8694 l -0.0625,-0.1024"
         id="path11-9" /><path
         stroke="#3d3d3a"
         vector-effect="non-scaling-stroke"
         d="m 225.4282,204.6274 a 1.21,1.21 0 0 0 -1.6653,-0.3936 l -7.4191,4.5821 a 1.21,1.21 0 0 0 -0.3937,1.6653 l 0.2417,0.3914 a 1.21,1.21 0 0 0 1.6653,0.3936 l 7.4191,-4.5821 a 1.21,1.21 0 0 0 0.3937,-1.6653 l -0.2417,-0.3914"
         id="path12-2" /><path
         stroke="#3d3d3a"
         vector-effect="non-scaling-stroke"
         d="m 210.5876,213.8532 a 1.49,1.49 0 0 0 -2.054,-0.4704 l -6.9464,4.3575 a 1.49,1.49 0 0 0 -0.4704,2.054 l 0.0956,0.1525 a 1.49,1.49 0 0 0 2.054,0.4704 l 6.9464,-4.3575 a 1.49,1.49 0 0 0 0.4704,-2.054 l -0.0956,-0.1525"
         id="path13-6" /><path
         stroke="#3d3d3a"
         vector-effect="non-scaling-stroke"
         d="m 197.49,310.45 c 9.99,14.54 27.09,29.42 42.55,39.61 a 1.36,1.35 -52.3 0 0 1.75,-0.23 l 15.23,-17.12 q 0.86,-0.97 -0.13,-1.8 C 242.94,319.3 229.57,308.03 218.32,293.94 a 1.14,1.14 0 0 0 -1.59,-0.19 l -18.89,14.52 a 1.6,1.59 -36.1 0 0 -0.35,2.18"
         id="path14-3" /><path
         stroke="#3d3d3a"
         vector-effect="non-scaling-stroke"
         d="m 129.2,333.5 c 1.69,1.31 3.62,2.51 4.67,4.37 q 9.76,17.26 23.24,31.75 c 2.41,2.59 6.13,0.71 4.41,-2.36 -7.13,-12.77 -15.88,-22.3 -25.56,-33.04 -1.03,-1.15 -1.49,-2.83 -2.5,-4.07 a 0.78,0.77 -38.6 0 0 -1.08,-0.12 l -3.18,2.49 a 0.62,0.62 0 0 0 0,0.98"
         id="path15-6" /></g><path
       fill="#323232"
       d="m 387.4,118.41 q -0.63,-1.18 -1.62,-1.19 -0.56,0 -0.45,0.54 0.33,1.53 1.64,2.13 l 14.59,24.53 a 1.92,1.92 0 0 1 -0.3,2.34 c -3.46,3.45 -9.32,5.94 -14.08,3.22 a 2.38,2.37 43.9 0 0 -2.41,0.04 l -64.25,39.52 a 1.77,1.68 29.2 0 1 -0.97,0.25 c -2.34,-0.07 -4.81,-0.85 -6.74,-0.86 -3.95,-0.01 -7.08,2.64 -10.24,4.31 a 1.09,1.08 -29.6 0 1 -1.43,-0.39 l -17.53,-28.43 a 0.62,0.61 -34.3 0 1 0.16,-0.82 l 2.12,-1.57 a 1.07,1.07 0 0 0 0.4,-1.1 c -1,-4.14 -1.65,-8.36 -2.7,-12.44 -0.76,-2.92 0.42,-4.36 2.9,-5.89 q 28.57,-17.6 57.7,-35.53 0.85,-0.53 1.43,0.29 l 3.31,4.67 4.43,7.07 q 0.25,0.4 0.72,0.4 h 0.65 a 0.58,0.58 0 0 0 0.51,-0.85 q -1.88,-3.54 -4.1,-6.81 -0.24,-0.37 -1.13,-0.38 0.63,-1.24 1.63,-1.84 8.34,-5.05 16.55,-10.04 a 0.74,0.72 58 0 1 1,0.24 l 4.31,6.9 a 1.15,1.15 0 0 0 1.54,0.39 l 1.93,-1.1 q 0.54,-0.3 0.85,0.23 c 1.87,3.09 4.75,8.83 7.7,10.75 a 0.5,0.5 0 0 0 0.7,-0.67 l -4.32,-7.45 a 1.65,1.65 0 0 1 0.57,-2.23 Q 436.49,73.38 490.2,40.2 q 1.14,-0.7 1.98,-3.17 0.16,-0.45 0.56,-0.7 l 46.3,-28.52 a 1.09,1.07 49.6 0 1 1.27,0.11 q 4.51,3.99 6.22,9.8 a 1.15,1.14 -24.1 0 1 -0.5,1.3 q -22.89,13.99 -46.06,28.21 c -1.05,0.65 -1.64,0.68 -2.77,0.29 a 1.22,1.19 -49.5 0 0 -0.99,0.09 q -17.81,9.94 -34.83,21.2 A 0.85,0.84 73.5 0 0 461,69.52 v 0.47 a 0.53,0.53 0 0 0 0.78,0.47 c 23.8,-12.72 48.08,-24.58 71.3,-38.43 a 1.14,1.13 -50.1 0 1 0.98,-0.09 q 3.11,1.16 5.14,-1.28 a 1.12,1.12 0 0 1 1.8,0.11 l 4.13,6.36 a 0.98,0.98 0 0 1 -0.35,1.39 l -2.81,1.57 a 0.74,0.67 -90 0 0 -0.3,0.33 l -1.89,4.45 q -0.21,0.49 0.09,0.94 l 2.27,3.4 a 0.91,0.9 64.2 0 0 1.03,0.36 l 2,-0.67 q 0.43,-0.14 0.86,0 9.25,2.98 8.09,12.91 a 1.14,1.13 77.8 0 1 -0.55,0.86 l -7.98,4.87 a 0.64,0.64 0 0 1 -0.86,-0.19 l -2.6,-3.9 q -0.29,-0.44 -0.82,-0.39 -1.59,0.17 -2.24,1.49 -0.19,0.39 -0.01,0.79 l 0.71,1.52 q 0.25,0.55 -0.25,0.89 c -4.63,3.05 -10.25,7.09 -15.69,8.24 -2.46,0.52 -4.92,2.34 -6.9,3.15 -12.15,4.96 -21.69,11.6 -33.41,19.64 a 0.63,0.63 0 0 0 -0.2,0.81 l 1.49,2.76 q 0.32,0.6 -0.25,0.97 -14.03,9.11 -28.46,17.44 c -2.07,1.2 -3.86,1.3 -5.72,-0.12 a 1.23,1.22 -72 0 0 -1.96,1 l 0.12,7.1 a 0.97,0.96 73.2 0 1 -0.44,0.83 l -5.87,3.88 a 1.39,1.39 0 0 1 -1.94,-0.42 l -10.63,-16.97 a 0.99,0.99 0 0 1 0.32,-1.37 l 16.39,-10.01 q 0.55,-0.34 0.83,0.25 0.39,0.81 1.19,1.01 0.67,0.16 1.52,-0.39 12.84,-8.21 25.84,-16.13 a 0.8,0.79 -34.3 0 1 1.04,0.19 l 1.7,2.18 a 1.39,1.39 0 0 0 1.83,0.33 q 11.53,-7.1 23,-14.18 c 3.91,-2.43 7.39,-5.72 11.31,-8.61 q 2.05,-1.51 4.34,-3.66 6.19,-5.83 14.11,-9.28 0.41,-0.18 0.65,0.2 l 0.55,0.84 a 1.64,1.64 0 0 0 3,-1.09 c -0.37,-2.87 0.45,-7.56 -3.3,-8.55 a 1.05,1.02 -52.6 0 0 -0.8,0.12 l -135.4,83.61 a 1.53,1.52 -32.4 0 1 -2.07,-0.46 z M 538.3177,16.234 a 1.65,1.65 0 0 0 -2.2661,-0.5566 l -10.846,6.5686 a 1.65,1.65 0 0 0 -0.5566,2.2661 l 0.0933,0.1539 a 1.65,1.65 0 0 0 2.2661,0.5566 l 10.846,-6.5686 a 1.65,1.65 0 0 0 0.5566,-2.2661 z M 501.08,62.06 a 4.49,4.49 0 0 0 -4.49,-4.49 4.49,4.49 0 0 0 -4.49,4.49 4.49,4.49 0 0 0 4.49,4.49 4.49,4.49 0 0 0 4.49,-4.49 z m -12.07,7.5 a 4.57,4.57 0 0 0 -4.57,-4.57 4.57,4.57 0 0 0 -4.57,4.57 4.57,4.57 0 0 0 4.57,4.57 4.57,4.57 0 0 0 4.57,-4.57 z m -12.18,7.52 a 4.54,4.54 0 0 0 -4.54,-4.54 4.54,4.54 0 0 0 -4.54,4.54 4.54,4.54 0 0 0 4.54,4.54 4.54,4.54 0 0 0 4.54,-4.54 z m -12.17,7.44 a 4.52,4.52 0 0 0 -4.52,-4.52 4.52,4.52 0 0 0 -4.52,4.52 4.52,4.52 0 0 0 4.52,4.52 4.52,4.52 0 0 0 4.52,-4.52 z m -12.19,7.5 a 4.51,4.51 0 0 0 -4.51,-4.51 4.51,4.51 0 0 0 -4.51,4.51 4.51,4.51 0 0 0 4.51,4.51 4.51,4.51 0 0 0 4.51,-4.51 z m -12.09,7.49 a 4.54,4.54 0 0 0 -4.54,-4.54 4.54,4.54 0 0 0 -4.54,4.54 4.54,4.54 0 0 0 4.54,4.54 4.54,4.54 0 0 0 4.54,-4.54 z m -12.13,7.48 a 4.55,4.55 0 0 0 -4.55,-4.55 4.55,4.55 0 0 0 -4.55,4.55 4.55,4.55 0 0 0 4.55,4.55 4.55,4.55 0 0 0 4.55,-4.55 z m -12.15,7.43 a 4.52,4.52 0 0 0 -4.52,-4.52 4.52,4.52 0 0 0 -4.52,4.52 4.52,4.52 0 0 0 4.52,4.52 4.52,4.52 0 0 0 4.52,-4.52 z m -45.37,5.26 q -1.95,-3.41 -4.33,-6.62 -1.16,-1.56 -2.45,-0.11 a 0.94,0.93 51.1 0 0 -0.11,1.09 l 4.23,7.18 q 0.43,0.74 -0.29,1.19 l -71.03,43.75 a 1.2,1.2 0 0 0 -0.39,1.65 l 7.85,12.7 a 1.18,1.18 0 0 0 1.75,0.3 c 4.77,-3.88 9.04,1.44 14.32,-1.81 q 32.52,-19.97 65.24,-40.25 a 1.47,1.46 -32.1 0 0 0.47,-2.02 l -11.12,-17.88 a 0.75,0.75 0 0 0 -1.06,-0.22 l -1.95,1.31 a 0.8,0.79 -31.7 0 1 -1.13,-0.26 z m 33.26,2.2 a 4.53,4.53 0 0 0 -4.53,-4.53 4.53,4.53 0 0 0 -4.53,4.53 4.53,4.53 0 0 0 4.53,4.53 4.53,4.53 0 0 0 4.53,-4.53 z m -61.47,-1.83 a 1.03,1.03 0 0 0 -1.41,-0.33 l -47.23,29.1 a 1.03,1.03 0 0 0 -0.47,1.09 l 1.13,5.41 a 1.03,1.03 0 0 0 1.55,0.67 l 48.85,-30.15 a 1.03,1.03 0 0 0 0.33,-1.43 z"
       id="path16-9" /><path
       fill="#323232"
       d="m 362.74,100.12 -8.88,5.43 a 1.36,1.35 58.6 0 1 -1.87,-0.46 L 331.66,71.83 a 1.04,1.04 0 0 1 0.3,-1.4 l 4.22,-2.89 q 0.52,-0.36 1.08,-0.1 c 12.18,5.61 19.98,20.39 25.68,32 a 0.53,0.53 0 0 1 -0.2,0.68 z"
       id="path17-8" /><path
       fill="#6e6e4a"
       d="m 350.01,111.46 q 0.89,0.01 1.13,0.38 2.22,3.27 4.1,6.81 a 0.58,0.58 0 0 1 -0.51,0.85 h -0.65 q -0.47,0 -0.72,-0.4 l -4.43,-7.07 q 0.59,-0.07 1.08,-0.57 z"
       id="path18-1" /><path
       fill="#6e6e4a"
       d="m 370.73,119.68 a 0.8,0.79 -31.7 0 0 1.13,0.26 l 1.95,-1.31 a 0.75,0.75 0 0 1 1.06,0.22 l 11.12,17.88 a 1.47,1.46 -32.1 0 1 -0.47,2.02 Q 352.8,159.03 320.28,179 c -5.28,3.25 -9.55,-2.07 -14.32,1.81 a 1.18,1.18 0 0 1 -1.75,-0.3 l -7.85,-12.7 a 1.2,1.2 0 0 1 0.39,-1.65 l 71.03,-43.75 q 0.72,-0.45 0.29,-1.19 l -4.23,-7.18 a 0.94,0.93 51.1 0 1 0.11,-1.09 q 1.29,-1.45 2.45,0.11 2.38,3.21 4.33,6.62 z m 8.46,13.73 a 3.84,3.84 0 0 0 -3.84,-3.84 3.84,3.84 0 0 0 -3.84,3.84 3.84,3.84 0 0 0 3.84,3.84 3.84,3.84 0 0 0 3.84,-3.84 z"
       id="path19-5" /><path
       fill="#6e6e4a"
       d="m 387.4,118.41 q -0.42,0.64 -0.43,1.48 -1.31,-0.6 -1.64,-2.13 -0.11,-0.54 0.45,-0.54 0.99,0.01 1.62,1.19 z"
       id="path20-7" /><path
       fill="#6e6e4a"
       d="m 342.52,120.05 2.75,4.36 a 1.03,1.03 0 0 1 -0.33,1.43 l -48.85,30.15 a 1.03,1.03 0 0 1 -1.55,-0.67 l -1.13,-5.41 a 1.03,1.03 0 0 1 0.47,-1.09 l 47.23,-29.1 a 1.03,1.03 0 0 1 1.41,0.33 z"
       id="path21" /><circle
       fill="#323232"
       cx="375.35001"
       cy="133.41"
       r="3.8399999"
       id="circle21" /><path
       fill="#323232"
       d="m 294.69,199.39 a 0.79,0.78 60.6 0 0 1.21,0.34 c 4.29,-3.3 9.7,-5.49 15.07,-4.18 9.61,2.36 13.56,12.23 8.08,20.72 -5.91,9.18 -18.01,11.37 -27.79,9.96 -4.35,-0.62 -3.18,8.5 -2.72,10.76 q 3.81,18.7 8.14,37.59 a 2.48,2.48 0 0 0 2.08,1.89 c 8.78,1.22 7.61,9.34 -0.06,11.66 q -14.82,4.5 -21.71,5.35 c -6.75,0.83 -9.34,-3.91 -10.58,-9.98 Q 262.45,264.18 261,245.76 c -0.24,-3.15 -1.15,-8.14 -4.03,-9.9 -2.22,-1.35 -5.31,-0.56 -7.47,-0.7 q -0.54,-0.03 -0.83,-0.5 l -4.62,-7.45 a 1.08,1.07 58.5 0 1 0.35,-1.48 l 31.93,-19.7 a 1.15,1.15 0 0 1 1.58,0.37 q 4.98,8.02 9.72,15.75 c 2.47,4.01 16.87,1.62 20.04,0.3 5.57,-2.32 12.17,-8.29 11.85,-14.71 -0.47,-9.4 -12.92,-12.35 -19.76,-8.31 -2.19,1.29 -3.77,3.87 -5.79,5.7 a 0.89,0.88 -38.2 0 0 -0.14,1.16 c 3.42,5.02 8.29,7.22 14.17,5.03 a 0.83,0.83 0 0 1 0.79,1.45 l -7.29,5.43 q -0.41,0.31 -0.92,0.32 c -4.39,0.11 -9.48,-4.8 -10.18,-8.91 a 1.57,1.56 68.6 0 0 -2.4,-1.05 l -3.25,2.12 a 0.63,0.63 0 0 1 -0.88,-0.2 l -4.77,-7.69 a 1.37,1.37 0 0 0 -1.89,-0.45 l -36.23,22.24 a 1.54,1.54 0 0 0 -0.52,2.09 l 3.62,6.24 a 1.02,1.02 0 0 1 -0.29,1.35 L 210.52,258 q -1.6,1.14 -0.58,2.81 l 8.71,14.26 q 0.31,0.49 -0.16,0.84 l -38.96,29.51 a 1.1,1.1 0 0 1 -1.59,-0.3 l -9.21,-14.8 a 1.23,1.23 0 0 0 -1.78,-0.34 q -30.44,22.57 -60.3,45.15 c -6.3,4.76 -10.8,16.36 -13.47,23.59 a 2.13,2.13 0 0 0 1.03,2.63 q 4.06,2.08 7.38,5.35 c 2.85,2.81 0.64,7.29 -3.27,4.7 q -3.56,-2.36 -7.18,-4.6 c -4.35,-2.69 -9.06,2.88 -12.83,-3.12 C 67.23,346 56.2,330.44 39.72,317.29 q -3.57,-2.85 -4.3,-4.63 c -1.99,-4.9 3.67,-9.71 7.58,-12.16 q 60.08,-37.7 121.24,-75.22 a 1.06,1.05 -33 0 0 0.32,-1.49 q -7.15,-10.6 -13.88,-22.01 -4.07,-6.88 -4.44,-11.78 c -0.59,-7.64 8.8,-11.26 15.4,-9.67 2.95,0.7 3.92,0.01 6.37,-1.31 q 33.35,-17.93 49.54,-26.23 9.86,-5.05 13.48,5.33 3.04,8.73 6.54,17.7 a 0.62,0.61 -20.8 0 0 0.79,0.35 l 2.04,-0.73 a 0.77,0.76 -30 0 1 0.84,0.22 q 1.12,1.28 2.43,0.49 15.48,-9.32 30.51,-18.78 a 1.4,1.39 -31.7 0 1 1.93,0.45 l 22.28,36.35 q 0.28,0.45 0.05,0.92 -0.83,1.76 -2.63,2.45 -1.6,0.6 -1.12,1.85 z m -72.52,-42.18 a 1.36,1.35 -48.8 0 0 -1.11,0.08 q -17.15,9.08 -34.5,18.49 c -10.09,5.48 -17.02,11.83 -23.74,20.54 -4.48,5.8 1.4,12.76 6.62,15.27 3.66,1.76 6.2,0.4 9.34,-1.57 q 25.1,-15.69 49.87,-30.6 a 3.45,3.44 -24.3 0 0 1.51,-3.98 q -2.55,-8.14 -5.52,-16.03 -0.56,-1.49 -2.47,-2.2 z M 76.29,346.2 q 3.49,3.68 7.1,8.17 a 1.06,1.05 37.6 0 0 1.78,-0.23 c 3.56,-7.88 8.09,-20.52 14.87,-25.34 22.08,-15.71 46.22,-34.84 69.68,-52.22 a 0.83,0.83 0 0 1 1.2,0.22 l 9.38,15.04 a 1.42,1.42 0 0 0 2.07,0.38 l 23.85,-18.24 a 1.1,1.1 0 0 0 0.27,-1.44 l -9.3,-15.27 a 0.59,0.58 56.9 0 1 0.16,-0.77 l 34.91,-24.95 q 0.53,-0.37 0.18,-0.91 l -4.38,-6.78 q -0.7,-1.09 0.4,-1.77 l 51.83,-32.1 q 1.22,-0.76 1.86,0.52 0.77,1.54 1.88,3.02 a 1.67,1.38 -84.7 0 0 2.16,-2.17 l -12.82,-20.7 a 1.46,1.45 59.2 0 0 -1.95,-0.5 c -25.87,14.58 -52.17,29.01 -77.14,45.27 -20.02,13.03 -42.03,24.95 -60.21,36.15 -7.04,4.34 -14.61,10.07 -22.07,14.45 -16.75,9.82 -33.93,19.62 -49.87,30.7 a 0.89,0.88 -19 0 0 -0.38,0.76 q 0,0.15 0,0.3 -0.01,0.3 -0.25,0.46 L 46.04,308.4 q -0.8,0.52 -0.24,1.29 14.4,19.49 30.49,36.51 z M 272.23,219.99 q -0.28,-0.2 -0.44,-0.22 -0.05,0 -0.4,0.19 -5.01,2.83 -10.47,6.31 a 0.75,0.75 0 0 0 -0.04,1.24 c 7.2,5.29 8.47,11.32 9.39,20.78 q 1.75,17.93 5.65,35.93 a 0.65,0.64 75.9 0 0 0.8,0.48 l 10.29,-2.81 a 1.93,1.93 0 0 0 1.38,-2.27 c -3.4,-15.64 -7.56,-31.38 -9.79,-47.07 q 0.54,-1.4 -0.1,-3.17 c 1.64,-2.72 -2.15,-8.55 -3.53,-10.35 q -0.36,-0.47 -1.2,-0.23 -1.51,-0.31 -1.54,1.19 z"
       id="path22-8" /><path
       fill="#484841"
       d="M 76.29,346.2 Q 60.2,329.18 45.8,309.69 45.24,308.92 46.04,308.4 L 61.5,298.25 q 0.24,-0.16 0.25,-0.46 0,-0.15 0,-0.3 a 0.89,0.88 -19 0 1 0.38,-0.76 c 15.94,-11.08 33.12,-20.88 49.87,-30.7 7.46,-4.38 15.03,-10.11 22.07,-14.45 18.18,-11.2 40.19,-23.12 60.21,-36.15 24.97,-16.26 51.27,-30.69 77.14,-45.27 a 1.46,1.45 59.2 0 1 1.95,0.5 l 12.82,20.7 a 1.67,1.38 -84.7 0 1 -2.16,2.17 q -1.11,-1.48 -1.88,-3.02 -0.64,-1.28 -1.86,-0.52 l -51.83,32.1 q -1.1,0.68 -0.4,1.77 l 4.38,6.78 q 0.35,0.54 -0.18,0.91 l -34.91,24.95 a 0.59,0.58 56.9 0 0 -0.16,0.77 l 9.3,15.27 a 1.1,1.1 0 0 1 -0.27,1.44 l -23.85,18.24 a 1.42,1.42 0 0 1 -2.07,-0.38 l -9.38,-15.04 a 0.83,0.83 0 0 0 -1.2,-0.22 c -23.46,17.38 -47.6,36.51 -69.68,52.22 -6.78,4.82 -11.31,17.46 -14.87,25.34 a 1.06,1.05 37.6 0 1 -1.78,0.23 q -3.61,-4.49 -7.1,-8.17 z M 267.5741,178.6228 a 1.32,1.32 0 0 0 -1.8204,-0.4136 l -4.214,2.6538 a 1.32,1.32 0 0 0 -0.4136,1.8203 l 0.1598,0.2539 a 1.32,1.32 0 0 0 1.8204,0.4136 l 4.214,-2.6538 a 1.32,1.32 0 0 0 0.4136,-1.8203 z m -11.745,7.2234 a 1.28,1.28 0 0 0 -1.77,-0.3795 l -4.45,2.8788 a 1.28,1.28 0 0 0 -0.3794,1.77 l 0.1412,0.2183 a 1.28,1.28 0 0 0 1.77,0.3795 l 4.45,-2.8788 a 1.28,1.28 0 0 0 0.3794,-1.77 z m -14.5361,9.1906 a 1.36,1.36 0 0 0 -1.8694,-0.4523 l -7.1869,4.3869 a 1.36,1.36 0 0 0 -0.4522,1.8694 l 0.0625,0.1024 a 1.36,1.36 0 0 0 1.8694,0.4523 l 7.1869,-4.3869 a 1.36,1.36 0 0 0 0.4522,-1.8694 z m -15.8648,9.5906 a 1.21,1.21 0 0 0 -1.6653,-0.3936 l -7.4191,4.5821 a 1.21,1.21 0 0 0 -0.3937,1.6653 l 0.2417,0.3914 a 1.21,1.21 0 0 0 1.6653,0.3936 l 7.4191,-4.5821 a 1.21,1.21 0 0 0 0.3937,-1.6653 z m -14.8406,9.2258 a 1.49,1.49 0 0 0 -2.054,-0.4704 l -6.9464,4.3575 a 1.49,1.49 0 0 0 -0.4704,2.054 l 0.0956,0.1525 a 1.49,1.49 0 0 0 2.054,0.4704 l 6.9464,-4.3575 a 1.49,1.49 0 0 0 0.4704,-2.054 z"
       id="path23-8" /><rect
       fill="#323232"
       x="-3.8099999"
       y="-1.47"
       transform="rotate(-32.2,445.3785,-367.67961)"
       width="7.6199999"
       height="2.9400001"
       rx="1.3200001"
       id="rect23-4"
       ry="1.3200001" /><rect
       fill="#323232"
       x="-3.9300001"
       y="-1.41"
       transform="rotate(-32.9,444.81102,-333.70706)"
       width="7.8600001"
       height="2.8199999"
       rx="1.28"
       id="rect24"
       ry="1.28" /><rect
       fill="#323232"
       x="-5.5700002"
       y="-1.42"
       transform="rotate(-31.4,470.47093,-321.81729)"
       width="11.14"
       height="2.8399999"
       rx="1.36"
       id="rect25"
       ry="1.36" /><rect
       fill="#323232"
       x="-5.5700002"
       y="-1.4400001"
       transform="rotate(-31.7,476.27251,-284.99241)"
       width="11.14"
       height="2.8800001"
       rx="1.21"
       id="rect26"
       ry="1.21" /><rect
       fill="#323232"
       x="-5.5900002"
       y="-1.58"
       transform="rotate(-32.1,479.91821,-249.40041)"
       width="11.18"
       height="3.1600001"
       rx="1.49"
       id="rect27"
       ry="1.49" /><path
       fill="#6e6e4a"
       d="m 273.77,218.8 q 0.84,-0.24 1.2,0.23 c 1.38,1.8 5.17,7.63 3.53,10.35 q -0.69,1.73 0.1,3.17 c 2.23,15.69 6.39,31.43 9.79,47.07 a 1.93,1.93 0 0 1 -1.38,2.27 l -10.29,2.81 a 0.65,0.64 75.9 0 1 -0.8,-0.48 q -3.9,-18 -5.65,-35.93 c -0.92,-9.46 -2.19,-15.49 -9.39,-20.78 a 0.75,0.75 0 0 1 0.04,-1.24 q 5.46,-3.48 10.47,-6.31 0.35,-0.19 0.4,-0.19 0.16,0.02 0.44,0.22 1.32,-0.16 1.54,-1.19 z"
       id="path27" /><path
       fill="#323232"
       d="m 264.81,325.69 c 5.42,4.38 2.74,8.88 -1.11,13.3 q -10.44,11.96 -17.61,19.6 c -3.63,3.87 -7.07,2.3 -10.95,-0.52 -19.12,-13.9 -37.06,-30.11 -50.32,-49.72 a 1.06,1.05 -36.1 0 1 0.23,-1.42 l 33.61,-26.13 a 1,1 0 0 1 1.43,0.22 c 12.19,17.51 27.84,31.03 44.72,44.67 z m -67.32,-15.24 c 9.99,14.54 27.09,29.42 42.55,39.61 a 1.36,1.35 -52.3 0 0 1.75,-0.23 l 15.23,-17.12 q 0.86,-0.97 -0.13,-1.8 C 242.94,319.3 229.57,308.03 218.32,293.94 a 1.14,1.14 0 0 0 -1.59,-0.19 l -18.89,14.52 a 1.6,1.59 -36.1 0 0 -0.35,2.18 z"
       id="path28-2" /><path
       fill="#484841"
       d="m 240.04,350.06 c -15.46,-10.19 -32.56,-25.07 -42.55,-39.61 a 1.6,1.59 -36.1 0 1 0.35,-2.18 l 18.89,-14.52 a 1.14,1.14 0 0 1 1.59,0.19 c 11.25,14.09 24.62,25.36 38.57,36.97 q 0.99,0.83 0.13,1.8 l -15.23,17.12 a 1.36,1.35 -52.3 0 1 -1.75,0.23 z"
       id="path29" /><path
       fill="#323232"
       d="m 154.94,380.06 q -17.03,-16.12 -28.2,-36.79 -0.75,-1.4 -2.14,-1.93 -0.52,-0.2 -1.03,0 l -6.04,2.32 a 1.55,1.53 -29.7 0 1 -1.76,-0.47 l -5.18,-6.5 a 0.97,0.97 0 0 1 0.17,-1.37 l 30.02,-22.89 a 1.36,1.36 0 0 1 1.9,0.25 l 4.78,6.24 a 2.19,2.17 47.5 0 1 -0.11,2.79 l -4.12,4.53 q -1.47,1.62 0.12,3.11 18.19,17.01 29.58,39.46 0.75,1.48 0.88,2.7 a 0.95,0.93 68.7 0 1 -0.37,0.86 l -14.37,10.67 a 1,0.99 -38.8 0 1 -1.34,-0.14 q -0.92,-1.06 -2.79,-2.84 z M 129.2,333.5 c 1.69,1.31 3.62,2.51 4.67,4.37 q 9.76,17.26 23.24,31.75 c 2.41,2.59 6.13,0.71 4.41,-2.36 -7.13,-12.77 -15.88,-22.3 -25.56,-33.04 -1.03,-1.15 -1.49,-2.83 -2.5,-4.07 a 0.78,0.77 -38.6 0 0 -1.08,-0.12 l -3.18,2.49 a 0.62,0.62 0 0 0 0,0.98 z"
       id="path30-38" /><path
       fill="#484841"
       d="m 129.2,333.5 a 0.62,0.62 0 0 1 0,-0.98 l 3.18,-2.49 a 0.78,0.77 -38.6 0 1 1.08,0.12 c 1.01,1.24 1.47,2.92 2.5,4.07 9.68,10.74 18.43,20.27 25.56,33.04 1.72,3.07 -2,4.95 -4.41,2.36 q -13.48,-14.49 -23.24,-31.75 c -1.05,-1.86 -2.98,-3.06 -4.67,-4.37 z"
       id="path31" /></g><path
     style="fill:#323232;fill-opacity:1;stroke:#171717;stroke-width:0;stroke-opacity:0.0912863"
     id="path33"
     d="m 28.13884,61.027698 c 0.222515,-0.01659 0.445674,-0.026 0.668686,-0.03427 0.343551,0.0028 0.68698,0.0034 1.030556,10e-4 0.326241,0.0016 0.6515,-0.02447 0.977366,-0.03414 0.244991,0.0011 0.48973,-0.01762 0.734592,-0.0169 0.365897,0.0036 0.730236,-0.03607 1.090206,-0.09829 0.38306,-0.06386 0.74009,-0.217841 1.092734,-0.373923 0.2431,-0.113247 0.469432,-0.257621 0.693384,-0.404133 0.142155,-0.10104 0.298871,-0.177609 0.4534,-0.257146 0.08867,-0.04805 0.182409,-0.08109 0.277462,-0.113343 0.106823,-0.01868 0.248029,-0.06433 0.366412,-0.08614 0.167918,-0.02782 0.337028,-0.05234 0.506919,-0.06426 0.197742,-0.0067 0.391095,-0.04436 0.582096,-0.09347 0.02104,-0.0051 0.04208,-0.0101 0.06312,-0.01516 0.0055,-2.98e-4 0.02199,-0.0017 0.01654,-9.6e-4 -0.261878,0.03433 -0.427941,-0.09458 -0.539408,-0.307156 -0.01624,-0.03098 -0.0173,-0.06779 -0.02595,-0.10169 -0.02726,0.162897 -0.04768,0.330178 -0.07189,0.494864 -0.02255,0.116461 -0.01138,0.240222 -0.04971,0.353598 -0.0037,0.0144 -0.0791,0.156604 -0.03562,0.07069 0.06074,-0.07555 0.0464,-0.06756 0.14511,-0.131878 0.01807,-0.0086 0.03614,-0.01717 0.05421,-0.02576 -0.0044,-5.77e-4 -0.01179,0.0024 -0.01325,-0.0018 -0.0013,-0.0041 0.0066,-0.0056 0.0099,-0.0083 -0.01881,-0.0034 -0.03759,-0.0068 -0.05638,-0.01018 -0.09323,-0.03456 -0.196379,-0.03888 -0.288454,-0.07681 -0.01332,-0.0055 0.0314,-0.0029 0.04282,0.0059 0.243563,0.187641 0.187478,0.130538 0.26223,0.391572 0.0023,0.01008 -0.0023,0.0349 0.0068,0.03011 0.01622,-0.0085 0.01781,-0.03197 0.0269,-0.04785 0.01335,-0.02335 0.02734,-0.04634 0.0404,-0.06985 0.132868,-0.239135 0.116554,-0.246177 0.151994,-0.544288 -0.16821,-0.18739 -0.296238,-0.420813 -0.504627,-0.562181 -0.105987,-0.07193 -0.254216,-0.03518 -0.382235,-0.03946 -0.113366,-0.0038 -0.226775,0.0077 -0.339946,0.01532 -0.313069,0.02117 -0.623723,0.06414 -0.934145,0.108284 -0.434793,0.0747 -1.073427,0.140578 -0.965865,0.844776 0.0621,0.406571 0.428318,0.449619 0.705944,0.516373 0.127447,0.03229 0.258841,0.04199 0.387597,0.06664 0.01402,0.0027 0.0458,0.02725 0.04047,0.01401 -0.110179,-0.27342 -0.291579,-0.520973 -0.360279,-0.80764 -0.01713,-0.07147 0.18428,-0.142723 0.122854,-0.183071 -0.09019,-0.05923 -0.212758,0.03609 -0.319137,0.05414 -1.124496,0.156154 -2.260769,0.190317 -3.391622,0.277139 -0.561029,0.05192 -0.51412,-0.0311 -0.06644,1.151145 0.02849,0.07522 0.16045,-0.0116 0.240605,-0.0183 0.261821,-0.02188 0.257016,-0.02323 0.518448,-0.0526 0.0798,-0.01472 0.161383,-0.02187 0.239412,-0.04415 0.272256,-0.07776 0.579485,-0.232436 0.5761,-0.611249 -0.005,-0.559674 -0.485407,-0.671244 -0.870572,-0.78383 -0.07399,-0.01895 -0.147775,-0.03867 -0.221953,-0.05685 -0.529204,-0.129748 -0.08347,-0.10565 0.0045,0.86309 0.0045,0.04983 -0.141997,0.05697 -0.113572,0.09813 0.0315,0.04561 0.10967,-0.01625 0.164508,-0.02437 0.625704,-0.123955 0.672139,-0.19086 0.20485,-1.195289 -0.04271,-0.09179 -0.202505,-0.0075 -0.30369,-0.004 -0.0797,0.0027 -0.444747,0.04255 -0.522244,0.05071 -0.350932,0.03259 -0.699389,0.08624 -1.047898,0.137924 -0.114819,0.01553 -0.22938,0.04321 -0.344209,0.04736 -0.134438,-0.0026 -0.26736,0.01493 -0.400559,0.02955 -0.08632,0.0011 -0.17201,0.01784 -0.258451,0.02286 -0.143205,-0.009 -0.286009,0.01137 -0.425885,0.03962 -0.09786,0.02853 -0.165815,0.03939 -0.238258,0.05172 -0.0015,-1.3e-4 -0.0063,-1.52e-4 -0.0047,-4.18e-4 0.19509,-0.03585 0.40755,0.136965 0.498383,0.2837 0.131315,0.212116 0.06839,0.326355 0.0039,0.48864 0.108387,0.01079 -0.13234,0.11532 -0.09472,0.128053 0.01107,0.0037 0.02338,8.29e-4 0.03503,7.3e-5 0.03552,-0.0023 0.07082,-0.0076 0.106367,-0.0092 0.04969,-0.0022 0.09948,-0.0015 0.149215,-0.0023 0.495572,0.0083 0.990234,0.04345 1.484586,0.0771 0.48101,0.03232 0.958857,0.09494 1.436891,0.155417 0.434974,0.0513 0.870874,0.09856 1.308453,0.120052 0.182691,0.01426 0.365863,0.01141 0.548835,0.0075 0.07206,-0.0015 0.220165,-0.0024 0.290304,-0.01516 0.06799,-0.01236 0.133862,-0.0344 0.200798,-0.0516 0.436427,-0.431557 0.534919,-0.324373 0.133251,-1.058175 -0.04477,-0.08178 -0.160115,-0.0966 -0.245545,-0.133913 -0.238659,-0.104084 -0.506628,-0.131961 -0.761307,-0.167705 -0.334339,-0.03161 -0.162374,-0.01849 -0.480673,-0.03694 -0.05618,-0.0033 -0.112479,-0.0048 -0.168513,-0.0099 -0.01051,-9.89e-4 -0.03604,-0.01746 -0.03067,-0.0084 0.494992,0.845544 0.625077,0.486499 0.243579,1.005495 0.193531,-0.07246 0.397361,-0.110852 0.596181,-0.165444 0.04321,-0.01186 0.08759,-0.02072 0.128934,-0.03798 0.06363,-0.02655 0.123194,-0.06196 0.184787,-0.09294 -0.07374,-0.344678 -0.08481,-0.709028 -0.221229,-1.034036 -0.02945,-0.07017 -0.150475,-0.02308 -0.226088,-0.03163 -0.249377,-0.02821 -0.504606,-0.02913 -0.751621,-0.07436 0.01714,0.369776 0.02489,0.740107 0.05143,1.109327 0.001,0.01385 0.0168,0.02553 0.03035,0.02849 0.100808,0.02196 0.204358,0.02866 0.306252,0.04484 0.347861,0.05524 0.694723,0.116651 1.042671,0.17151 0.03188,0.02891 0.313174,0.02746 0.387655,0.05049 0.787758,0.149178 0.998728,-0.964881 0.210969,-1.114058 v 0 c -0.139975,-0.02444 -0.281216,-0.03792 -0.4221,-0.05647 -0.366274,-0.05771 -0.268909,-0.04155 -0.663324,-0.107428 -0.137109,-0.0229 -0.594411,-0.103452 -0.745346,-0.11672 -0.122296,-0.01075 -0.328252,-0.128906 -0.368075,-0.01277 -0.121321,0.353794 -0.0082,0.74799 -0.01228,1.121986 0.203263,0.03103 0.407609,0.04719 0.612412,0.06557 0.06451,0.0058 0.128991,0.0119 0.193605,0.01627 0.02114,0.0015 0.06472,0.0223 0.06361,0.0011 -0.01779,-0.337233 -0.07775,-0.670914 -0.116624,-1.006371 0.03987,-0.01654 0.08515,-0.02362 0.119608,-0.04961 0.02495,-0.01882 -0.05961,0.01881 -0.08974,0.02708 -0.193828,0.0532 -0.390686,0.09438 -0.58201,0.156808 -0.06402,0.02089 -0.126402,0.04651 -0.189604,0.06977 -0.132941,0.122042 -0.40348,0.185726 -0.398816,0.36613 0.02019,0.781052 0.309851,0.790543 0.751018,0.815291 0.273781,0.01536 0.10438,0.0026 0.39012,0.02825 0.158238,0.02085 0.203017,0.02374 0.35196,0.0537 0.03095,0.0062 0.06057,0.02342 0.09211,0.0221 0.009,-3.57e-4 -0.0069,-0.01677 -0.0084,-0.02565 -0.124384,-0.746613 -0.251826,-0.480461 0.220586,-0.885276 0.0234,-0.0021 0.09249,-0.01371 0.07017,-0.0064 -0.03225,0.0106 -0.21017,0.0109 -0.215033,0.01102 -0.156612,0.0037 -0.313381,0.007 -0.46974,-0.0065 -0.408238,-0.01909 -0.814742,-0.0656 -1.220571,-0.112395 -0.499727,-0.06321 -0.999342,-0.128009 -1.502175,-0.161763 -0.530965,-0.03614 -1.062391,-0.07443 -1.594766,-0.07923 -0.337854,0.01278 -0.729397,0.02669 -0.994421,0.271315 -0.05091,0.04699 -0.09138,0.104169 -0.137061,0.156256 -0.09523,0.198322 -0.19532,0.340705 -0.05064,0.604787 0.169918,0.31012 0.435639,0.370907 0.72494,0.328016 0.04355,-0.01169 -0.02321,0.0059 0.104626,-0.01724 0.06174,-0.01116 0.12041,-0.03316 0.181871,-0.04435 0.07886,-0.01768 0.169179,-0.01244 0.252504,-0.0141 0.103934,-0.0077 0.206659,-0.02363 0.310782,-0.02769 0.10485,-0.01247 0.20913,-0.02633 0.315178,-0.02293 0.157056,-0.0065 0.311288,-0.03305 0.466166,-0.05881 0.332543,-0.04963 0.665106,-0.100694 0.999996,-0.131839 0.08252,-0.0087 0.164977,-0.01784 0.247527,-0.02616 0.06782,-0.0068 0.136274,-0.0085 0.203569,-0.0193 0.01103,-0.0017 0.02868,-0.0069 0.0282,-0.01805 -0.01512,-0.350927 -0.07453,-0.699886 -0.07427,-1.051139 1.6e-5,-0.02557 0.100138,-0.02084 0.07506,-0.01584 -0.0503,0.01001 -0.100495,0.0206 -0.150737,0.03091 -0.130492,0.02069 -0.599313,0.07753 -0.627154,0.195613 -0.247489,1.0497 0.07145,0.984667 0.658228,1.136148 0.05139,0.01369 0.102301,0.02936 0.154178,0.04108 0.0174,0.0039 0.0571,0.02315 0.05318,0.0057 -0.03603,-0.15978 -0.187457,-0.304738 -0.156896,-0.465653 0.03197,-0.168306 0.209244,-0.271561 0.321484,-0.400988 0.0044,-0.0051 0.01166,0.0068 0.01748,0.01013 -0.05109,0.01035 -0.102195,0.02071 -0.153287,0.03106 -0.285137,0.03235 -0.18942,0.02327 -0.481373,0.04903 -0.05918,0.0052 -0.166558,-0.04333 -0.177597,0.01504 -0.231643,1.224681 -0.371781,1.163823 0.180484,1.112908 1.169825,-0.09016 2.345639,-0.12375 3.508156,-0.29221 0.180635,-0.03459 0.911896,-0.121526 0.9554,-0.387346 0.152047,-0.929036 -0.29178,-0.888366 -0.79022,-0.980313 -0.302204,-0.04629 0.184524,0.0053 0.165406,0.367861 -0.01141,0.216321 -0.194765,0.387522 -0.307275,0.572636 -0.0071,0.01174 -0.05438,0.0047 -0.04122,7.6e-4 0.08465,-0.02565 0.289636,-0.05874 0.363063,-0.0718 0.277233,-0.03974 0.55404,-0.07611 0.833342,-0.09846 0.07757,-0.0062 0.155731,-0.0054 0.232988,-0.01475 0.02167,-0.0026 0.07016,-5.42e-4 0.06208,-0.02082 -0.06728,-0.168852 -0.174072,-0.319135 -0.261106,-0.478704 0.01298,-0.04755 0.02475,-0.09545 0.03893,-0.142659 0.0016,-0.0051 0.0014,0.01106 -8.7e-4,0.01591 -0.01315,0.02857 -0.02954,0.05556 -0.04465,0.08314 -0.0919,0.167777 -0.181909,0.330677 -0.213548,0.523617 0.01341,0.130357 -0.01169,0.270748 0.04022,0.391071 0.169215,0.392179 0.549929,0.451682 0.909242,0.530724 0.306782,0.03995 0.573921,0.03866 0.830271,-0.162632 0.04093,-0.03214 0.07164,-0.0755 0.107462,-0.113251 0.09036,-0.135522 0.16765,-0.277977 0.212318,-0.435865 0.04278,-0.161776 0.06554,-0.32608 0.07909,-0.492764 0.03161,-0.216962 0.06377,-0.433924 0.08381,-0.652317 -0.01995,-0.191811 -0.0076,-0.373803 -0.177122,-0.521076 -0.267568,-0.232481 -0.468315,-0.232185 -0.76044,-0.156966 -0.123721,0.03441 -0.248521,0.0558 -0.377315,0.05907 -0.216351,0.01686 -0.432042,0.04515 -0.645654,0.08332 -0.176665,0.03698 -0.347192,0.08517 -0.521423,0.12892 -0.142268,0.05125 -0.285468,0.101234 -0.418629,0.174388 -0.189178,0.09773 -0.379934,0.193623 -0.554778,0.316245 -0.172628,0.113061 -0.346136,0.226007 -0.532087,0.316333 -0.269048,0.119596 -0.539649,0.243929 -0.831962,0.294149 -0.294227,0.05472 -0.593844,0.08192 -0.893266,0.08071 -0.255714,0.0013 -0.511107,0.01695 -0.766928,0.01742 -0.317041,0.0098 -0.633487,0.03438 -0.950875,0.03365 -0.355167,0.0025 -0.710148,6.78e-4 -1.065291,-2.66e-4 -0.273291,0.01037 -0.547489,0.01838 -0.819249,0.05003 -0.790047,0.136544 -0.596944,1.253838 0.193102,1.117295 z" /><path
     style="fill:#323232;fill-opacity:1;stroke:#171717;stroke-width:0;stroke-opacity:0.0912863"
     id="path80"
     d="m 34.40214,58.761701 c -0.682681,-0.195336 -1.359218,-0.41115 -2.039429,-0.614697 -0.768133,-0.22976 -1.093063,0.856543 -0.32493,1.086303 v 0 c 0.679582,0.203186 1.355379,0.419029 2.037406,0.61409 0.767703,0.231191 1.094656,-0.854505 0.326953,-1.085696 z" /><path
     style="fill:#323232;fill-opacity:1;stroke:#171717;stroke-width:0;stroke-opacity:0.0912863"
     id="path81"
     d="m 11.878359,58.45215 c 0.185613,-5.12e-4 0.3704,-0.01674 0.55453,-0.0388 0.173378,-0.02397 0.347027,-0.04587 0.521265,-0.06251 0.137031,-0.01119 0.274591,-0.0093 0.411936,-0.0083 0.231175,0.0022 0.462378,0.0027 0.693497,0.0086 0.327821,0.0086 0.65461,0.037 0.981742,0.05817 0.275182,0.0201 0.550896,0.01968 0.826226,0.0049 0.226096,-0.01215 0.446987,-0.06179 0.665521,-0.117866 0.184558,-0.04389 0.362489,-0.109375 0.541339,-0.171498 0.122293,-0.04518 0.245154,-0.08893 0.369392,-0.128494 0.12585,-0.03728 0.252006,-0.07332 0.377024,-0.113345 0.11691,-0.03723 0.234686,-0.07137 0.352537,-0.105461 0.11275,-0.03347 0.226627,-0.06018 0.342655,-0.07906 0.09903,-0.01261 0.196071,-0.03751 0.294819,-0.05155 0.07534,-0.0172 0.151542,-0.02949 0.227428,-0.04386 0.02072,-0.0049 0.04164,-0.009 0.06216,-0.0147 0.04172,-0.01159 0.117126,-0.03383 0.158118,-0.05322 0.03545,-0.01677 0.06944,-0.03647 0.104149,-0.05469 0.311497,-0.455969 0.393643,-0.355561 0.0085,-0.955886 -0.04469,-0.06967 -0.245399,-0.09519 -0.336601,-0.105529 -0.112083,-0.0094 -0.224328,-0.01562 -0.336699,-0.0204 -0.12837,-3.75e-4 -0.257037,-6.44e-4 -0.385096,0.0098 -0.114859,0.0094 -0.171559,0.01859 -0.288256,0.03416 -0.308483,0.0469 -0.618651,0.0812 -0.927916,0.122206 -0.309236,0.041 -0.329007,0.04586 -0.637844,0.09391 -0.09804,0.01705 -0.196185,0.0335 -0.294117,0.05115 -0.229517,0.04138 -0.224785,0.04151 -0.42932,0.08487 -0.01967,0.0042 -0.0644,-0.0068 -0.059,0.01261 0.317699,1.141743 0.0081,1.176295 0.518536,1.025058 0.08385,-0.02537 0.378259,-0.113903 0.459931,-0.140885 0.06943,-0.02294 0.139485,-0.04457 0.206824,-0.07306 0.06169,-0.0261 0.163362,-0.02536 0.179473,-0.09037 0.076,-0.306675 0.202194,-0.654619 0.07703,-0.944726 -0.07565,-0.175355 -0.367692,-0.10341 -0.551538,-0.155117 -0.390727,0.01241 -0.780541,0.04775 -1.168947,0.09094 -0.107327,0.01194 -0.214792,0.02334 -0.321525,0.03979 -0.06603,0.01018 -0.139826,0.0045 -0.196413,0.04003 -0.148838,0.09345 -0.269981,0.225061 -0.404971,0.33759 0.182296,0.269274 0.330504,0.565092 0.54689,0.80782 0.03854,0.04323 0.115839,0.002 0.173731,5.26e-4 0.04661,-0.0012 0.09314,-0.0048 0.139639,-0.0082 0.0288,-0.0021 0.08353,0.02038 0.08623,-0.0084 0.111734,-1.189675 0.379311,-1.11331 -0.180525,-1.13288 -0.06499,4.44e-4 -0.248943,-2.12e-4 -0.313468,0.008 -0.05983,0.0076 -0.173529,-0.02453 -0.177406,0.03566 -0.02391,0.371067 0.0031,0.752678 0.103527,1.110697 0.0048,0.01708 0.401299,0.03739 0.416814,0.03834 0.107325,0.0085 0.21518,0.0051 0.322592,0.01142 0.0055,2.85e-4 -0.01476,0.008 -0.01626,0.0027 -0.0931,-0.331166 -0.219505,-0.656627 -0.263515,-0.997804 -0.0097,-0.07511 0.191548,-0.07733 0.106483,-0.07509 0.03678,-0.0025 0.07356,-0.0051 0.11035,-0.0076 -0.79829,-0.07449 -0.90364,1.054461 -0.105349,1.128954 v 0 c 0.05791,-5.61e-4 0.115812,-0.0011 0.173715,-0.0017 0.08866,-0.01596 0.387981,-0.06077 0.391136,-0.134534 0.04806,-1.123773 -0.03824,-1.035399 -0.652452,-1.058239 -0.05186,-0.0029 -0.103706,-0.0061 -0.155587,-0.0087 -0.02483,-0.0013 -0.07213,-0.02767 -0.07452,-0.0029 -0.03472,0.3585 0.01163,0.722337 -0.02981,1.080124 -0.0037,0.0322 -0.127039,1.5e-4 -0.0966,0.01132 0.0845,0.03098 0.187377,-0.06095 0.269906,-0.0068 0.111079,-0.365176 0.04808,-0.155516 0.05625,-1.128978 1.33e-4,-0.01483 -0.02945,0.0036 -0.04423,0.0049 -0.02735,0.0024 -0.05477,0.0041 -0.08216,0.006 -0.01994,0.0014 -0.06742,-0.01484 -0.05986,0.0037 0.111181,0.272297 0.256962,0.529149 0.385443,0.793724 -0.129084,0.09962 -0.269093,0.186496 -0.387243,0.298866 -0.02425,0.023 0.06445,-0.01821 0.09746,-0.02327 0.09818,-0.01502 0.196975,-0.02586 0.295688,-0.03688 0.339941,-0.03797 0.680997,-0.06823 1.022632,-0.08566 -0.421928,-0.330492 -0.187197,-0.05956 -0.03986,-1.026894 10e-4,-0.0066 -0.0066,0.01284 -0.01273,0.01545 -0.05306,0.02233 -0.107898,0.04027 -0.162552,0.05833 -0.07956,0.0263 -0.366403,0.112563 -0.447458,0.137096 -0.538189,0.160622 -0.256915,0.0099 0.04173,1.170552 0.0049,0.01896 0.03827,-0.0082 0.05741,-0.01227 0.188104,-0.04014 0.168556,-0.0372 0.388543,-0.07699 0.09126,-0.0165 0.182708,-0.0319 0.274062,-0.04784 0.28935,-0.04516 0.313826,-0.05068 0.604653,-0.08924 0.312659,-0.04145 0.626223,-0.07618 0.938097,-0.123532 0.04651,-0.0064 0.148442,-0.02119 0.202356,-0.02589 0.09039,-0.0079 0.1811,-0.0075 0.271712,-0.0089 0.08551,0.0036 0.172162,0.0065 0.25698,0.01422 0.06994,0.0079 0.0087,0.0013 -0.0093,-0.0063 -0.05491,-0.02316 -0.131276,-0.02462 -0.161975,-0.0757 -0.363429,-0.604677 -0.296994,-0.486733 0.01769,-0.939639 0.02787,-0.01387 0.05535,-0.02851 0.08359,-0.0416 0.0068,-0.0031 0.02828,-0.0091 0.02117,-0.007 -0.0017,5.26e-4 -0.05321,0.01707 -0.05506,0.01808 -0.0068,0.0037 0.01835,-0.0062 0.02288,-0.0044 -0.06227,0.01196 -0.125539,0.02022 -0.186726,0.03688 -0.103408,0.01629 -0.205682,0.0387 -0.30929,0.05386 -0.15944,0.02685 -0.31674,0.06253 -0.471858,0.108379 -0.128514,0.03717 -0.256891,0.07467 -0.384399,0.115188 -0.124303,0.04016 -0.250266,0.07459 -0.375174,0.112752 -0.13346,0.04276 -0.265816,0.08894 -0.397177,0.137769 -0.1491,0.05203 -0.297152,0.107795 -0.45116,0.144238 -0.146225,0.0378 -0.293499,0.07466 -0.44489,0.08376 -0.230283,0.01293 -0.460855,0.01274 -0.69103,-0.0042 -0.342133,-0.02208 -0.683911,-0.05166 -1.026784,-0.06018 -0.237844,-0.0058 -0.475757,-0.0067 -0.713656,-0.0089 -0.176126,-0.0012 -0.352527,-0.0022 -0.528156,0.01346 -0.183792,0.01771 -0.367067,0.04011 -0.54994,0.06563 -0.140312,0.01744 -0.281118,0.0299 -0.422632,0.03051 -0.80175,0.0036 -0.796675,1.137435 0.0051,1.133847 z" /><path
     style="fill:#323232;fill-opacity:1;stroke:#171717;stroke-width:0;stroke-opacity:0.0912863"
     id="path82"
     d="m 18.751372,56.59983 c -8.49e-4,0.02475 -0.002,0.0495 -0.0025,0.07427 -0.0022,0.0941 -1.11e-4,0.102092 -0.0049,0.197283 -0.0055,0.108961 -0.01699,0.216782 -0.03086,0.324933 -0.02231,0.185451 -0.06661,0.36657 -0.114491,0.546699 -0.03668,0.145973 -0.0675,0.29344 -0.112385,0.437227 -0.0267,0.08681 -0.05344,0.173572 -0.09058,0.25656 -0.03335,0.06796 -0.07167,0.133338 -0.109417,0.198915 -0.02949,0.04707 -0.05311,0.09798 -0.08471,0.143715 -0.433018,0.674769 0.521247,1.28715 0.954264,0.612386 v 0 c 0.03964,-0.06285 0.07717,-0.126868 0.113808,-0.191521 0.05823,-0.101445 0.116902,-0.202914 0.165117,-0.30963 0.05332,-0.123428 0.09774,-0.250075 0.135863,-0.379022 0.04756,-0.157561 0.08633,-0.317344 0.123894,-0.477539 0.06094,-0.229592 0.115037,-0.461018 0.143745,-0.697222 0.02722,-0.22215 0.04584,-0.445086 0.04501,-0.66911 0.04804,-0.800318 -1.083783,-0.868254 -1.131821,-0.06794 z" /><path
     style="fill:#323232;fill-opacity:1;stroke:#171717;stroke-width:0;stroke-opacity:0.0912863"
     id="path83"
     d="m 10.982787,57.856185 c -0.01527,0.101456 -0.0044,0.204095 -0.0085,0.305968 -5.53e-4,0.01 -7.19e-4,0.02005 -0.0016,0.03004 -0.0038,0.04283 -0.0095,0.0815 -0.01036,0.125572 -0.0011,0.05543 0.0013,0.08403 0.0043,0.136015 0.0067,0.133661 0.03597,0.264086 0.07479,0.391685 0.03203,0.09795 0.08323,0.187248 0.128634,0.279111 0.03033,0.05734 0.05766,0.116023 0.08845,0.173151 0.02536,0.05163 0.04781,0.104516 0.07025,0.157436 0.04206,0.102652 0.09361,0.200136 0.152201,0.294226 0.0578,0.0886 0.123995,0.171528 0.19127,0.25307 0.08394,0.104132 0.192402,0.180954 0.304644,0.251358 0.05983,0.03484 0.115777,0.07573 0.173456,0.11392 0.02813,0.01855 0.05686,0.03618 0.08553,0.05388 0.683359,0.419329 1.276377,-0.547094 0.593019,-0.966419 v 0 c -0.01783,-0.01091 -0.03565,-0.02185 -0.05318,-0.03324 -0.06623,-0.04367 -0.130383,-0.09058 -0.199094,-0.130385 -0.009,-0.0055 -0.01795,-0.01114 -0.02698,-0.01662 -0.004,-0.0024 -0.0075,-0.0068 -0.01229,-0.0072 -8.86e-4,-8.1e-5 0.01619,0.01812 0.01227,0.01517 -0.0027,-0.0021 -0.0048,-0.0049 -0.0072,-0.0073 -0.03724,-0.04275 -0.07142,-0.08868 -0.10464,-0.134546 -0.02767,-0.03995 -0.04579,-0.08449 -0.06529,-0.128896 -0.03691,-0.08684 -0.07439,-0.173523 -0.118415,-0.257066 -0.0255,-0.04531 -0.04492,-0.09365 -0.07054,-0.138931 -0.01282,-0.02539 -0.02666,-0.05032 -0.03942,-0.07573 -0.0054,-0.01072 -0.01038,-0.02163 -0.01563,-0.03242 -0.0031,-0.0064 -0.0034,-0.02304 -0.0095,-0.01928 -0.0063,0.004 0.0038,0.01443 0.0057,0.02164 -0.01332,-0.04126 -0.02533,-0.08259 -0.02628,-0.126418 -0.0028,-0.03923 -0.0049,-0.01358 -0.0042,-0.02315 0.0044,-0.05789 0.01418,-0.115452 0.01371,-0.173699 0.001,-0.0655 -0.0016,-0.131274 7.45e-4,-0.19657 0.09497,-0.796098 -1.030907,-0.930379 -1.125859,-0.134261 z" /><path
     style="fill:#323232;fill-opacity:1;stroke:#171717;stroke-width:0;stroke-opacity:0.0912863"
     id="path84"
     d="m 47.582011,52.744418 c 0.233247,0.02178 0.46753,-0.0011 0.700934,-0.01002 0.285484,-0.0064 0.569367,-0.03864 0.85404,-0.05846 0.254438,-0.0078 0.508829,-0.01586 0.763218,-0.02543 0.236156,-0.01617 0.472586,-0.01157 0.709016,-0.0086 0.296612,0.0061 0.593169,0.01386 0.889785,0.02003 0.298197,0.0047 0.596267,-0.0078 0.894435,-0.003 0.270539,0.0065 0.541084,0.0032 0.811538,-0.0052 0.257042,0.0071 0.512947,-0.01661 0.769072,-0.03374 0.179541,-0.01068 0.358623,-0.02441 0.537231,-0.04555 0.131328,-0.01801 0.263375,-0.0291 0.394639,-0.04753 0.09607,-0.0087 0.192074,-0.02113 0.2888,-0.01763 0.454912,0.0061 0.138419,0.0144 -0.02604,-1.095208 0.01444,-0.0046 0.0308,-0.0054 0.04332,-0.01393 0.0094,-0.0064 -0.02231,0.0043 -0.03333,0.0071 -0.09546,0.0238 -0.190873,0.04827 -0.285689,0.07447 -0.146444,0.04364 -0.294257,0.08219 -0.442921,0.11747 -0.14114,0.03358 -0.283726,0.0516 -0.428067,0.06382 -0.163503,0.01584 -0.325841,0.03849 -0.490227,0.0415 -0.17241,4.67e-4 -0.344789,0.0063 -0.517185,0.0031 -0.143392,0.0014 -0.28694,0.0044 -0.429979,-0.0074 -0.175341,-0.01352 -0.34919,-0.03983 -0.523853,-0.05946 -0.161804,-0.01665 -0.32391,-0.03037 -0.485247,-0.05112 -0.155459,-0.025 -0.310796,-0.04099 -0.468267,-0.04147 -0.169925,-0.0017 -0.33897,-0.01445 -0.508266,-0.02832 -0.280344,-0.01663 -0.56013,-0.04017 -0.84012,-0.06157 -0.162932,-0.0083 -0.325034,-0.02659 -0.486174,-0.05162 -0.142299,-0.03203 -0.284812,-0.06127 -0.429272,-0.08185 -0.159967,-0.03426 -0.322772,-0.0535 -0.485644,-0.06682 -0.137623,-0.01191 -0.275654,-0.01781 -0.413325,-0.02898 -0.08777,-0.0032 -0.17501,-0.01104 -0.262338,-0.01785 -0.597743,0.0099 -0.391114,0.309467 -0.248663,1.108715 0.0067,0.03786 0.353654,0.06455 0.402737,0.06796 0.168892,0.009 0.337273,-0.0053 0.506128,-0.0054 0.166961,0.0055 0.334311,0.01333 0.50106,4.72e-4 -0.01445,-0.377134 0.0045,-0.757032 -0.04335,-1.131402 -0.0043,-0.03373 -0.06795,-0.0031 -0.10185,-0.0056 -0.179351,-0.01336 -0.358372,-0.03371 -0.537189,-0.05274 -0.213852,-0.02169 -0.427659,-0.04558 -0.642816,-0.04167 -0.06605,0.0059 -0.135668,-3.17e-4 -0.200603,0.01593 -0.127375,0.03186 -0.451845,0.126714 -0.43978,0.300041 0.02059,0.295856 0.226631,0.548139 0.339948,0.822209 0.05565,0.0096 0.110835,0.02255 0.16696,0.0289 0.0068,8.11e-4 0.207261,0.006 0.223556,0.0063 0.197587,0.0036 0.395138,0.0055 0.59272,0.0099 0.551721,0.02241 1.103918,0.02394 1.655872,0.03519 0.801596,0.01619 0.824496,-1.117434 0.0229,-1.133627 v 0 c -0.551279,-0.01104 -1.102783,-0.01292 -1.653827,-0.03515 -0.196376,-0.0043 -0.392721,-0.0062 -0.5891,-0.0098 -0.03809,-7.01e-4 -0.07616,-0.0024 -0.114264,-0.0029 -0.01034,-8.4e-5 -0.04031,-0.0036 -0.03111,0.0013 0.02189,0.01148 0.04765,0.01325 0.07147,0.01988 0.101563,0.270313 0.29211,0.522451 0.304689,0.810941 0.0051,0.116418 -0.163136,0.16858 -0.2591,0.234688 -0.03752,0.02584 -0.08794,0.02387 -0.132152,0.03485 -0.0014,3.51e-4 -0.0056,-7.81e-4 -0.0042,-0.001 0.02166,-0.0025 0.06429,-0.0037 0.0831,-0.0044 0.04704,-0.0052 0.09639,0.0016 0.143166,0.0048 0.114455,0.0078 0.228347,0.02059 0.342573,0.03115 0.199476,0.02121 0.39907,0.04265 0.599139,0.05762 0.0205,0.0016 0.06011,0.02328 0.06163,0.0028 0.02786,-0.374279 0.01463,-0.750485 0.02195,-1.125726 0.0083,-1.74e-4 0.03332,-7.95e-4 0.025,-5.78e-4 -0.101349,0.0027 -0.20268,-2.9e-4 -0.303989,-0.0033 -0.03458,-10e-4 -0.06917,-0.002 -0.103756,-0.0029 -0.143191,2.13e-4 -0.285614,0.0098 -0.428686,0.008 -0.02484,-0.0016 -0.04963,-0.0047 -0.07451,-0.0048 -0.0021,-3.4e-5 -0.0059,0.0033 -0.0043,0.0045 0.0092,0.0067 0.03047,0.0034 0.03068,0.01471 0.0055,0.342559 0.04991,0.691091 -0.0138,1.027719 -0.01041,0.05499 -0.170682,0.0462 -0.235749,0.04429 -0.02843,-0.0088 2.02e-4,4.18e-4 0.06554,0.0064 0.04634,0.0043 0.09391,0.0057 0.140368,0.0084 0.01094,6.57e-4 0.02185,9.17e-4 0.03278,0.0014 0.140267,0.01126 0.280856,0.01771 0.421081,0.02958 0.139438,0.0079 0.277143,0.03377 0.414226,0.05928 0.139007,0.0179 0.273782,0.0546 0.411679,0.07929 0.189798,0.02899 0.380585,0.05137 0.572414,0.06153 0.277879,0.02112 0.555533,0.04479 0.833769,0.06107 0.203877,0.01668 0.407674,0.03038 0.612308,0.03204 0.105183,-0.0065 0.208711,0.0239 0.312984,0.03237 0.168109,0.02138 0.33692,0.03622 0.505482,0.05353 0.187337,0.01975 0.373642,0.04926 0.561678,0.06297 0.165219,0.01186 0.33076,0.01461 0.496372,0.0105 0.187449,0.003 0.374869,-0.0021 0.562334,-0.0032 0.188817,-0.0048 0.375873,-0.0245 0.563461,-0.04554 0.198901,-0.01787 0.396413,-0.04428 0.591001,-0.09017 0.163295,-0.0388 0.325698,-0.08115 0.486653,-0.128779 0.11536,-0.03299 0.232403,-0.05871 0.348028,-0.09052 -0.145071,-1.146266 0.209123,-1.1017 -0.336135,-1.107518 -0.155904,-9.72e-4 -0.311068,0.01001 -0.465797,0.02903 -0.121849,0.01815 -0.24499,0.02575 -0.366875,0.04389 -0.159477,0.0189 -0.319385,0.03065 -0.479707,0.04021 -0.243133,0.01633 -0.485823,0.03923 -0.729866,0.03179 -0.252478,0.0085 -0.505049,0.01067 -0.757613,0.0048 -0.296102,-0.0042 -0.592049,0.0061 -0.888167,0.0031 -0.299698,-0.0062 -0.599336,-0.01403 -0.89903,-0.02018 -0.255394,-0.0032 -0.510825,-0.0075 -0.765931,0.0093 -0.266626,0.01002 -0.533278,0.0177 -0.799903,0.0274 -0.272697,0.01923 -0.544634,0.05 -0.818082,0.05652 -0.174351,0.0067 -0.348905,0.02159 -0.523324,0.01717 -0.796117,-0.09495 -0.930398,1.030928 -0.134281,1.125879 z" /><path
     style="fill:#323232;fill-opacity:1;stroke:#171717;stroke-width:0;stroke-opacity:0.0912863"
     id="path85"
     d="m 61.223352,51.805551 c 9.51e-4,-0.153688 -0.0026,-0.307447 -0.0092,-0.461 -0.004,-0.141669 -0.02508,-0.281977 -0.04119,-0.422561 -0.02048,-0.144856 -0.05724,-0.286602 -0.08441,-0.430223 -0.02911,-0.148214 -0.03873,-0.298918 -0.05273,-0.449029 -0.02113,-0.239815 -0.03077,-0.480514 -0.03742,-0.721112 -0.0088,-0.24693 0.007,-0.493763 0.01614,-0.740441 0.0037,-0.249904 0.0128,-0.499508 0.0251,-0.749118 0.0074,-0.184625 0.0085,-0.369573 0.02443,-0.553718 0.0217,-0.201861 0.0207,-0.405377 0.01441,-0.608036 -8.19e-4,-0.148561 -0.02057,-0.295238 -0.03991,-0.442097 -0.0086,-0.06905 -0.0082,-0.138337 -0.0069,-0.207734 0.003,-0.04929 0.01641,-0.09679 0.02636,-0.145055 0.01467,-0.07113 0.02842,-0.143048 0.03379,-0.215605 9.6e-4,-0.01346 0.0082,0.03976 -0.0053,0.0401 -0.370889,0.0095 -0.741983,-0.0076 -1.112975,-0.01141 -0.0028,0.170872 0.007,0.341507 0.01909,0.511854 0.01083,0.12363 0.02152,0.24706 0.03142,0.370742 0.0039,0.10182 0.01731,0.202814 0.03245,0.303454 0.01334,0.09024 0.03802,0.178473 0.05101,0.268767 0.006,0.042 0.01329,0.131708 0.01652,0.168125 0.01241,0.265007 0.01909,0.530211 0.02637,0.795393 0.0063,0.239557 0.007,0.479206 -6.32e-4,0.71873 -0.0088,0.210818 -0.02228,0.421483 -0.04465,0.631312 -0.03331,0.256859 -0.06684,0.513634 -0.08726,0.771896 -0.01954,0.201185 -0.01721,0.401873 0.0095,0.602032 0.01881,0.140039 0.0579,0.275404 0.09559,0.411136 0.02278,0.08801 0.04312,0.176359 0.05854,0.265948 0.01662,0.07071 0.02281,0.142245 0.02822,0.214369 0.01551,0.111121 0.01694,0.16464 0.03185,0.27039 0.0011,0.0069 0.0021,0.01375 0.0033,0.02064 0.01335,0.08108 -6.03e-4,-0.01987 -6.43e-4,-0.02243 -5.13e-4,-0.03355 0.005,-0.07293 -0.0012,-0.0225 -1.42e-4,-0.02487 -5.18e-4,-0.04504 0.01569,-0.07223 0.211891,-0.355604 0.267836,-0.429145 0.8358,-0.289721 0.124357,0.03053 0.175307,0.17284 0.217287,0.279918 -0.01653,-0.162057 -0.03946,-0.324291 -0.06058,-0.486097 -0.02386,-0.166414 -0.04354,-0.333321 -0.06484,-0.500075 -0.01744,-0.116613 -0.03509,-0.233084 -0.04767,-0.350351 -0.0017,-0.06737 -0.0053,-0.134819 -0.0035,-0.202361 -0.0052,-0.154885 -0.01881,-0.309194 -0.02477,-0.464113 -0.0038,-0.243366 -0.01902,-0.486428 -0.02133,-0.729799 0.0063,-0.305641 -0.03275,-0.608883 -0.07128,-0.911282 -0.0245,-0.20177 -0.05788,-0.404007 -0.04299,-0.607685 0.02145,-0.144809 0.05048,-0.288576 0.07797,-0.432399 0.03502,-0.148961 0.04945,-0.30093 0.06052,-0.453177 0.0095,-0.113239 0.007,-0.226801 0.0096,-0.340217 0.0013,-0.04819 0.0059,-0.118162 0.01394,-0.199159 0.01258,-0.113788 0.0044,-0.228101 0.0039,-0.342168 0.0011,-0.07145 -0.01092,-0.141867 -0.01708,-0.212739 -2.12e-4,-0.0024 0.0014,0.0046 0.0015,0.007 8.23e-4,0.01758 8.55e-4,0.03518 0.0013,0.05278 0.01747,-0.100455 -0.0038,-0.01477 0.0012,-0.01753 0.0055,-0.0031 0.0078,-0.02288 0.0033,-0.01852 -0.159404,0.151336 -0.251648,0.441068 -0.470421,0.462074 -0.235559,0.0226 -0.408669,-0.238717 -0.612955,-0.358162 0.0182,0.142381 0.04647,0.289687 0.0761,0.432118 0.01952,0.07431 0.03207,0.150053 0.04772,0.225186 0.0055,0.02629 0.01675,0.06251 0.01675,0.09159 -7.29e-4,-0.0035 -0.0015,-0.007 -0.0023,-0.01058 -3.71e-4,-4.73e-4 -10e-4,-0.002 -0.0011,-0.0014 -0.01697,0.293135 0.29253,0.534462 0.615391,0.606447 0.340817,0.07599 0.442618,-0.243905 0.523113,-0.447473 0.05151,-0.162661 0.07588,-0.332099 0.08576,-0.501945 0.0067,-0.13901 -0.0072,-0.277112 -0.02935,-0.414127 -0.05061,-0.230012 -0.152236,-0.369784 -0.333748,-0.511715 -0.09241,-0.06409 -0.189865,-0.124064 -0.298267,-0.157205 -0.03664,-0.01122 -0.07443,-0.01832 -0.111641,-0.02748 -0.03117,-0.0041 -0.06229,-0.0088 -0.09351,-0.01247 -0.156636,-0.01851 0.08643,0.01388 0.107282,0.04252 0.129527,0.177816 0.30455,0.366683 0.302318,0.586665 -0.0018,0.174528 -0.208354,0.280079 -0.312531,0.420118 -0.414687,0.12075 -0.03574,0.02202 -0.198039,0.04837 -0.0053,8.44e-4 0.0098,0.0046 0.01494,0.0061 0.05646,0.01377 0.03007,0.0066 0.07932,0.02096 0.01062,0.0035 0.02128,0.0069 0.0319,0.01033 0.764808,0.240595 1.10506,-0.841007 0.340252,-1.081602 v 0 c -0.02227,-0.0069 -0.04448,-0.01379 -0.06673,-0.02069 -0.105885,-0.02908 -0.214192,-0.05972 -0.324342,-0.06641 -0.04091,-0.0025 -0.08235,-0.0078 -0.122933,-0.0021 -0.0737,0.0104 -0.14506,0.03344 -0.21759,0.05016 -0.114543,0.144674 -0.335806,0.249666 -0.34362,0.434027 -0.0209,0.493227 0.19207,0.582568 0.491166,0.667455 0.02158,0.0061 0.0444,0.0063 0.06668,0.0089 0.01005,0.0012 0.02013,0.003 0.03026,0.0026 0.0031,-8.6e-5 -0.0059,-0.0022 -0.0087,-0.0033 -0.027,-0.0096 -0.03235,-0.01025 -0.05595,-0.02295 -0.0067,-0.0036 -0.02684,-0.01388 -0.01949,-0.01192 0.01204,0.0031 0.02169,0.01564 0.03379,0.01879 -0.0583,-0.05481 -0.09843,-0.126919 -0.108279,-0.206918 0.01246,0.05473 0.01445,0.110198 0.01434,0.166036 -0.0014,0.06413 -0.01237,0.127503 -0.02577,0.189952 0.402312,-0.760905 0.757046,-0.02483 1.067042,0.261286 0.0062,0.0057 3.96e-4,-0.01669 4.6e-4,-0.02506 0.001,-0.0941 0.0018,-0.05157 -0.0045,-0.151856 -0.01871,-0.139267 -0.05023,-0.276497 -0.0805,-0.41363 -0.04007,-0.187336 -0.05967,-0.378923 -0.112089,-0.56343 -0.208921,-0.132895 -0.379579,-0.413165 -0.626764,-0.398686 -0.370386,0.02169 -0.481492,0.34051 -0.497772,0.601168 -0.0011,0.03589 -0.0036,0.07177 -0.0033,0.107671 4.79e-4,0.05577 0.01209,0.09584 0.01368,0.146933 5.89e-4,0.0752 0.0059,0.150519 0.0014,0.22562 -0.0092,0.0962 -0.01477,0.19297 -0.01906,0.289439 -0.0013,0.0926 4.3e-4,0.185175 -0.0068,0.277626 -0.0078,0.108523 -0.0162,0.21646 -0.04338,0.322374 -0.03676,0.193037 -0.07802,0.3859 -0.0963,0.581746 -0.0021,0.04416 -0.0055,0.08827 -0.0063,0.132471 -0.004,0.22854 0.02927,0.455424 0.05662,0.681667 0.03302,0.259078 0.069,0.518715 0.06226,0.780683 0.0032,0.253832 0.01729,0.50735 0.02212,0.761163 0.0052,0.132519 0.01171,0.264945 0.02415,0.397013 -0.002,0.116244 0.0021,0.232429 0.01,0.348425 0.01373,0.124147 0.03088,0.247769 0.05014,0.371165 0.02148,0.167683 0.04126,0.335552 0.06521,0.502909 0.0253,0.193872 0.04848,0.388056 0.07719,0.581455 0.03982,0.146239 0.08212,0.364494 0.255738,0.41758 0.215769,0.06597 0.462462,0.05501 0.676703,-0.01577 0.149142,-0.04927 0.209197,-0.282419 0.232015,-0.424542 0.01229,-0.100994 0.01203,-0.201783 -0.0089,-0.301597 4.17e-4,0.0065 0.0029,0.02577 0.0011,0.01949 -0.0019,-0.0072 -0.0013,-0.01491 -0.0019,-0.02233 -0.0046,-0.0548 -0.0087,-0.109687 -0.01847,-0.163873 -0.0082,-0.108557 -0.01944,-0.216642 -0.04174,-0.323345 -0.02208,-0.126474 -0.05059,-0.251425 -0.08322,-0.375589 -0.02452,-0.08822 -0.05288,-0.175095 -0.06535,-0.266165 -0.01909,-0.118083 -0.01111,-0.236744 -0.0017,-0.355616 0.01884,-0.247929 0.05393,-0.494056 0.08441,-0.740733 0.02491,-0.237909 0.04097,-0.476655 0.05038,-0.715683 0.0077,-0.261492 0.008,-0.523088 7.31e-4,-0.784608 -0.008,-0.289366 -0.01448,-0.578829 -0.0307,-0.867886 -0.01599,-0.170111 -0.03769,-0.338992 -0.07597,-0.505673 -0.01179,-0.07338 -0.02034,-0.147055 -0.02287,-0.2214 -0.0097,-0.120667 -0.02026,-0.241144 -0.03073,-0.36173 -0.0064,-0.08817 -0.01278,-0.176425 -0.01514,-0.264816 -9.74e-4,-0.03669 -0.0013,-0.165731 -0.0026,-0.199186 -0.0012,-0.03308 -0.0042,-0.06609 -0.0062,-0.09914 -1.325643,-0.107288 -1.044841,-0.422804 -1.152722,0.0938 -0.02297,0.11604 -0.0476,0.231852 -0.0489,0.35083 -0.0022,0.127252 5.81e-4,0.254625 0.01717,0.381005 0.01508,0.108394 0.03034,0.216561 0.03013,0.326484 0.0058,0.15846 0.0065,0.317815 -0.01106,0.475599 -0.01616,0.19723 -0.02092,0.394992 -0.02703,0.592753 -0.01252,0.254273 -0.02208,0.508559 -0.02571,0.763133 -0.01,0.271126 -0.02652,0.542407 -0.01647,0.813811 0.0074,0.265245 0.01831,0.530586 0.0419,0.794947 0.0174,0.186164 0.03155,0.372826 0.068,0.556553 0.02235,0.115994 0.04861,0.231127 0.07168,0.346961 0.01318,0.114086 0.03106,0.227929 0.03486,0.342843 0.006,0.130661 0.0085,0.261542 0.0082,0.392323 -0.01323,0.801649 1.120476,0.820358 1.133704,0.01871 z" /><path
     style="fill:#323232;fill-opacity:1;stroke:#171717;stroke-width:0;stroke-opacity:0.0912863"
     id="path86"
     d="m 83.964443,45.622693 c 0.0095,0.03793 0.02175,0.08811 0.03024,0.129742 0.01959,0.08922 0.0323,0.17984 0.04032,0.270794 0.0044,0.05476 0.0093,0.109638 0.0085,0.164606 -0.0031,0.0923 0.0048,0.184331 0.01231,0.276209 1.4e-4,0.127638 -0.0048,0.255326 -0.01031,0.382848 -0.01128,0.207293 -0.02208,0.414472 -0.02998,0.621939 -0.008,0.176366 -0.0076,0.353165 -0.02209,0.529219 -0.0074,0.09019 -0.0164,0.153882 -0.02771,0.243972 -0.02185,0.158139 -0.04798,0.315989 -0.06105,0.475208 -0.0076,0.09307 -0.0074,0.123595 -0.01,0.215317 -0.0015,0.183441 0.01124,0.366887 0.02845,0.549438 0.02492,0.19586 0.04183,0.392657 0.06788,0.588355 0.01145,0.120304 0.04244,0.238523 0.04822,0.359341 0.0036,0.0754 7.42e-4,0.151154 2.17e-4,0.226744 0.0054,0.0158 0.0024,0.04922 5e-5,0.06829 -0.04981,0.80021 1.081862,0.870647 1.131668,0.07044 v 0 c 0.0021,-0.04396 0.0055,-0.08819 0.0021,-0.132217 4.99e-4,-0.102284 0.004,-0.204757 -0.0026,-0.306872 -0.01051,-0.147178 -0.03594,-0.292147 -0.05613,-0.438209 -0.02522,-0.180696 -0.03824,-0.36296 -0.06273,-0.543787 -0.01334,-0.136932 -0.02293,-0.274552 -0.02368,-0.412149 10e-4,-0.04889 0.0011,-0.08401 0.0048,-0.132768 0.01144,-0.150048 0.03875,-0.298482 0.05797,-0.447581 0.01569,-0.127707 0.02389,-0.183388 0.03412,-0.312704 0.01465,-0.185316 0.01573,-0.371277 0.02348,-0.556919 0.0078,-0.205721 0.01862,-0.411149 0.02977,-0.616712 0.0074,-0.174514 0.01573,-0.349591 0.0075,-0.524181 -0.005,-0.06007 -0.01182,-0.120052 -0.0085,-0.180307 -1.63e-4,-0.09162 -0.0049,-0.183125 -0.01358,-0.274345 -0.01311,-0.133968 -0.03078,-0.267593 -0.05993,-0.399129 -0.02931,-0.135551 -0.06217,-0.271703 -0.123041,-0.397138 -0.355361,-0.718705 -1.371762,-0.216148 -1.016401,0.502556 z" /><path
     style="fill:#323232;fill-opacity:1;stroke:#171717;stroke-width:0;stroke-opacity:0.0912863"
     id="path87"
     d="m 83.802937,45.233831 c 0.09235,0.05295 0.184853,0.105455 0.274453,0.162959 0.06507,0.04576 0.127245,0.09521 0.189984,0.144039 0.08407,0.06258 0.167867,0.125509 0.251003,0.189315 0.079,0.06141 0.155464,0.125934 0.234434,0.187382 0.0934,0.07363 0.199207,0.130854 0.290353,0.207322 0.06464,0.0512 0.125943,0.106396 0.189056,0.159416 0.0049,0.0041 -0.0096,-0.0084 -0.01448,-0.01263 0.207783,-0.308792 0.415576,-0.617579 0.623359,-0.926371 0.0052,0.0021 0.02045,0.0097 0.01579,0.0065 -0.03263,-0.02323 -0.06876,-0.04108 -0.103188,-0.06154 -0.06345,-0.03774 -0.08029,-0.04763 -0.144456,-0.08548 -0.143128,-0.0824 -0.285656,-0.165239 -0.420651,-0.260518 -0.163853,-0.120443 -0.321578,-0.249091 -0.476685,-0.380558 -0.13437,-0.111907 -0.267971,-0.224653 -0.406195,-0.3318 -0.10326,-0.08081 -0.214435,-0.151112 -0.317525,-0.232051 -0.08713,-0.07002 -0.18035,-0.13178 -0.271434,-0.196412 -0.07642,-0.05486 -0.155841,-0.105263 -0.236241,-0.154025 -0.05972,-0.03633 -0.119585,-0.07158 -0.183956,-0.09939 -0.05757,-0.02481 -0.09059,-0.03289 -0.148995,-0.05016 -0.08826,-0.02202 -0.177387,-0.04036 -0.265595,-0.06267 -0.0978,-0.02538 -0.197562,-0.04148 -0.297896,-0.0525 -0.01533,-0.0013 -0.0307,-0.0025 -0.04601,-0.004 -0.02864,-0.0029 -0.05712,-0.0078 -0.0858,-0.01069 -0.04184,-0.0042 -0.05668,-0.0015 -0.03881,-0.0044 -0.0129,-5.19e-4 -0.02295,-0.0039 -0.0344,-0.0081 -0.774795,-0.206176 -1.066372,0.889551 -0.291577,1.095727 v 0 c 0.05177,0.01324 0.103632,0.02629 0.156677,0.03346 0.07354,0.0099 0.147345,0.01795 0.22114,0.02559 0.04816,0.0045 0.09586,0.01294 0.142699,0.02514 0.07716,0.01904 0.15452,0.03736 0.232256,0.05383 0.01144,0.0016 0.0082,0.0021 -0.0034,-0.0047 -0.0079,-0.0047 -0.03188,-0.01811 -0.02358,-0.0142 0.02786,0.01308 0.05249,0.03296 0.07988,0.04695 0.05702,0.03442 0.113428,0.06987 0.167458,0.108875 0.07866,0.05581 0.159404,0.108834 0.234706,0.169225 0.103967,0.07957 0.212238,0.153216 0.317049,0.231685 0.125212,0.09636 0.244979,0.199358 0.366796,0.299919 0.182028,0.15403 0.367153,0.304768 0.560194,0.444852 0.159375,0.110537 0.324361,0.211611 0.493151,0.307157 0.08386,0.04954 0.166729,0.101226 0.251427,0.149318 0.02542,0.01444 0.05829,0.06478 0.07691,0.04221 0.237645,-0.288094 0.429552,-0.611046 0.644327,-0.916568 -0.08212,-0.07611 -0.169359,-0.146658 -0.255683,-0.217894 -0.09801,-0.07664 -0.200291,-0.146953 -0.302935,-0.217208 -0.0806,-0.06174 -0.15724,-0.128518 -0.23798,-0.19011 -0.08133,-0.0624 -0.163136,-0.124174 -0.245566,-0.185113 -0.09022,-0.06993 -0.179701,-0.140909 -0.274958,-0.204023 -0.104192,-0.06639 -0.210835,-0.128538 -0.31827,-0.189527 -0.694344,-0.400879 -1.261273,0.58107 -0.566929,0.98195 z" /><path
     style="fill:#323232;fill-opacity:1;stroke:#171717;stroke-width:0;stroke-opacity:0.0912863"
     id="path88"
     d="m 79.953186,41.565286 c 0.01193,0.301253 0.0031,0.602884 0.0046,0.904296 0.0031,0.294065 0.03589,0.58607 0.103012,0.872196 0.02693,0.09428 0.0399,0.191449 0.05707,0.287709 0.143412,0.788829 1.258983,0.586015 1.115572,-0.202814 v 0 c -0.02212,-0.117548 -0.03767,-0.236534 -0.07066,-0.351869 -0.05148,-0.1994 -0.06489,-0.405975 -0.07115,-0.611161 -0.0017,-0.312663 0.0077,-0.625533 -0.0052,-0.938034 -0.02806,-0.801268 -1.161218,-0.761593 -1.133164,0.03968 z" /><path
     style="fill:#323232;fill-opacity:1;stroke:#171717;stroke-width:0;stroke-opacity:0.0912863"
     id="path89"
     d="m 79.69116,41.676198 c 0.0084,0.20441 -0.0041,0.407118 -0.03171,0.609566 -0.04463,0.309349 -0.06265,0.620251 -0.04809,0.932291 0.03831,0.800843 1.170875,0.746661 1.132564,-0.05418 v 0 c -0.01207,-0.244556 0.0043,-0.487688 0.03969,-0.730169 0.03203,-0.249845 0.05122,-0.50035 0.04139,-0.752461 0.0036,-0.801751 -1.130277,-0.806801 -1.133847,-0.0051 z" /><path
     style="fill:#323232;fill-opacity:1;stroke:#171717;stroke-width:0;stroke-opacity:0.0912863"
     id="path90"
     d="m 80.963042,41.090748 c 0.107148,0.441758 0.149198,0.894844 0.183346,1.346969 0.01412,0.342489 0.0099,0.177743 0.0137,0.494206 0.01038,0.801691 1.144139,0.787016 1.133763,-0.01468 v 0 c -0.005,-0.362609 1.53e-4,-0.174005 -0.01689,-0.565779 -0.04018,-0.521985 -0.0913,-1.044981 -0.218695,-1.554185 -0.207511,-0.774439 -1.302734,-0.480975 -1.095224,0.293465 z" /><path
     style="fill:#323232;fill-opacity:1;stroke:#171717;stroke-width:0;stroke-opacity:0.0912863"
     id="path91"
     d="m 80.894891,41.639038 c -0.0024,0.03972 -0.006,0.07939 -0.0072,0.119165 -0.004,0.140448 -0.0023,0.349141 -0.0025,0.48601 -4.4e-4,0.285785 -0.002,0.57156 -0.0021,0.857346 -2.73e-4,0.801758 1.133585,0.802144 1.133858,3.85e-4 v 0 c 9.4e-5,-0.286125 0.0017,-0.57224 0.0021,-0.858365 2.11e-4,-0.139145 -0.0033,-0.278346 5.02e-4,-0.41744 0.0011,-0.03978 0.0048,-0.07944 0.0072,-0.119166 0.04804,-0.800318 -1.083783,-0.868253 -1.131821,-0.06793 z" /></svg>
