<?xml version="1.0" encoding="UTF-8" standalone="no"?>
<svg
   width="53.57"
   height="87.106003"
   viewBox="0 0 53.57 87.106003"
   fill="none"
   version="1.1"
   id="svg8"
   sodipodi:docname="mirv_grenade.svg"
   inkscape:version="1.4 (86a8ad7, 2024-10-11)"
   inkscape:export-filename="mirv_grenade.png"
   inkscape:export-xdpi="96"
   inkscape:export-ydpi="96"
   xmlns:inkscape="http://www.inkscape.org/namespaces/inkscape"
   xmlns:sodipodi="http://sodipodi.sourceforge.net/DTD/sodipodi-0.dtd"
   xmlns="http://www.w3.org/2000/svg"
   xmlns:svg="http://www.w3.org/2000/svg">
  <defs
     id="defs8" />
  <sodipodi:namedview
     id="namedview8"
     pagecolor="#ffffff"
     bordercolor="#000000"
     borderopacity="0.25"
     inkscape:showpageshadow="2"
     inkscape:pageopacity="0.0"
     inkscape:pagecheckerboard="0"
     inkscape:deskcolor="#d1d1d1"
     inkscape:zoom="7.3702284"
     inkscape:cx="25.372348"
     inkscape:cy="49.455726"
     inkscape:window-width="1920"
     inkscape:window-height="1009"
     inkscape:window-x="-8"
     inkscape:window-y="-8"
     inkscape:window-maximized="1"
     inkscape:current-layer="g8" />
  <g
     id="g8"
     transform="translate(3.2619926,-10.745387)">
    <path
       d="m 21.784214,32.635999 c -0.271061,0.05279 -0.448122,0.31521 -0.395416,0.586337 l 1.78144,9.164635 c 0.0527,0.271126 0.315148,0.448044 0.586199,0.395406 l 4.813692,-0.935676 4.818437,-0.936618 c 0.271128,-0.05271 0.448187,-0.315135 0.395408,-0.586197 l -1.781366,-9.1647 c -0.0527,-0.271125 -0.315213,-0.448119 -0.5862,-0.395403 z"
       fill="#575946"
       stroke="#191a14"
       stroke-width="4"
       stroke-miterlimit="3.99393"
       id="path1" />
    <path
       d="m 30.389982,17.484166 c 0.07478,0.385094 0.224866,0.751773 0.441574,1.078953 0.216563,0.327173 0.495666,0.608461 0.821134,0.827848 0.325541,0.219324 0.691006,0.372538 1.075754,0.450693 0.384749,0.07815 0.781228,0.07972 1.166615,0.0048 0.385462,-0.07498 0.752418,-0.224889 1.07987,-0.44144 0.327466,-0.216684 0.60895,-0.495562 0.828546,-0.820942 0.219661,-0.325305 0.373009,-0.690615 0.451363,-1.075134 0.07834,-0.384519 0.08004,-0.780708 0.0052,-1.1658 -0.0748,-0.385157 -0.224896,-0.751696 -0.441523,-1.078943 -0.216706,-0.327184 -0.495737,-0.608534 -0.821276,-0.827856 -0.325468,-0.219389 -0.690942,-0.372464 -1.07569,-0.45062 -0.384748,-0.07815 -0.781219,-0.07986 -1.166605,-0.0049 -0.385463,0.07498 -0.752428,0.225031 -1.07988,0.441581 -0.327466,0.216685 -0.609015,0.495486 -0.828536,0.820801 -0.219661,0.325303 -0.373019,0.690754 -0.451368,1.075276 -0.07827,0.384453 -0.08003,0.780566 -0.0052,1.165734 z"
       fill="#47443c"
       stroke="#191815"
       stroke-width="4"
       stroke-miterlimit="3.99393"
       id="path4" />
    <path
       d="m 27.926623,16.814385 1.456185,0.865306 3.895104,-0.757134 -3.775296,7.999618 2.404797,5.745374 c 0,0 -10.896508,2.118093 -11.045256,2.14696 l -7.913231,1.538129 2.275419,-15.069177 z"
       fill="#4E4735"
       stroke="#1b1913"
       stroke-width="4"
       stroke-miterlimit="3.99393"
       stroke-linecap="square"
       id="path5"
       style="fill:#353535;fill-opacity:1" />
    <path
       d="M 13.905524,28.017804 0.39122719,36.94368 -1.1486869,60.750433 5.3350684,61.788674 6.9501394,38.36881 12.948858,34.353627 Z"
       fill="#4E4735"
       stroke="#1b1913"
       stroke-width="4"
       stroke-miterlimit="3.99393"
       id="path6"
       style="fill:#353535;fill-opacity:1" />
    <g
       id="g11"
       transform="matrix(0.75470958,-0.65605579,0.65605903,0.75470585,-33.255982,41.197549)"
       style="stroke-width:1">
      <path
         style="fill:#001fcb;fill-opacity:1;stroke:#191a14;stroke-width:7.20002;stroke-linejoin:bevel;stroke-dasharray:none;stroke-opacity:1;paint-order:markers stroke fill"
         d="M 16.214022,57.084871 26,46.819188 45.476015,63.99262 35.881918,74.546125 Z"
         id="path11"
         sodipodi:nodetypes="ccccc" />
      <path
         d="m 47.5426,36.5984 c -4.2049,-2.4263 -9.2022,-3.0815 -13.8927,-1.8217 -4.6906,1.2597 -11.1194,8.5395 -11.1194,8.5395 -0.196704,0.346028 26.9926,23.6813 26.9926,23.6813 0,0 3.5097,-3.2922 4.7128,-5.3762 1.2033,-2.0839 1.9847,-4.3843 2.2996,-6.7696 0.3148,-2.3854 0.1569,-4.8091 -0.4646,-7.1327 -0.6216,-2.3236 -1.6947,-4.5017 -3.1579,-6.4098 -1.4633,-1.9081 -3.2882,-3.5088 -5.3704,-4.7108 z"
         stroke="#191a14"
         stroke-width="4.00001"
         stroke-miterlimit="3.99393"
         id="path7"
         sodipodi:nodetypes="ccccccccc"
         style="fill:#25009f;fill-opacity:1" />
      <path
         d="m 14.219451,84.332601 c 4.2049,2.4263 9.2022,3.0815 13.8927,1.8217 4.6906,-1.2597 11.1194,-8.5395 11.1194,-8.5395 0.196704,-0.346028 -26.9926,-23.6813 -26.9926,-23.6813 0,0 -3.5097006,3.2922 -4.7128006,5.3762 -1.2033,2.0839 -1.9847,4.3843 -2.2996,6.7696 -0.3148,2.3854 -0.1569,4.8091 0.4646,7.1327 0.6216,2.3236 1.6947,4.5017 3.1579001,6.4098 1.4633005,1.9081 3.2882005,3.5088 5.3704005,4.7108 z"
         stroke="#191a14"
         stroke-width="4.00001"
         stroke-miterlimit="3.99393"
         id="path9"
         sodipodi:nodetypes="ccccccccc"
         style="fill:#25009f;fill-opacity:1" />
    </g>
    <path
       fill-rule="evenodd"
       clip-rule="evenodd"
       d="m 20.575081,46.803185 c 6.24831,-1.214582 10.328586,-7.264429 9.113998,-13.51271 -1.21452,-6.248204 -7.264001,-10.329067 -13.512312,-9.114487 -6.2478006,1.214403 -10.3285096,7.264365 -9.1139876,13.512566 1.21451,6.248344 7.2645016,10.329034 13.5123016,9.114631 z m -0.78147,-4.02048 c 4.028546,-0.783031 6.659898,-4.682954 5.876976,-8.711047 -0.783425,-4.030043 -4.684088,-6.660229 -8.712709,-5.877132 -4.028546,0.783033 -6.6599,4.682954 -5.876615,8.712989 0.783065,4.028102 4.683725,6.658289 8.712348,5.87519 z"
       fill="#a1a29c"
       stroke="#222220"
       stroke-width="2.00001"
       stroke-miterlimit="3.99393"
       id="path8" />
  </g>
</svg>
