<?xml version="1.0" encoding="UTF-8" standalone="no"?>
<!-- Created with Inkscape (http://www.inkscape.org/) -->

<svg
   width="110"
   height="110"
   viewBox="0 0 29.104167 29.104167"
   version="1.1"
   id="svg1"
   xml:space="preserve"
   inkscape:version="1.4 (86a8ad7, 2024-10-11)"
   sodipodi:docname="mp5.svg"
   xmlns:inkscape="http://www.inkscape.org/namespaces/inkscape"
   xmlns:sodipodi="http://sodipodi.sourceforge.net/DTD/sodipodi-0.dtd"
   xmlns="http://www.w3.org/2000/svg"
   xmlns:svg="http://www.w3.org/2000/svg"><sodipodi:namedview
     id="namedview1"
     pagecolor="#5d5d5d"
     bordercolor="#000000"
     borderopacity="0.25"
     inkscape:showpageshadow="2"
     inkscape:pageopacity="0.0"
     inkscape:pagecheckerboard="0"
     inkscape:deskcolor="#232323"
     inkscape:document-units="px"
     inkscape:zoom="4.8166668"
     inkscape:cx="68.927334"
     inkscape:cy="72.145327"
     inkscape:window-width="1920"
     inkscape:window-height="1009"
     inkscape:window-x="-8"
     inkscape:window-y="-8"
     inkscape:window-maximized="1"
     inkscape:current-layer="layer4"
     showguides="false" /><defs
     id="defs1"><inkscape:path-effect
       effect="powerclip"
       id="path-effect33"
       is_visible="true"
       lpeversion="1"
       inverse="true"
       flatten="false"
       hide_clip="false"
       message="" /><clipPath
       clipPathUnits="userSpaceOnUse"
       id="clipPath32"><ellipse
         style="display:none;fill:#424242;fill-opacity:1;stroke:none;stroke-width:2.11667;stroke-linecap:round;stroke-linejoin:round;stroke-miterlimit:29;stroke-dasharray:none;stroke-opacity:1;paint-order:normal"
         id="ellipse33"
         cx="157.6105"
         cy="26.437967"
         rx="3.2623587"
         ry="0.78343379"
         d="m 160.87286,26.437967 a 3.2623587,0.78343379 0 0 1 -3.26236,0.783434 3.2623587,0.78343379 0 0 1 -3.26235,-0.783434 3.2623587,0.78343379 0 0 1 3.26235,-0.783433 3.2623587,0.78343379 0 0 1 3.26236,0.783433 z" /><path
         id="lpe_path-effect33"
         style="fill:#424242;fill-opacity:1;stroke:none;stroke-width:2.11667;stroke-linecap:round;stroke-linejoin:round;stroke-miterlimit:29;stroke-dasharray:none;stroke-opacity:1;paint-order:normal"
         class="powerclip"
         d="m 140.84414,17.468065 h 27.60561 v 17.705944 h -27.60561 z m 20.02872,8.969902 a 3.2623587,0.78343379 0 0 0 -3.26236,-0.783433 3.2623587,0.78343379 0 0 0 -3.26235,0.783433 3.2623587,0.78343379 0 0 0 3.26235,0.783434 3.2623587,0.78343379 0 0 0 3.26236,-0.783434 z" /></clipPath></defs><g
     inkscape:groupmode="layer"
     id="layer2"
     inkscape:label="Layer 2 - Magazine"
     style="display:inline;opacity:1"
     inkscape:highlight-color="#f3eb35"
     transform="matrix(0.18961811,-0.00662161,0.00662161,0.18961811,-2.7038403,-0.78148516)"><path
       style="display:inline;opacity:1;fill:#6a707a;fill-opacity:1;stroke:#2f3237;stroke-width:1.87079;stroke-linecap:round;stroke-linejoin:miter;stroke-miterlimit:29;stroke-dasharray:none;stroke-opacity:1"
       d="m 87.815909,91.93663 c 5.513462,9.19984 12.947721,18.74815 21.487821,25.23572 l 10.05076,-10.32018 c 0.38012,-0.68359 -0.55487,-1.40769 -1.12555,-0.94213 0,0 -15.34555,-13.551162 -19.76115,-24.720119 z"
       id="path2"
       sodipodi:nodetypes="cccscc" /><path
       style="opacity:1;fill:#6a707a;fill-opacity:1;stroke:#2f3237;stroke-width:1.87079;stroke-linecap:round;stroke-linejoin:round;stroke-miterlimit:100;stroke-dasharray:none;stroke-opacity:1"
       d="m 92.925324,93.741125 c 1.939201,3.241928 8.133276,12.073845 15.282906,18.037685"
       id="path3"
       sodipodi:nodetypes="cc" /><path
       style="display:inline;opacity:1;fill:#6a707a;fill-opacity:1;stroke:#2f3237;stroke-width:1.87079;stroke-linecap:round;stroke-linejoin:round;stroke-miterlimit:100;stroke-dasharray:none;stroke-opacity:1"
       d="M 94.616695,92.101241 C 96.555846,95.343126 102.75,104.17512 109.89945,110.13874"
       id="path3-4"
       sodipodi:nodetypes="cc" /><path
       style="display:inline;opacity:1;fill:#6a707a;fill-opacity:1;stroke:#2f3237;stroke-width:1.87079;stroke-linecap:round;stroke-linejoin:round;stroke-miterlimit:100;stroke-dasharray:none;stroke-opacity:1"
       d="m 96.254564,90.426031 c 1.939158,3.241907 8.133326,12.073989 15.282796,18.037619"
       id="path3-4-5"
       sodipodi:nodetypes="cc" /><path
       style="fill:none;fill-opacity:1;stroke:#2f3237;stroke-width:0.935366;stroke-linecap:round;stroke-linejoin:miter;stroke-miterlimit:29;stroke-dasharray:none;stroke-opacity:1"
       d="m 110.70978,115.94187 -1.6383,-1.46166 8.10956,-8.33206"
       id="path5"
       sodipodi:nodetypes="ccc" /><path
       style="display:inline;opacity:1;fill:#50545c;fill-opacity:1;stroke:none;stroke-width:0.935366;stroke-linecap:round;stroke-linejoin:miter;stroke-miterlimit:29;stroke-dasharray:none;stroke-opacity:1;paint-order:normal"
       d="m 113.14839,106.86365 0.58069,0.48971 1.1805,-1.35105 -0.6314,-0.4132 z"
       id="path6"
       sodipodi:nodetypes="ccccc" /><path
       style="display:inline;opacity:1;fill:#50545c;fill-opacity:1;stroke:#2f3237;stroke-width:0.935366;stroke-linecap:round;stroke-linejoin:miter;stroke-miterlimit:29;stroke-dasharray:none;stroke-opacity:1;paint-order:normal"
       d="M 113.38034,107.03804 C 105.65819,100.80963 98.781963,91.190001 96.923741,87.309298 l 1.51571,-1.462847 c 1.964809,4.134105 8.354329,13.707557 16.070669,19.916989"
       id="path4"
       sodipodi:nodetypes="cccc" /></g><g
     inkscape:groupmode="layer"
     id="layer3"
     inkscape:label="Layer 3 - Platform"
     style="display:inline;opacity:1"
     transform="rotate(-2,-194.33771,342.72594)"><path
       style="display:inline;opacity:1;fill:#50545c;fill-opacity:1;stroke:#2f3237;stroke-width:0.177466;stroke-linecap:round;stroke-linejoin:round;stroke-miterlimit:29;stroke-dasharray:none;stroke-opacity:1;paint-order:normal"
       d="m 22.679849,24.954182 0.377986,0.810478 c 0.06699,0.08778 0.32988,0.20993 0.527158,0.263238 0.124851,0.03778 0.110464,-0.05152 0.08737,-0.06891 -0.354793,-0.285475 -0.709753,-0.576278 -0.41573,-1.261586 z"
       id="path14"
       sodipodi:nodetypes="cccccc"
       inkscape:label="Trigger" /><path
       style="display:inline;opacity:1;fill:#50545c;fill-opacity:1;stroke:#2f3237;stroke-width:0.354944;stroke-linecap:round;stroke-linejoin:round;stroke-miterlimit:29;stroke-dasharray:none;stroke-opacity:1;paint-order:normal"
       d="m 19.5789,29.314567 c 0.04638,0.224485 1.673816,0.214423 2.428953,0.333238 0.09607,0.02086 0.132755,-0.05373 0.0817,-0.150432 -0.15307,-0.28998 -0.255392,-0.73564 -0.06334,-1.16932 -0.124412,-0.408685 -0.171685,-0.592079 -0.02108,-1.053324 -0.156888,-0.250291 -0.08938,-0.740348 0.345828,-0.854156 -0.187155,-0.104474 -0.320871,-0.24562 -0.224173,-1.220024 l 2.317349,-1.039348 1.216579,-0.544459 -1.226028,-1.701631 -5.737724,2.564501 0.46038,1.049312 c 0.751666,0.137911 0.82435,0.618759 0.943571,0.937588 -0.312819,1.062045 -0.56319,1.928682 -0.522066,2.849691 z"
       id="path7"
       sodipodi:nodetypes="ccscccccccccccc"
       inkscape:label="Platform" /><g
       id="g9"
       inkscape:label="Hand Guard"
       transform="matrix(0.15319427,-0.06820649,0.06820649,0.15319427,11.330202,22.246003)"><path
         style="fill:none;fill-opacity:1;stroke:#2f3237;stroke-width:2.11667;stroke-linecap:round;stroke-linejoin:round;stroke-miterlimit:29;stroke-dasharray:none;stroke-opacity:1;paint-order:normal"
         d="m 68.295564,42.447903 -2.841889,7.894136 c -0.64832,1.250798 -1.538335,1.48637 -2.887,1.48861 l -7.443043,0.09022 c -1.938201,-0.137136 -3.106844,-1.25916 -5.097356,-2.706562"
         id="path8"
         sodipodi:nodetypes="ccccc" /><path
         style="display:inline;fill:none;fill-opacity:1;stroke:#2f3237;stroke-width:2.11667;stroke-linecap:round;stroke-linejoin:round;stroke-miterlimit:29;stroke-dasharray:none;stroke-opacity:1;paint-order:normal"
         d="m 63.243317,42.252448 c 3.645996,0 4.390411,0.814216 3.653857,4.029752 1.112698,-2.468672 1.69744,-4.058227 5.879335,-4.058227 z"
         id="path9"
         sodipodi:nodetypes="cccc" /></g><path
       style="fill:none;fill-opacity:1;stroke:#2f3237;stroke-width:0.177466;stroke-linecap:round;stroke-linejoin:round;stroke-miterlimit:29;stroke-dasharray:none;stroke-opacity:1;paint-order:normal"
       d="m 21.511639,23.317024 c -0.926807,0.429129 -0.486102,1.818621 0.428045,1.723899 0.08052,0.0026 0.160994,0.0047 0.243567,0.156522"
       id="path11"
       sodipodi:nodetypes="ccc"
       inkscape:label="path11" /><g
       id="g39"
       transform="matrix(0.15319427,-0.06820649,0.06820649,0.15319427,11.392546,22.261022)"
       inkscape:label="Gun Safety"><circle
         style="fill:none;fill-opacity:1;stroke:#2f3237;stroke-width:1.05833;stroke-linecap:round;stroke-linejoin:round;stroke-miterlimit:29;stroke-dasharray:none;stroke-opacity:1;paint-order:normal"
         id="path10"
         cx="52.911228"
         cy="35.877625"
         r="1.3758353"
         inkscape:label="Saftey Selector pt1" /><path
         style="fill:none;fill-opacity:1;stroke:#bcbcbc;stroke-width:1.05833;stroke-linecap:round;stroke-linejoin:round;stroke-miterlimit:29;stroke-dasharray:none;stroke-opacity:1;paint-order:normal"
         d="M 54.277484,35.891154 H 52.961116"
         id="path12"
         inkscape:label="Saftey Selector pt2" /><circle
         style="display:inline;fill:#a10000;fill-opacity:1;stroke:none;stroke-width:1.05833;stroke-linecap:round;stroke-linejoin:round;stroke-miterlimit:29;stroke-dasharray:none;stroke-opacity:1;paint-order:normal"
         id="path14-5"
         cx="55.475117"
         cy="35.909931"
         r="0.57221407"
         inkscape:label="Auto" /><circle
         style="display:inline;fill:#bcbcbc;fill-opacity:1;stroke:none;stroke-width:1.05833;stroke-linecap:round;stroke-linejoin:round;stroke-miterlimit:29;stroke-dasharray:none;stroke-opacity:1;paint-order:normal"
         id="path14-5-7"
         cx="52.94577"
         cy="33.314198"
         r="0.57221407"
         inkscape:label="Safe" /></g><path
       style="display:inline;opacity:1;fill:none;fill-opacity:1;stroke:#2f3237;stroke-width:0.177466;stroke-linecap:round;stroke-linejoin:round;stroke-miterlimit:29;stroke-dasharray:none;stroke-opacity:1;paint-order:normal"
       d="m 24.131157,23.2186 -0.279709,-0.628257 -1.338783,0.596068 z"
       id="path19"
       sodipodi:nodetypes="cccc"
       inkscape:label="path19" /><path
       style="fill:#555a62;fill-opacity:1;stroke:#2f3237;stroke-width:0.177466;stroke-linecap:round;stroke-linejoin:round;stroke-miterlimit:29;stroke-dasharray:none;stroke-opacity:1;paint-order:normal"
       d="m 25.624723,24.435614 c 0.005,-0.209889 -0.236852,-0.64707 -0.217789,-0.680112"
       id="path20"
       sodipodi:nodetypes="cc"
       inkscape:label="Mag Release" /><circle
       style="display:inline;opacity:1;fill:#17191b;fill-opacity:1;stroke:#2f3237;stroke-width:0.177466;stroke-linecap:round;stroke-linejoin:round;stroke-miterlimit:29;stroke-dasharray:none;stroke-opacity:1;paint-order:normal"
       id="path18"
       cx="13.442734"
       cy="31.719524"
       r="0.15529014"
       inkscape:label="Screw"
       transform="rotate(-24)" /><path
       style="fill:none;fill-opacity:1;stroke:#2f3237;stroke-width:0.177466;stroke-linecap:round;stroke-linejoin:round;stroke-miterlimit:29;stroke-dasharray:none;stroke-opacity:1;paint-order:normal"
       d="m 19.215591,25.510281 1.059055,-0.471529 c 0.286618,-0.127614 0.352891,-0.30595 0.244879,-0.548554 l -0.302723,-0.679937"
       id="path36"
       sodipodi:nodetypes="cccc" /><path
       style="fill:none;fill-opacity:1;stroke:#2f3237;stroke-width:0.177466;stroke-linecap:round;stroke-linejoin:round;stroke-miterlimit:29;stroke-dasharray:none;stroke-opacity:1;paint-order:normal"
       d="m 25.175915,23.259955 -0.536416,-0.05638 -0.19732,-0.443187 0.382444,-0.170273"
       id="path37" /><circle
       style="fill:#8a919b;fill-opacity:1;stroke:none;stroke-width:0.177466;stroke-linecap:round;stroke-linejoin:round;stroke-miterlimit:29;stroke-dasharray:none;stroke-opacity:1;paint-order:normal"
       id="path38"
       cx="13.310143"
       cy="31.038857"
       r="0.12464794"
       transform="rotate(-24)" /><path
       style="opacity:1;fill:none;fill-opacity:1;stroke:#2f3237;stroke-width:0.177466;stroke-linecap:round;stroke-linejoin:round;stroke-miterlimit:29;stroke-dasharray:none;stroke-opacity:1;paint-order:normal"
       d="m 21.635954,23.600478 c -0.5886,0.272859 -0.373495,1.330617 0.504164,1.132392 l 2.387725,-1.055686 c 0.07569,-0.0612 0.037,-0.148574 -0.06756,-0.151829 l -2.578842,-0.02876 z"
       id="path39"
       sodipodi:nodetypes="cccccc" /></g><g
     inkscape:groupmode="layer"
     id="layer4"
     inkscape:label="Layer 4 - Body"
     style="display:inline;opacity:1"
     inkscape:highlight-color="#8a5ff1"
     transform="matrix(0.18961811,-0.00662161,0.00662161,0.18961811,-2.6792541,-0.78234361)"><path
       id="rect31"
       style="display:inline;opacity:1;fill:#424242;fill-opacity:1;stroke:#333333;stroke-width:2.11667;stroke-linecap:round;stroke-linejoin:miter;stroke-miterlimit:29;stroke-opacity:1"
       d="m 146.95814,23.5264 h 15.03725 c 0.53776,2.084523 0.52236,3.941272 0,5.589274 h -15.08402 z"
       sodipodi:nodetypes="ccccc"
       clip-path="url(#clipPath32)"
       inkscape:path-effect="#path-effect33"
       inkscape:original-d="m 146.95814,23.5264 h 15.03725 c 0.53776,2.084523 0.52236,3.941272 0,5.589274 h -15.08402 z"
       inkscape:label="Muzzle"
       transform="matrix(0.7943801,-0.38744503,0.38744503,0.7943801,11.389046,87.963089)" /><g
       id="g30"
       style="display:inline;opacity:1"
       inkscape:label="Front Sights"
       transform="matrix(0.7943801,-0.38744503,0.38744503,0.7943801,11.389046,87.963089)"><path
         style="display:inline;opacity:1;fill:#5c5c5c;fill-opacity:1;stroke:#333333;stroke-width:2.11667;stroke-linecap:round;stroke-linejoin:miter;stroke-miterlimit:29;stroke-dasharray:none;stroke-opacity:1;paint-order:normal"
         d="m 142.91707,29.137851 -0.0182,-12.627241 1.0756,3.47e-4 -0.029,-1.456107 -1.04862,0.0058 -0.008,-5.5191039 c 0,-0.6648843 0.27555,-0.9354434 0.98221,-0.9354434 h 2.43216 l 1.59025,5.5191153 v 2.432153 c 0.93222,0 0.72282,4.720886 0.51166,5.533058 l -0.41476,0.103233 -0.003,1.490691 0.0401,5.441628 z"
         id="path26"
         sodipodi:nodetypes="ccccccccccccccc"
         inkscape:label="path26" /><path
         style="fill:#5c5c5c;fill-opacity:1;stroke:#333333;stroke-width:1.05833;stroke-linecap:round;stroke-linejoin:round;stroke-miterlimit:29;stroke-dasharray:none;stroke-opacity:1;paint-order:normal"
         d="m 143.96473,17.130306 c 0.0466,-0.01248 3.80024,0 3.80024,0"
         id="path27" /><path
         style="fill:#5c5c5c;fill-opacity:1;stroke:#333333;stroke-width:1.05833;stroke-linecap:round;stroke-linejoin:round;stroke-miterlimit:29;stroke-dasharray:none;stroke-opacity:1;paint-order:normal"
         d="m 144.15182,14.464292 h 3.95224"
         id="path28" /><path
         style="fill:#5c5c5c;fill-opacity:1;stroke:#333333;stroke-width:1.05833;stroke-linecap:round;stroke-linejoin:round;stroke-miterlimit:29;stroke-dasharray:none;stroke-opacity:1;paint-order:normal"
         d="m 143.66071,21.725671 h 4.47844"
         id="path29" /><path
         style="display:inline;fill:none;fill-opacity:1;stroke:#333333;stroke-width:1.05833;stroke-linecap:round;stroke-linejoin:round;stroke-miterlimit:29;stroke-dasharray:none;stroke-opacity:1;paint-order:normal"
         d="m 147.40248,23.984091 c -1.12242,1.622942 -2.77588,1.776803 -3.83531,-0.008"
         id="path30"
         sodipodi:nodetypes="cc" /><circle
         style="display:inline;opacity:1;fill:#333333;fill-opacity:1;stroke:none;stroke-width:1.05833;stroke-linecap:round;stroke-linejoin:round;stroke-miterlimit:29;stroke-dasharray:none;stroke-opacity:1;paint-order:normal"
         id="path31"
         cx="145.53217"
         cy="23.547918"
         r="0.6945312"
         inkscape:label="Screw" /></g><path
       style="display:inline;opacity:1;fill:#50545c;fill-opacity:1;stroke:#2f3237;stroke-width:1.87079;stroke-linecap:round;stroke-linejoin:round;stroke-miterlimit:29;stroke-dasharray:none;stroke-opacity:1;paint-order:normal"
       d="m 131.32865,45.725792 -2.87313,1.401236 c -0.27864,0.80961 -0.84184,1.105615 -1.67709,0.817993 l -24.24145,11.823344 c -0.21382,0.899948 -0.98157,1.339818 -1.83266,0.893859 l -41.555448,20.267941 -13.215635,6.445704 -0.337207,-0.694921 -7.242387,3.513272 0.05024,5.793227 3.538278,7.254523 4.104023,2.76828 6.662743,-3.24975 -2.108736,-4.382345 29.720199,-14.58171 7.091042,9.149406 12.001635,-13.07921 -5.859013,-11.879357 39.229366,-19.133425 z"
       id="path33"
       inkscape:label="Body"
       sodipodi:nodetypes="cccccccccccccccccccc" /><path
       style="display:inline;opacity:1;fill:#6b717b;fill-opacity:1;stroke:#2f3237;stroke-width:1.87079;stroke-linecap:round;stroke-linejoin:round;stroke-miterlimit:29;stroke-dasharray:none;stroke-opacity:1;paint-order:normal"
       d="m 93.525532,67.955553 5.400238,11.072156 5.23883,-2.555161 32.4764,-19.887183 -3.80688,-7.709912 z"
       id="path15"
       sodipodi:nodetypes="cccccc"
       inkscape:label="Front Grip" /><circle
       style="display:inline;opacity:1;fill:#4e4e44;fill-opacity:1;stroke:#37372f;stroke-width:0.935366;stroke-linecap:round;stroke-linejoin:round;stroke-miterlimit:29;stroke-dasharray:none;stroke-opacity:1"
       id="path45"
       cx="-1.2577684"
       cy="112.81889"
       r="1.092363"
       inkscape:label="Screw"
       transform="rotate(-26)" /><path
       style="fill:#555a62;fill-opacity:1;stroke:#2f3237;stroke-width:0.935366;stroke-linecap:round;stroke-linejoin:round;stroke-miterlimit:29;stroke-dasharray:none;stroke-opacity:1;paint-order:normal"
       d="m 128.9594,51.279711 c 1.71842,3.52322 1.99431,3.72164 5.52563,1.999316 l -1.85041,-3.799994 z"
       id="path17"
       sodipodi:nodetypes="cccc"
       inkscape:label="Indent" /><circle
       style="display:inline;opacity:1;fill:#9ca1a9;fill-opacity:1;stroke:#2f3237;stroke-width:0.935366;stroke-linecap:round;stroke-linejoin:round;stroke-miterlimit:29;stroke-dasharray:none;stroke-opacity:1;paint-order:normal"
       id="path16"
       cx="95.598732"
       cy="104.52628"
       r="0.78543365"
       inkscape:label="Screw"
       transform="rotate(-26)" /><path
       style="display:inline;opacity:1;fill:#50545c;fill-opacity:1;stroke:#2f3237;stroke-width:1.87079;stroke-linecap:round;stroke-linejoin:round;stroke-miterlimit:29;stroke-dasharray:none;stroke-opacity:1;paint-order:normal"
       d="M 93.781732,67.830597 44.394616,91.918308"
       id="path34"
       inkscape:label="Indent" /><g
       id="g25"
       inkscape:label="Bolt"
       transform="matrix(0.7943801,-0.38744503,0.38744503,0.7943801,11.080976,87.331437)"
       style="stroke-width:1.00012;stroke-dasharray:none"><path
         id="rect24"
         style="display:inline;opacity:1;fill:#4e4e44;fill-opacity:1;stroke:#37372f;stroke-width:2.11667;stroke-linecap:round;stroke-linejoin:round;stroke-miterlimit:29;stroke-dasharray:none;stroke-opacity:1"
         d="m 75.209646,18.627015 10.476965,-0.01169 c 3.771148,0 3.975338,5.425571 0,5.425571 l -10.476965,0.09354 c -4.092116,0 -3.879807,-5.507422 0,-5.507422 z"
         sodipodi:nodetypes="cccccc"
         inkscape:label="rect24" /><path
         style="fill:#44474e;fill-opacity:1;stroke:#37372f;stroke-width:1.05833;stroke-linecap:round;stroke-linejoin:round;stroke-miterlimit:29;stroke-dasharray:none;stroke-opacity:1;paint-order:normal"
         d="M 72.244111,21.382905 H 88.49294"
         id="path24"
         sodipodi:nodetypes="cc"
         inkscape:label="path24" /><circle
         style="fill:#37372f;fill-opacity:1;stroke:none;stroke-width:1.00012;stroke-linecap:round;stroke-linejoin:round;stroke-miterlimit:29;stroke-dasharray:none;stroke-opacity:1;paint-order:normal"
         id="path25"
         cx="83.227989"
         cy="20.604425"
         r="0.79374999" /></g><ellipse
       style="fill:none;fill-opacity:1;stroke:#333333;stroke-width:0.935366;stroke-linecap:round;stroke-linejoin:round;stroke-miterlimit:29;stroke-dasharray:none;stroke-opacity:1;paint-order:normal"
       id="ellipse32"
       cx="110.94569"
       cy="107.32735"
       rx="3.3897638"
       ry="0.86773276"
       transform="rotate(-26)" /><path
       style="fill:#50545c;fill-opacity:1;stroke:#2f3237;stroke-width:1.87079;stroke-linecap:round;stroke-linejoin:round;stroke-miterlimit:29;stroke-dasharray:none;stroke-opacity:1;paint-order:normal"
       d="m 129.11877,50.584763 -0.98434,-2.018052"
       id="path35"
       sodipodi:nodetypes="cc" /><rect
       style="fill:#50545c;fill-opacity:1;stroke:#2f3237;stroke-width:1.87079;stroke-linecap:round;stroke-linejoin:round;stroke-miterlimit:29;stroke-dasharray:none;stroke-opacity:1;paint-order:normal"
       id="rect35"
       width="2.787251"
       height="0.30969447"
       x="13.536295"
       y="101.08651"
       transform="rotate(-26)" /><rect
       style="fill:#50545c;fill-opacity:1;stroke:#2f3237;stroke-width:1.87079;stroke-linecap:round;stroke-linejoin:round;stroke-miterlimit:29;stroke-dasharray:none;stroke-opacity:1;paint-order:normal"
       id="rect36"
       width="2.787251"
       height="0.30969447"
       x="30.080145"
       y="101.08651"
       transform="rotate(-26)" /><path
       style="fill:none;stroke:#2f3237;stroke-width:0.935366;stroke-linecap:round;stroke-linejoin:round;stroke-miterlimit:29"
       d="m 97.942789,81.198408 -3.618381,-3.117958 -9.777604,4.768854 c -0.237932,0.172939 -0.363166,0.556517 -0.253776,0.90517 l 3.317522,6.62528 c 0.216014,0.368952 0.956299,0.499403 1.341249,0.191618"
       id="path13"
       sodipodi:nodetypes="cccccc" /><rect
       style="display:inline;opacity:1;fill:#44484f;fill-opacity:1;stroke:none;stroke-width:1.87079;stroke-linecap:round;stroke-linejoin:round;stroke-miterlimit:29;stroke-dasharray:none"
       id="rect33"
       width="47.190033"
       height="1.9419791"
       x="3.669987"
       y="105.94906"
       transform="rotate(-26)" /><path
       style="display:inline;opacity:1;fill:#44474e;fill-opacity:1;stroke:#2f3237;stroke-width:0.935366;stroke-linecap:round;stroke-linejoin:round;stroke-miterlimit:29;stroke-dasharray:none;stroke-opacity:1;paint-order:normal"
       d="m 38.260232,105.53471 c 1.000049,-0.56515 1.438232,-0.0385 1.54712,0.48213 l 0.323055,2.97511 c 0.419609,0.38525 0.845521,0.76257 1.713574,0.59005 l 1.690077,-0.7783 c 0.821035,-0.75013 0.731312,-1.50485 0.298286,-2.12328 l -2.944334,-1.87539 0.481816,-1.3321 -3.308492,-6.219021 -2.98304,1.468073 c 0.211711,2.849368 1.236405,4.392128 2.23512,4.850328 l 0.738024,2.35374 -1.07462,0.18393 0.592917,0.91308 c 0.863641,0.0482 0.68775,-0.98649 0.690524,-1.48824 z"
       id="path22"
       sodipodi:nodetypes="cccccccccccccccc" /><g
       id="g24"
       inkscape:label="Stock"
       style="display:inline;opacity:1"
       transform="matrix(0.7943801,-0.38744503,0.38744503,0.7943801,11.919321,87.704445)"><path
         style="fill:#44474e;fill-opacity:1;stroke:#2f3237;stroke-width:2.11667;stroke-linecap:round;stroke-linejoin:round;stroke-miterlimit:29;stroke-dasharray:none;stroke-opacity:1;paint-order:normal"
         d="m 14.719109,19.190316 c -0.297913,0.347691 -0.691962,0.839434 -1.361663,1.222036 0.789878,10.908554 1.370785,21.631414 -1.781925,28.667856 1.409389,2.293755 3.356618,3.091785 4.241358,0.227095 l 3.762287,-17.689595 c 0.163876,-1.12284 1.094197,-1.670845 1.984375,-2.248958 l 0.369477,-8.400521 -5.552277,-1.790361 z"
         id="path21"
         sodipodi:nodetypes="ccccccccc"
         inkscape:label="Stock" /><g
         id="g23"
         style="display:inline"
         inkscape:label="Extendor"><path
           id="rect22"
           style="display:inline;opacity:1;fill:#979ba4;fill-opacity:1;stroke:#2f3237;stroke-width:2.11667;stroke-linecap:round;stroke-linejoin:round;stroke-miterlimit:29;stroke-dasharray:none"
           d="m 21.516228,25.084953 h 66.066114 v 4.189192 H 21.423281 Z"
           sodipodi:nodetypes="ccccc"
           inkscape:label="Extention" /><path
           style="display:inline;opacity:1;fill:#44474e;fill-opacity:1;stroke:#2f3237;stroke-width:2.11667;stroke-linecap:round;stroke-linejoin:round;stroke-miterlimit:29;stroke-dasharray:none;stroke-opacity:1;paint-order:normal"
           d="m 21.779293,25.080744 -0.203625,4.160371 -5.249831,0.0274 C 15.018511,27.96119 15.04878,26.291163 16.270547,25.069394 Z"
           id="path23"
           sodipodi:nodetypes="ccccc"
           inkscape:label="Extention cap" /></g></g><path
       id="rect32"
       style="fill:#50545c;fill-opacity:1;stroke:#2f3237;stroke-width:1.87079;stroke-linecap:round;stroke-linejoin:round;stroke-miterlimit:29;stroke-dasharray:none"
       d="m 40.708741,97.579482 8.638506,-4.213295 c 0.857448,1.306556 1.47572,2.729743 2.038681,4.179942 l -8.638508,4.213201 c -0.453198,-1.50368 -1.139639,-2.893644 -2.038679,-4.179848 z"
       sodipodi:nodetypes="ccccc" /><path
       style="display:inline;opacity:1;fill:none;stroke:#2f3237;stroke-width:0.935366;stroke-linecap:round;stroke-linejoin:round;stroke-miterlimit:29"
       d="m 46.722381,105.46355 -2.196149,-4.50264 C 44.001104,99.45382 43.36201,98.002431 42.442239,96.688028 l -2.985355,-6.1209"
       id="path32"
       sodipodi:nodetypes="cccc" /><path
       style="opacity:1;fill:#9197a1;fill-opacity:1;stroke:#2f3237;stroke-width:1.87079;stroke-linecap:round;stroke-linejoin:round;stroke-miterlimit:29;stroke-dasharray:none;stroke-opacity:1"
       d="m 47.116205,87.209977 -1.339376,-2.746115 c -0.396288,-0.812518 -0.06631,-2.192514 0.920716,-2.673922 L 48.68,80.823022 l 0.372459,0.76368 -0.08002,1.144285 3.362928,-0.09094 1.882165,-0.917994 0.158021,0.323983 3.394077,-1.655408 -0.218212,-0.447399 0.478262,-0.233265 1.164801,0.785676 -0.44058,0.6532 -4.214435,2.055506 -0.146851,0.426478 z"
       id="path40"
       sodipodi:nodetypes="ccccccccccccccccc" /><circle
       style="opacity:1;fill:#646b75;fill-opacity:1;stroke:#2f3237;stroke-width:0.467689;stroke-linecap:round;stroke-linejoin:round;stroke-miterlimit:29;stroke-dasharray:none;stroke-opacity:1"
       id="path41"
       cx="5.8623552"
       cy="97.273193"
       r="0.58360404"
       inkscape:label="Screw"
       transform="rotate(-26)" /><path
       style="opacity:1;fill:#646b75;fill-opacity:1;stroke:#2f3237;stroke-width:1.87079;stroke-linecap:round;stroke-linejoin:round;stroke-miterlimit:29;stroke-dasharray:none;stroke-opacity:1"
       d="m 49.129994,82.235775 0.08291,-1.108845 -0.585189,-1.160012 -0.643767,0.300627 0.07015,-1.25427 5.492721,-0.149374 -0.01025,3.241634 z"
       id="path42"
       sodipodi:nodetypes="cccccccc"
       inkscape:label="Rear Sight" /><circle
       style="fill:#d98500;fill-opacity:1;stroke:none;stroke-width:0.46769;stroke-linecap:round;stroke-linejoin:round;stroke-miterlimit:29;stroke-dasharray:none;stroke-opacity:1"
       id="path43"
       cx="10.391074"
       cy="95.058876"
       r="0.32467443"
       inkscape:label="Sight Number"
       transform="rotate(-26)" /><path
       style="fill:none;fill-opacity:1;stroke:#2f3237;stroke-width:1.87079;stroke-linecap:round;stroke-linejoin:round;stroke-miterlimit:29;stroke-dasharray:none;stroke-opacity:1"
       d="M 103.08824,63.224385 102.3646,61.740757"
       id="path44"
       sodipodi:nodetypes="cc" /><rect
       style="fill:none;fill-opacity:1;stroke:#2f3237;stroke-width:0.935366;stroke-linecap:round;stroke-linejoin:round;stroke-miterlimit:29;stroke-dasharray:none;stroke-opacity:1"
       id="rect44"
       width="3.3013628"
       height="2.6157067"
       x="51.491196"
       y="99.470757"
       transform="rotate(-26)" /></g></svg>
