<?xml version="1.0" encoding="UTF-8" standalone="no"?>
<!-- Created with Inkscape (http://www.inkscape.org/) -->

<svg
   width="110"
   height="110"
   viewBox="0 0 29.104166 29.104167"
   version="1.1"
   id="svg1"
   xml:space="preserve"
   inkscape:version="1.4 (86a8ad7, 2024-10-11)"
   sodipodi:docname="ppsh41.svg"
   xmlns:inkscape="http://www.inkscape.org/namespaces/inkscape"
   xmlns:sodipodi="http://sodipodi.sourceforge.net/DTD/sodipodi-0.dtd"
   xmlns="http://www.w3.org/2000/svg"
   xmlns:svg="http://www.w3.org/2000/svg"><sodipodi:namedview
     id="namedview1"
     pagecolor="#ffffff"
     bordercolor="#000000"
     borderopacity="0.25"
     inkscape:showpageshadow="2"
     inkscape:pageopacity="0.0"
     inkscape:pagecheckerboard="0"
     inkscape:deskcolor="#d1d1d1"
     inkscape:document-units="px"
     inkscape:zoom="4.6109568"
     inkscape:cx="63.110546"
     inkscape:cy="70.809599"
     inkscape:window-width="1920"
     inkscape:window-height="1009"
     inkscape:window-x="-8"
     inkscape:window-y="-8"
     inkscape:window-maximized="1"
     inkscape:current-layer="layer2"
     inkscape:lockguides="false" /><defs
     id="defs1"><inkscape:path-effect
       effect="powerclip"
       id="path-effect36"
       is_visible="true"
       lpeversion="1"
       inverse="true"
       flatten="false"
       hide_clip="false"
       message="" /><inkscape:path-effect
       effect="powerclip"
       id="path-effect32"
       is_visible="true"
       lpeversion="1"
       inverse="true"
       flatten="false"
       hide_clip="false"
       message="" /><inkscape:perspective
       sodipodi:type="inkscape:persp3d"
       inkscape:vp_x="0 : -119.39584 : 1"
       inkscape:vp_y="0 : 999.99999 : 0"
       inkscape:vp_z="210 : -119.39584 : 1"
       inkscape:persp3d-origin="105 : -168.89584 : 1"
       id="perspective1" /><clipPath
       clipPathUnits="userSpaceOnUse"
       id="clipPath31"><path
         style="display:none;fill:#444446;fill-opacity:1;stroke:#323234;stroke-width:1.05833;stroke-linecap:round;stroke-linejoin:round;stroke-miterlimit:29;stroke-dasharray:none;stroke-opacity:1"
         d="m 200.89242,2.0944225 c -1.3801,-0.00442 -1.60668,3.8158657 -1.60668,3.8158657 h 3.18467 c 0,0 -0.20157,-3.8114587 -1.57799,-3.8158657 z"
         id="path32"
         sodipodi:nodetypes="sccs" /><path
         id="lpe_path-effect32"
         style="fill:#444446;fill-opacity:1;stroke:#323234;stroke-width:1.05833;stroke-linecap:round;stroke-linejoin:round;stroke-miterlimit:29;stroke-dasharray:none;stroke-opacity:1"
         class="powerclip"
         d="m 191.61842,-5.1138428 h 18.5193 V 13.807123 h -18.5193 z m 9.274,7.2082653 c -1.3801,-0.00442 -1.60668,3.8158657 -1.60668,3.8158657 h 3.18467 c 0,0 -0.20157,-3.8114587 -1.57799,-3.8158657 z" /></clipPath><clipPath
       clipPathUnits="userSpaceOnUse"
       id="clipPath35"><path
         id="path36"
         style="display:none;opacity:1;fill:#575342;fill-opacity:0;stroke:#323234;stroke-width:1.05833;stroke-linecap:round;stroke-linejoin:round;stroke-miterlimit:29;stroke-dasharray:none;stroke-opacity:1"
         d="m 216.95674,10.043246 c 3.09356,0 3.20087,4.437934 0,4.474072 l -2.35542,0.0266 c -3.27331,0.03695 -3.16046,-4.500665 -0.0264,-4.500665 z"
         sodipodi:nodetypes="sssss"
         inkscape:label="Hole" /><path
         id="lpe_path-effect36"
         style="display:inline;opacity:1;fill:#575342;fill-opacity:0;stroke:#323234;stroke-width:1.05833;stroke-linecap:round;stroke-linejoin:round;stroke-miterlimit:29;stroke-dasharray:none;stroke-opacity:1"
         class="powerclip"
         d="M 71.533156,2.1502416 H 229.78708 V 31.680989 H 71.533156 Z m 145.423584,7.8930044 -2.38182,7e-6 c -3.13406,0 -3.24691,4.537615 0.0264,4.500665 l 2.35542,-0.0266 c 3.20087,-0.03614 3.09356,-4.474072 0,-4.474072 z" /></clipPath></defs><g
     inkscape:groupmode="layer"
     id="layer2"
     inkscape:label="Layer 2"
     style="display:inline;opacity:1;stroke-width:1.60484;stroke-dasharray:none"
     transform="matrix(0.12360351,-0.07136524,0.06094141,0.10555765,-0.47790192,19.250281)"><path
       style="display:inline;opacity:1;fill:#444446;fill-opacity:1;stroke:#323234;stroke-width:1.60484;stroke-linecap:round;stroke-linejoin:round;stroke-miterlimit:29;stroke-dasharray:none;stroke-opacity:1"
       d="m 116.20048,25.878569 h 10.55521 l -0.59182,-9.452735 11.81016,-1.026254 0.92457,10.000247 h 1.97712 c 1.13032,0 -0.37217,-7.060015 2.92139,-7.060015 h 9.1699 c 2.5906,-1.298946 5.54051,-1.622993 10.4683,-1.622993 h 56.07438 c 2.55911,-2.559111 6.3436,-8.7641574 3.40828,-8.7641574 H 81.393057 c -2.620808,0 -4.057481,2.8217974 -4.057481,5.4370234 h 38.783754 z"
       id="path6"
       sodipodi:nodetypes="ccccccscccccccc"
       clip-path="url(#clipPath35)"
       inkscape:path-effect="#path-effect36"
       inkscape:original-d="m 116.20048,25.878569 h 10.55521 l -0.59182,-9.452735 11.81016,-1.026254 0.92457,10.000247 h 1.97712 c 1.13032,0 -0.37217,-7.060015 2.92139,-7.060015 h 9.1699 c 2.5906,-1.298946 5.54051,-1.622993 10.4683,-1.622993 h 56.07438 c 2.55911,-2.559111 6.3436,-8.7641574 3.40828,-8.7641574 H 81.393057 c -2.620808,0 -4.057481,2.8217974 -4.057481,5.4370234 h 38.783754 z" /><path
       style="fill:#444446;fill-opacity:1;stroke:#323234;stroke-width:1.60484;stroke-linecap:round;stroke-linejoin:round;stroke-miterlimit:29;stroke-dasharray:none;stroke-opacity:1"
       d="m 120.34487,28.442937 c 2.11428,0.02958 4.71475,-0.147724 5.153,-1.541842 -0.62415,-0.190433 -0.94266,-0.482794 -0.89265,-0.93322 -1.91634,0.118113 -4.08991,0.0433 -5.19357,0.770921 z"
       id="path23"
       sodipodi:nodetypes="ccccc" /><path
       style="fill:none;stroke:#323234;stroke-width:1.60484;stroke-linecap:round;stroke-miterlimit:29;stroke-dasharray:none;stroke-opacity:1"
       d="m 81.798805,26.495348 c 0,0 0.486899,0.126652 0.486899,1.379543 v 3.732882 c -0.02938,1.720058 1.140112,2.936038 3.205409,3.489433 h 11.117495 c 8.653822,0 5.603202,-8.723583 7.668642,-8.723583 h 3.61115"
       id="path1"
       sodipodi:nodetypes="ccccccc"
       inkscape:label="Trigger Guard" /><path
       style="display:inline;opacity:1;fill:#444446;fill-opacity:1;stroke:#323234;stroke-width:1.60484;stroke-linecap:round;stroke-linejoin:round;stroke-miterlimit:29;stroke-dasharray:none;stroke-opacity:1"
       d="m 87.277167,25.993792 c 0.994534,2.037011 -1.153036,2.989655 3.643722,6.541483 0.407513,0.08888 0.538166,-0.150409 0.286906,-0.401669 -1.515973,-1.618893 -2.750498,-3.398612 -2.151803,-6.225887 z"
       id="path4"
       sodipodi:nodetypes="ccccc"
       inkscape:label="Trigger" /><path
       style="display:inline;opacity:1;fill:#444446;fill-opacity:1;stroke:#323234;stroke-width:1.60484;stroke-linecap:round;stroke-linejoin:round;stroke-miterlimit:29;stroke-dasharray:none;stroke-opacity:1"
       d="m 91.780206,25.792848 1.480981,1.950473 1.501269,0.02029 -0.101438,2.901098 c 0.452874,0.452874 1.278107,1.086356 1.278107,0.08115 v -3.002536 h 4.341505 l 1.57227,-1.778031 z"
       id="path5"
       sodipodi:nodetypes="ccccccccc" /><path
       style="display:inline;opacity:1;fill:#7b7b7f;fill-opacity:1;stroke:none;stroke-width:1.60484;stroke-linecap:round;stroke-linejoin:round;stroke-miterlimit:29;stroke-dasharray:none;stroke-opacity:1"
       d="m 93.890096,10.346575 5.802199,-0.5274725 5.518175,0.4463225 10.6306,-0.04057 3.32713,-0.121725 1.46069,0.608622 -0.48689,1.379544 -27.590873,0.568047 c 0.254392,-1.30833 0.552618,-2.493925 1.338969,-2.312768 z"
       id="path27"
       sodipodi:nodetypes="ccccccccc" /><path
       style="display:inline;opacity:1;fill:none;fill-opacity:1;stroke:#323234;stroke-width:1.60484;stroke-linecap:round;stroke-linejoin:round;stroke-miterlimit:29;stroke-dasharray:none;stroke-opacity:1"
       d="m 92.699714,12.480463 c 0,-1.605889 0.232465,-2.237876 1.463226,-2.237876 V 8.0047107"
       id="path18"
       sodipodi:nodetypes="ccc" /><path
       style="display:inline;opacity:1;fill:none;fill-opacity:1;stroke:#323234;stroke-width:1.60484;stroke-linecap:round;stroke-linejoin:round;stroke-miterlimit:29;stroke-dasharray:none;stroke-opacity:1"
       d="m 146.2366,18.075153 c 2.83146,-2.737806 0.90044,-5.964373 -3.04122,-6.916502 l -3.96713,-1.9202393 -18.75592,3.2777023 v -2.273527 h -1.72144 l 0.0287,-0.4590515 h -2.51044 v 0.4590515 h -15.39257 l 0.0143,-0.4877422 h -2.295262 l -0.01435,0.4877422 h -4.647899"
       id="path21"
       sodipodi:nodetypes="cccccccccccccc" /><path
       style="display:inline;opacity:1;fill:#323234;fill-opacity:1;stroke:#323234;stroke-width:1.60484;stroke-linecap:round;stroke-linejoin:round;stroke-miterlimit:29;stroke-dasharray:none;stroke-opacity:1"
       d="M 98.825897,12.446322 H 109.93147"
       id="path34" /><path
       style="display:inline;opacity:1;fill:#919195;fill-opacity:1;stroke:#323234;stroke-width:1.60484;stroke-linecap:round;stroke-linejoin:round;stroke-miterlimit:29;stroke-dasharray:none;stroke-opacity:1"
       d="m 109.95772,7.7295003 h 2.02874 v 2.5042267 h 0.79121 v 2.303888 h -3.40829 v -2.300401 h 0.60862 z"
       id="path33"
       sodipodi:nodetypes="ccccccccc" /><path
       style="opacity:1;fill:#743816;fill-opacity:1;stroke:#562a10;stroke-width:1.60484;stroke-linecap:round;stroke-linejoin:round;stroke-miterlimit:29;stroke-dasharray:none;stroke-opacity:1"
       d="M 44.29847,21.345895 3.2133606,25.592122 C 1.1698101,25.956555 0.6107089,27.12184 0.68857727,29.035007 L 2.1804946,54.512365 c 0.076511,1.453662 1.2241356,2.142242 3.4428865,2.065732 C 32.904531,50.318994 37.010908,46.83252 52.217108,40.740822 c 2.28759,0.589148 4.136387,1.826357 6.541484,1.721442 C 72.40633,21.380313 89.361606,25.735575 116.78226,25.735575 l 0.0406,-12.76737 H 75.169705 C 63.105797,28.720012 51.653342,20.163774 44.29847,21.345895 Z"
       id="path2"
       sodipodi:nodetypes="ccccccccccc"
       inkscape:label="Stock" /><path
       style="display:inline;opacity:1;fill:none;fill-opacity:1;stroke:#323234;stroke-width:1.60484;stroke-linecap:round;stroke-linejoin:round;stroke-miterlimit:29;stroke-dasharray:none;stroke-opacity:1"
       d="m 120.50717,12.486 h -2.38119 c -0.6127,0 -1.30153,0.559107 -1.30153,0.907969 l -0.01,12.440571"
       id="path24"
       sodipodi:nodetypes="cccc" /><circle
       style="fill:#7b7b7f;fill-opacity:1;stroke:none;stroke-width:1.60484;stroke-linecap:round;stroke-linejoin:round;stroke-miterlimit:29;stroke-dasharray:none;stroke-opacity:1"
       id="path25"
       cx="84.415878"
       cy="10.691461"
       r="0.79120868" /><circle
       style="fill:#6b3a1f;fill-opacity:1;stroke:#4f2c17;stroke-width:1.60484;stroke-linecap:round;stroke-linejoin:round;stroke-miterlimit:29;stroke-dasharray:none;stroke-opacity:1"
       id="path3"
       cx="75.793732"
       cy="18.258661"
       r="1.622992" /><path
       id="rect5"
       style="display:inline;fill:#444446;stroke:#323234;stroke-width:1.60484;stroke-linecap:round;stroke-linejoin:round;stroke-miterlimit:29;stroke-dasharray:none"
       inkscape:label="Mag (temp)"
       d="m 136.37552,26.411532 c -0.88255,21.025048 1.66575,33.435571 6.3045,51.537543 l -12.87804,4.371406 c -6.37514,-20.123908 -6.49054,-33.817842 -5.4095,-55.803741 z"
       sodipodi:nodetypes="ccccc"
       transform="matrix(0.99679269,-0.08002712,0.08223065,0.99661333,0,0)" /><path
       id="path7"
       style="display:inline;opacity:1;fill:#5b593e;fill-opacity:1;stroke:#323234;stroke-width:1.60484;stroke-linecap:round;stroke-linejoin:round;stroke-miterlimit:29;stroke-dasharray:none;stroke-opacity:1"
       d="m 207.08722,10.043246 c 3.09356,-3e-6 3.20106,4.462834 0,4.474072 l -7.57713,0.0266 c -3.2735,0.01149 -3.16046,-4.500662 -0.0264,-4.500665 z"
       sodipodi:nodetypes="sssss"
       inkscape:label="Hole" /><path
       id="path7-9"
       style="display:inline;fill:#444446;fill-opacity:1;stroke:#323234;stroke-width:1.60484;stroke-linecap:round;stroke-linejoin:round;stroke-miterlimit:29;stroke-dasharray:none;stroke-opacity:1"
       d="m 131.87194,25.141726 c 0.0883,1.927652 -2.94576,2.133838 -3.04484,0.139553 l -0.23447,-4.720612 c -0.10148,-2.03941 2.97267,-2.109721 3.06219,-0.156836 z"
       sodipodi:nodetypes="sssss"
       inkscape:label="Hole" /><path
       id="path7-9-4"
       style="display:inline;fill:#444446;fill-opacity:1;stroke:#323234;stroke-width:1.60484;stroke-linecap:round;stroke-linejoin:round;stroke-miterlimit:29;stroke-dasharray:none;stroke-opacity:1"
       d="m 136.49373,24.774329 c 0.0883,1.927652 -2.94576,2.133838 -3.04484,0.139553 l -0.23447,-4.720612 c -0.10148,-2.03941 2.97267,-2.109721 3.06219,-0.156836 z"
       sodipodi:nodetypes="sssss"
       inkscape:label="Hole" /><path
       id="path8"
       style="display:inline;opacity:1;fill:#323234;fill-opacity:1;stroke:#323234;stroke-width:1.60484;stroke-linecap:round;stroke-linejoin:round;stroke-miterlimit:29;stroke-dasharray:none;stroke-opacity:1"
       d="m 192.22533,10.043246 c 3.09356,-3e-6 3.20106,4.462834 0,4.474072 l -7.57713,0.0266 c -3.2735,0.01149 -3.16046,-4.500662 -0.0264,-4.500665 z"
       sodipodi:nodetypes="sssss"
       inkscape:label="Hole" /><path
       id="path9"
       style="display:inline;opacity:1;fill:#575342;stroke:#323234;stroke-width:1.60484;stroke-linecap:round;stroke-linejoin:round;stroke-miterlimit:29;stroke-dasharray:none;stroke-opacity:1"
       d="m 176.81841,10.043246 c 3.09356,-3e-6 3.20106,4.462834 0,4.474072 l -7.57713,0.0266 c -3.2735,0.01149 -3.16046,-4.500662 -0.0264,-4.500665 z"
       sodipodi:nodetypes="sssss"
       inkscape:label="Hole" /><path
       id="path10"
       style="display:inline;opacity:1;fill:#575342;stroke:#323234;stroke-width:1.60484;stroke-linecap:round;stroke-linejoin:round;stroke-miterlimit:29;stroke-dasharray:none;stroke-opacity:1"
       d="m 161.6984,10.043246 c 3.09356,-3e-6 3.20106,4.462834 0,4.474072 l -7.57713,0.0266 c -3.2735,0.01149 -3.16046,-4.500662 -0.0264,-4.500665 z"
       sodipodi:nodetypes="sssss"
       inkscape:label="Hole" /><path
       id="path14"
       style="display:inline;opacity:1;fill:#444446;fill-opacity:1;stroke:#323234;stroke-width:1.60484;stroke-linecap:round;stroke-linejoin:round;stroke-miterlimit:29;stroke-dasharray:none;stroke-opacity:1"
       inkscape:label="Hole"
       d="m 163.56676,10.873238 h -11.35693 c -0.65567,0.809097 -0.67634,2.031371 -0.0274,2.840654 h 11.38535 c 0.65792,-0.802351 0.64781,-2.02882 -0.001,-2.840654 z" /><path
       id="path15"
       style="display:inline;opacity:1;fill:#444446;fill-opacity:1;stroke:#323234;stroke-width:1.60484;stroke-linecap:round;stroke-linejoin:round;stroke-miterlimit:29;stroke-dasharray:none;stroke-opacity:1"
       inkscape:label="Hole"
       d="m 178.69049,10.873238 h -11.35693 c -0.65567,0.809097 -0.67634,2.031371 -0.0274,2.840654 h 11.38535 c 0.65792,-0.802351 0.64781,-2.02882 -0.001,-2.840654 z" /><path
       id="path16"
       style="display:inline;opacity:1;fill:#444446;fill-opacity:1;stroke:#323234;stroke-width:1.60484;stroke-linecap:round;stroke-linejoin:round;stroke-miterlimit:29;stroke-dasharray:none;stroke-opacity:1"
       inkscape:label="Hole"
       d="m 194.09744,10.873238 c -0.17912,-0.215049 -0.39168,-0.363213 -0.5962,-0.527472 l -0.63905,0.527472 h -10.12168 c -0.65567,0.809097 -0.67634,2.031371 -0.0274,2.840654 h 10.0375 l 0.66948,0.507185 c 0.32169,-0.130834 0.48516,-0.324957 0.67837,-0.507185 0.65792,-0.802351 0.64781,-2.02882 -10e-4,-2.840654 z"
       sodipodi:nodetypes="ccccccccsc" /><path
       id="path17"
       style="display:inline;opacity:1;fill:#575342;fill-opacity:0;stroke:#323234;stroke-width:1.60484;stroke-linecap:round;stroke-linejoin:round;stroke-miterlimit:29;stroke-dasharray:none;stroke-opacity:1"
       d="m 216.95674,10.043246 c 3.09356,0 3.20087,4.437934 0,4.474072 l -2.35542,0.0266 c -3.27331,0.03695 -3.16046,-4.500665 -0.0264,-4.500665 z"
       sodipodi:nodetypes="sssss"
       inkscape:label="Hole" /><circle
       style="fill:#323234;fill-opacity:1;stroke:none;stroke-width:1.60484;stroke-linecap:round;stroke-linejoin:round;stroke-miterlimit:29;stroke-dasharray:none;stroke-opacity:1"
       id="path19"
       cx="149.78355"
       cy="16.100416"
       inkscape:label="Screw"
       r="0.9181031" /><circle
       style="fill:#444446;fill-opacity:1;stroke:#323234;stroke-width:1.60484;stroke-linecap:round;stroke-linejoin:round;stroke-miterlimit:29;stroke-dasharray:none;stroke-opacity:1"
       id="path20"
       cx="143.28186"
       cy="15.029436"
       r="1.6210256" /><path
       style="fill:none;fill-opacity:1;stroke:#323234;stroke-width:1.60484;stroke-linecap:round;stroke-linejoin:round;stroke-miterlimit:29;stroke-dasharray:none;stroke-opacity:1"
       d="m 119.3305,26.901096 1.01437,1.501268 c -7.05145,0.861515 -7.90666,-1.213652 -6.77599,-1.866442 0.67504,-0.389736 4.15245,2.879418 5.76162,0.365174 z"
       id="path22"
       sodipodi:nodetypes="ccsc" /><path
       style="display:inline;fill:#444446;fill-opacity:1;stroke:#323234;stroke-width:1.60484;stroke-linecap:round;stroke-linejoin:round;stroke-miterlimit:29;stroke-dasharray:none;stroke-opacity:1"
       d="m 95.715963,7.8715119 h 13.714287 c 0,-1.2033813 -0.73984,-2.1635832 -2.43449,-2.1098899 -3.69788,0 -2.81625,-2.8299865 -4.62553,-2.8402361 -2.15943,-0.012233 -0.20269,3.1648348 -5.355874,3.1648348 -0.935969,0 -1.298393,0.5231358 -1.298393,1.7852912 z"
       id="path26"
       sodipodi:nodetypes="cccssc" /><path
       style="display:inline;fill:#444446;fill-opacity:1;stroke:#323234;stroke-width:1.60484;stroke-linecap:round;stroke-linejoin:round;stroke-miterlimit:29;stroke-dasharray:none;stroke-opacity:1"
       d="m 194.17879,7.2013705 4.99218,-2.0083504 h 3.61503 l 4.6479,2.0083505 z"
       id="path28"
       sodipodi:nodetypes="ccccc" /><path
       style="fill:#444446;fill-opacity:1;stroke:#323234;stroke-width:1.60484;stroke-linecap:round;stroke-linejoin:round;stroke-miterlimit:29;stroke-dasharray:none;stroke-opacity:1"
       d="m 200.97849,8.0047107 -3.55765,-1.4632268 c 0,-1.310993 0.87055,-5.85290663 1.31977,-5.85290663 h 1.20501 c 0.5964,0.33207973 1.10965,0.32570073 1.72145,0 h 1.20501 c 0.48859,0 1.46322,4.50304413 1.46322,5.68076233 z"
       id="path29"
       sodipodi:nodetypes="cccccccc"
       clip-path="url(#clipPath31)"
       inkscape:path-effect="#path-effect32"
       inkscape:original-d="m 200.97849,8.0047107 -3.55765,-1.4632268 c 0,-1.310993 0.87055,-5.85290663 1.31977,-5.85290663 h 1.20501 c 0.5964,0.33207973 1.10965,0.32570073 1.72145,0 h 1.20501 c 0.48859,0 1.46322,4.50304413 1.46322,5.68076233 z"
       transform="translate(0,0.48774223)" /><path
       style="fill:none;fill-opacity:1;stroke:#323234;stroke-width:1.60484;stroke-linecap:round;stroke-linejoin:round;stroke-miterlimit:29;stroke-dasharray:none;stroke-opacity:1"
       d="m 200.89242,2.5821648 c -1.3801,-0.00442 -1.60668,3.8158656 -1.60668,3.8158656 h 3.18467 c 0,0 -0.20157,-3.8114586 -1.57799,-3.8158656 z"
       id="path30"
       sodipodi:nodetypes="sccs" /><path
       style="fill:none;fill-opacity:1;stroke:#323234;stroke-width:1.60484;stroke-linecap:round;stroke-miterlimit:29;stroke-dasharray:none;stroke-opacity:1"
       d="m 131.13042,31.003454 c 1.69607,18.793759 3.85436,23.666953 8.0895,36.233915"
       id="path11"
       sodipodi:nodetypes="cc" /><path
       style="display:inline;fill:none;fill-opacity:1;stroke:#323234;stroke-width:1.60484;stroke-linecap:round;stroke-miterlimit:29;stroke-dasharray:none;stroke-opacity:1"
       d="m 135.71666,30.259343 c 1.2944,16.039449 3.05102,22.726771 7.80259,35.17897"
       id="path11-3"
       sodipodi:nodetypes="cc" /><path
       style="fill:none;fill-opacity:1;stroke:#323234;stroke-width:1.60484;stroke-linecap:round;stroke-miterlimit:29;stroke-dasharray:none;stroke-opacity:1"
       d="m 126.83755,29.050965 11.99272,-1.377153"
       id="path12"
       sodipodi:nodetypes="cc" /></g></svg>
