<?xml version="1.0" encoding="UTF-8" standalone="no"?>
<svg
   width="126"
   height="21"
   viewBox="0 0 126 21"
   fill="none"
   version="1.1"
   id="svg25"
   sodipodi:docname="rifle_cbc_world.svg"
   inkscape:version="1.4 (86a8ad7, 2024-10-11)"
   xmlns:inkscape="http://www.inkscape.org/namespaces/inkscape"
   xmlns:sodipodi="http://sodipodi.sourceforge.net/DTD/sodipodi-0.dtd"
   xmlns="http://www.w3.org/2000/svg"
   xmlns:svg="http://www.w3.org/2000/svg">
  <sodipodi:namedview
     id="namedview25"
     pagecolor="#ffffff"
     bordercolor="#000000"
     borderopacity="0.25"
     inkscape:showpageshadow="2"
     inkscape:pageopacity="0.0"
     inkscape:pagecheckerboard="0"
     inkscape:deskcolor="#d1d1d1"
     inkscape:zoom="3.5119048"
     inkscape:cx="39.864407"
     inkscape:cy="65.064407"
     inkscape:window-width="1920"
     inkscape:window-height="1009"
     inkscape:window-x="-8"
     inkscape:window-y="-8"
     inkscape:window-maximized="1"
     inkscape:current-layer="svg25" />
  <g
     clip-path="url(#clip0_3330_702)"
     id="g25">
    <path
       fill-rule="evenodd"
       clip-rule="evenodd"
       d="m 81.0696,1.5 h 18.93 c 0.8004,0 1.4704,0.79005 1.4704,1.77005 V 16.8501 c 0,0.98 -0.64,1.77 -1.4704,1.77 h -18.93 c -0.8,0 -1.47,-0.79 -1.47,-1.77 V 3.27005 c 0.05,-0.98 0.69,-1.77005 1.47,-1.77005 z"
       fill="#703724"
       stroke="#23110B"
       stroke-width="3"
       stroke-linecap="round"
       id="path1"
       style="fill:#2d2936;fill-opacity:1;stroke:#0a0a10;stroke-opacity:1"
       sodipodi:nodetypes="ssssssscs" />
    <path
       fill-rule="evenodd"
       clip-rule="evenodd"
       d="m 62.0596,6.46997 h 60.4844 c 0.70024,0.093563 1.03681,0.4416937 1.066,1.0049876 V 12.407926 C 123.5817,13.02005 123.48075,13.581928 122.59434,13.6 H 62.0596 Z"
       fill="#5b5a63"
       stroke="#161618"
       stroke-width="3"
       stroke-linecap="round"
       id="path2"
       sodipodi:nodetypes="ccccccc"
       style="fill:#4e4d56;fill-opacity:1;stroke:#29292c;stroke-linecap:round;stroke-linejoin:round;stroke-miterlimit:4;stroke-opacity:1" />
    <path
       fill-rule="evenodd"
       clip-rule="evenodd"
       d="M26.3701 5.82007H49.1101V14.2201H26.3701V5.82007Z"
       fill="#703724"
       stroke="#23140B"
       stroke-width="3"
       stroke-linecap="round"
       id="path3"
       style="stroke:#000000;stroke-opacity:1;fill:#3d3d3d;fill-opacity:1" />
    <path
       fill-rule="evenodd"
       clip-rule="evenodd"
       d="M46.7298 3.04004H64.6098C65.3998 3.04004 66.0398 3.68004 66.0398 4.47004V15.62C66.0398 16.41 65.3998 17.05 64.6098 17.05H46.7298C45.9398 17.05 45.2998 16.41 45.2998 15.62V4.47004C45.2998 3.68004 45.9398 3.04004 46.7298 3.04004Z"
       fill="#696772"
       stroke="#161618"
       stroke-width="3"
       stroke-linecap="round"
       id="path4"
       style="stroke:#000000;stroke-opacity:1;fill:#414249;fill-opacity:1" />
    <path
       fill-rule="evenodd"
       clip-rule="evenodd"
       d="M46.7197 13.0999H64.6397Z"
       fill="#161618"
       id="path5" />
    <path
       d="m 46.7197,13.0999 h 17.92"
       stroke="#161618"
       stroke-width="1.5"
       id="path6"
       style="stroke:#191922;stroke-opacity:1"
       sodipodi:nodetypes="cc" />
    <path
       fill-rule="evenodd"
       clip-rule="evenodd"
       d="M46.7197 6.94995H64.6397Z"
       fill="#161618"
       id="path7" />
    <path
       d="m 46.7197,6.94995 h 17.92"
       stroke="#161618"
       stroke-width="1.5"
       id="path8"
       style="stroke:#191922;stroke-opacity:1"
       sodipodi:nodetypes="cc" />
    <path
       fill-rule="evenodd"
       clip-rule="evenodd"
       d="m 2.8,5.61011 h 24.14 c 0.58,0 1.06,0.47 1.06,1.06 v 6.66999 c 0,0.58 -0.47,1.06 -1.06,1.06 H 2.8 c -0.71,0 -1.3,-1 -1.3,-2.23 V 7.88011 c 0,-1.27 0.58,-2.27 1.3,-2.27 z"
       fill="#703724"
       stroke="#23140B"
       stroke-width="3"
       stroke-linecap="round"
       id="path9"
       style="fill:#3d3d3d;fill-opacity:1;stroke:#000000;stroke-opacity:1"
       sodipodi:nodetypes="sssssssss" />
  </g>
  <defs
     id="defs25">
    <clipPath
       id="clip0_3330_702">
      <rect
         width="125.93"
         height="20.12"
         fill="white"
         id="rect25" />
    </clipPath>
  </defs>
</svg>
