<?xml version="1.0" encoding="UTF-8" standalone="no"?>
<svg
   width="62"
   height="72"
   viewBox="0 0 62 72"
   fill="none"
   version="1.1"
   id="svg7"
   sodipodi:docname="smoke_grenade.svg"
   inkscape:version="1.4 (86a8ad7, 2024-10-11)"
   xmlns:inkscape="http://www.inkscape.org/namespaces/inkscape"
   xmlns:sodipodi="http://sodipodi.sourceforge.net/DTD/sodipodi-0.dtd"
   xmlns="http://www.w3.org/2000/svg"
   xmlns:svg="http://www.w3.org/2000/svg">
  <defs
     id="defs7" />
  <sodipodi:namedview
     id="namedview7"
     pagecolor="#ffffff"
     bordercolor="#000000"
     borderopacity="0.25"
     inkscape:showpageshadow="2"
     inkscape:pageopacity="0.0"
     inkscape:pagecheckerboard="0"
     inkscape:deskcolor="#d1d1d1"
     inkscape:zoom="11.208333"
     inkscape:cx="30.959108"
     inkscape:cy="36"
     inkscape:window-width="1920"
     inkscape:window-height="1009"
     inkscape:window-x="-8"
     inkscape:window-y="-8"
     inkscape:window-maximized="1"
     inkscape:current-layer="svg7" />
  <path
     d="m 41.443137,9.9722359 c 1.1e-5,0.4816191 0.19126,0.9434711 0.53163,1.2840101 0.34037,0.340538 0.802065,0.531817 1.283375,0.53187 0.238434,-2e-5 0.474364,-0.04698 0.694506,-0.13828 0.220279,-0.09127 0.420361,-0.224913 0.588907,-0.393583 0.168596,-0.168584 0.302234,-0.368716 0.393486,-0.589063 0.09117,-0.220297 0.13819,-0.456447 0.13812,-0.694968 C 45.073142,9.7337878 45.026222,9.4977206 44.935042,9.2773922 44.843862,9.0570638 44.710165,8.8568945 44.541582,8.6882988 44.373084,8.5196532 44.172903,8.3859283 43.952692,8.2947129 43.732519,8.2033609 43.496555,8.1564592 43.258207,8.156429 c -0.481396,-2.3e-6 -0.943112,0.1912828 -1.283413,0.5318628 -0.340352,0.3404934 -0.531618,0.8024115 -0.531657,1.2839441 z"
     fill="#373225"
     stroke="#1b1913"
     stroke-width="4"
     stroke-miterlimit="3.99393"
     id="path1" />
  <path
     d="m 46.73356,26.776118 c -4e-5,-0.55227 -0.447782,-0.999981 -0.999965,-0.999991 l -21.691484,4.8e-5 c -0.552183,-9e-6 -0.999944,0.447646 -0.99999,0.999965 l -9e-6,40.381385 c 4e-5,0.55227 0.447782,0.999981 1.000052,0.99994 l 21.691397,2e-6 c 0.55232,4.6e-5 1.000031,-0.447695 0.99999,-0.999965 z"
     fill="#47572b"
     id="path2" />
  <path
     d="m 38.700294,8.9946916 1.097037,0.978125 3.442482,-4.71e-5 -4.539515,6.1875295 1.09704,5.29093 -3.3e-5,4.324142 -9.761606,3e-6 -5.3e-5,-4.324092 -6.993569,-1.8e-5 4.432329,-12.4565797 z"
     fill="#4e4735"
     stroke="#1b1913"
     stroke-width="4"
     stroke-miterlimit="3.99393"
     stroke-linecap="square"
     id="path3" />
  <path
     d="m 46.733266,52.201408 -23.69144,2.3e-5 -1.2e-5,6.459979 23.69144,-2.3e-5 z"
     fill="#9ca38f"
     id="path4" />
  <path
     d="m 24.90551,16.215025 -12.986718,5.364345 2e-6,21.722803 5.349766,1.957467 8e-6,-21.380786 5.773303,-2.426547 z"
     fill="#4e4735"
     stroke="#1b1913"
     stroke-width="4"
     stroke-miterlimit="3.99393"
     id="path5" />
  <path
     d="m 46.73356,26.776118 c -4e-5,-0.55227 -0.447782,-0.999981 -0.999965,-0.999991 l -21.691484,4.8e-5 c -0.552183,-9e-6 -0.999944,0.447646 -0.99999,0.999965 l -9e-6,40.381385 c 4e-5,0.55227 0.447782,0.999981 1.000052,0.99994 l 21.691397,2e-6 c 0.55232,4.6e-5 1.000031,-0.447695 0.99999,-0.999965 z"
     stroke="#191f0f"
     stroke-width="4"
     stroke-miterlimit="3.99393"
     id="path6" />
  <path
     fill-rule="evenodd"
     clip-rule="evenodd"
     d="m 27.492487,33.3486 c 5.530788,7e-6 10.014724,-4.482388 10.014704,-10.013623 -2e-5,-5.531235 -4.483968,-10.01566 -10.01462,-10.01563 -5.531285,-6.7e-5 -10.015187,4.484387 -10.015167,10.015622 2.1e-5,5.531235 4.483848,10.013651 10.015083,10.013631 z m 7.8e-5,-3.478465 c 3.608875,-4.3e-5 6.534669,-2.92582 6.534599,-6.535142 1.6e-5,-3.609373 -2.925761,-6.535166 -6.534687,-6.535209 -3.609372,-1.6e-5 -6.535116,2.925847 -6.535132,6.535219 7.1e-5,3.609322 2.925847,6.535116 6.53522,6.535132 z"
     fill="#a0a599"
     stroke="#21231f"
     stroke-width="2"
     stroke-miterlimit="3.99393"
     id="path7" />
</svg>
