<?xml version="1.0" encoding="UTF-8" standalone="no"?>
<!-- Created with Inkscape (http://www.inkscape.org/) -->

<svg
   width="128.69901"
   height="110"
   viewBox="0 0 128.69901 110"
   version="1.1"
   id="SVGRoot"
   sodipodi:docname="sv98.svg"
   inkscape:version="1.4 (86a8ad7, 2024-10-11)"
   xml:space="preserve"
   xmlns:inkscape="http://www.inkscape.org/namespaces/inkscape"
   xmlns:sodipodi="http://sodipodi.sourceforge.net/DTD/sodipodi-0.dtd"
   xmlns="http://www.w3.org/2000/svg"
   xmlns:svg="http://www.w3.org/2000/svg"><sodipodi:namedview
     id="namedview186"
     pagecolor="#505050"
     bordercolor="#ffffff"
     borderopacity="1"
     inkscape:showpageshadow="0"
     inkscape:pageopacity="0"
     inkscape:pagecheckerboard="1"
     inkscape:deskcolor="#505050"
     inkscape:document-units="px"
     showgrid="false"
     inkscape:zoom="5.6568543"
     inkscape:cx="93.868425"
     inkscape:cy="71.506173"
     inkscape:window-width="1920"
     inkscape:window-height="1009"
     inkscape:window-x="-8"
     inkscape:window-y="-8"
     inkscape:window-maximized="1"
     inkscape:current-layer="g8267"
     showguides="false"><sodipodi:guide
       position="128.81997,60.892677"
       orientation="0,-1"
       id="guide2960"
       inkscape:locked="false" /><sodipodi:guide
       position="6.3754762,56.710285"
       orientation="0,-1"
       id="guide2962"
       inkscape:locked="false" /><sodipodi:guide
       position="26.919922,64.094238"
       orientation="0,1"
       id="guide2968"
       inkscape:label=""
       inkscape:locked="false"
       inkscape:color="rgb(0,134,229)" /></sodipodi:namedview><defs
     id="defs181" /><g
     inkscape:label="Layer 1"
     inkscape:groupmode="layer"
     id="layer1"
     transform="rotate(-30,63.84384,57.258042)"><g
       id="g8267"
       inkscape:label="sv98"
       transform="matrix(0.83315817,0,0,0.83315817,6.234744,3.4170251)"
       style="stroke-width:1.20026"><g
         id="g5914"
         inkscape:label="mag"
         style="stroke-width:1.20026"
         transform="rotate(30,56.964813,73.17666)"><path
           d="m 74.043833,103.02506 4.287,4.083 8.305,-11.556997 -4.351,-2.839 z"
           fill="#f9f9f9"
           stroke="#323232"
           stroke-width="2.44269"
           id="path434-3"
           style="display:inline;fill:#4d4d4d;fill-opacity:1;stroke-width:2.63773;stroke-dasharray:none"
           transform="matrix(0.73477554,0.53701112,-0.53697249,0.73472268,39.578013,-58.094057)"
           inkscape:label="box" /><path
           style="fill:#4d4d4d;fill-opacity:1;stroke:#333333;stroke-width:2.4005;stroke-miterlimit:29;stroke-dasharray:none;stroke-opacity:1"
           d="m 47.615404,55.250658 1.181307,4.408697"
           id="path5908" /></g><path
         d="m 135.87081,86.137135 0.35361,0.204591 -0.028,0.455146 1.41246,0.815629 0.38059,-0.251 0.35287,0.204864 -1.53032,2.6466 -2.47089,-1.427702 z"
         style="display:inline;fill:#f9f9f9;stroke:#323232;stroke-width:2.64055"
         id="path4998" /><rect
         style="display:inline;fill:#333333;fill-opacity:1;stroke:#333333;stroke-width:0;stroke-miterlimit:29;stroke-dasharray:none;stroke-opacity:1"
         id="rect3054"
         width="108.36819"
         height="4.1981959"
         x="61.668076"
         y="7.6195421"
         inkscape:label="barrel"
         transform="rotate(30)" /><path
         style="fill:#666666;fill-opacity:1;stroke:#333333;stroke-width:2.4005;stroke-miterlimit:29;stroke-dasharray:none;stroke-opacity:1"
         d="M 72.962945,49.068219 50.97127,36.371319 47.720717,39.621872 73.789933,54.672941 Z"
         id="path3059" /><g
         id="g2966"
         inkscape:label="stock"
         style="stroke-width:1.20026"
         transform="rotate(30,56.964813,73.17666)"><rect
           style="fill:#222c20;fill-opacity:1;stroke:#212c21;stroke-width:2.4005;stroke-miterlimit:29;stroke-dasharray:none;stroke-opacity:1"
           id="rect2802"
           width="4.8677144"
           height="11.627101"
           x="-8.9264307"
           y="57.3899" /><path
           style="fill:#2e3b2b;fill-opacity:1;stroke:#333333;stroke-width:0;stroke-miterlimit:29;stroke-dasharray:none;stroke-opacity:1"
           d="m -12.945354,71.217012 h 5.5934978 V 55.047608 H -13.39209 c 0,0 2.048379,11.948917 0.446736,16.169404 z"
           id="path684" /></g><rect
         style="fill:#2e3b2b;fill-opacity:1;stroke:#333333;stroke-width:0;stroke-miterlimit:29;stroke-dasharray:none;stroke-opacity:1"
         id="rect2800"
         width="14.331966"
         height="4.2622542"
         x="27.143015"
         y="13.710485"
         transform="rotate(30)" /><path
         d="m 47.25481,42.862262 c 0,0 -1.53896,1.396393 -0.765449,2.642601 0.04597,-0.109864 -0.337532,-0.826936 0.361233,-1.794372 0.207683,-0.288777 1.066064,-0.491946 1.066064,-0.491946 z"
         fill="#f9f9f9"
         stroke="#323232"
         stroke-width="0.599958"
         id="path432-6"
         style="display:inline;stroke:#1f2e1f;stroke-width:1.20025;stroke-opacity:1"
         inkscape:label="trigger" /><path
         id="path2957"
         style="display:inline;fill:#415f3b;fill-opacity:1;stroke:#1f2e1f;stroke-width:2.4005;stroke-miterlimit:29;stroke-dasharray:none;stroke-opacity:1"
         inkscape:label="body"
         d="m 48.574058,38.604467 -9.948316,5.21e-4 -6.414001,-3.703125 -3.828791,2.209785 -15.094386,-8.426072 -5.8955063,10.211319 -0.3271641,1.222914 3.4471914,1.990233 2.732046,-0.732049 15.670161,4.19833 c 0,0 2.060513,5.520634 5.273066,5.475795 0,0 2.107468,-5.42714 2.380293,-6.009507 0.239706,-0.51167 2.247181,-2.260483 3.472902,0.835239 1.225719,3.095717 3.929581,5.158877 7.263405,5.466413 l 16.213301,3.626089 27.629932,15.952149 3.298583,-1.904721 1.701172,-2.946516 z m -0.997746,4.803217 c 1.595607,0.920839 2.559215,2.171913 1.84933,3.401484 -0.709897,1.229564 -2.758839,1.846967 -4.354112,0.92555 -1.594531,-0.921177 -2.040736,-2.976426 -1.331145,-4.205488 0.709604,-1.229055 2.240898,-1.041865 3.835927,-0.121546 z M 32.297956,38.112632 37.31621,41.04928 c 1.422895,0.67263 -5.363225,1.172876 -6.763129,1.010476 -0.205464,-1.536528 1.744875,-3.947124 1.744875,-3.947124 z m -16.704075,-5.017633 8.416683,4.859375 c 0,0 0.28913,0.894484 -0.302323,3.097858 L 12.818359,38.093743 Z"
         sodipodi:nodetypes="cccccccccccsscccccccscscccccccccc" /><path
         style="fill:#2e3b2b;fill-opacity:1;stroke:#333333;stroke-width:0;stroke-miterlimit:29;stroke-dasharray:none;stroke-opacity:1"
         d="m 18.555529,22.743112 -5.368639,2.194886 16.307706,9.415258 4.387963,-2.76108 z"
         id="path2746"
         sodipodi:nodetypes="ccccc" /><path
         style="fill:#4d4d4d;stroke:#1f2e1f;stroke-width:2.4005;stroke-linejoin:round;stroke-miterlimit:29;stroke-dasharray:none"
         id="path1359"
         transform="rotate(59.999999)"
         sodipodi:type="arc"
         sodipodi:cx="59.706615"
         sodipodi:cy="-21.495941"
         sodipodi:rx="0.0042106938"
         sodipodi:ry="0.01303317"
         sodipodi:start="0.048634483"
         sodipodi:end="0.067446853"
         sodipodi:arc-type="slice"
         d="m 59.710821,-21.495308 a 0.00421069,0.01303317 0 0 1 -4e-6,2.45e-4 l -0.0042,-8.78e-4 z" /></g></g></svg>
