<?xml version="1.0" encoding="UTF-8" standalone="no"?>
<svg
   id="Layer_1"
   data-name="Layer 1"
   width="59.31"
   height="15.5"
   viewBox="0 0 59.31 15.5"
   version="1.1"
   sodipodi:docname="taurus_tx22_world.svg"
   inkscape:version="1.4 (86a8ad7, 2024-10-11)"
   xmlns:inkscape="http://www.inkscape.org/namespaces/inkscape"
   xmlns:sodipodi="http://sodipodi.sourceforge.net/DTD/sodipodi-0.dtd"
   xmlns="http://www.w3.org/2000/svg"
   xmlns:svg="http://www.w3.org/2000/svg">
  <sodipodi:namedview
     id="namedview1"
     pagecolor="#ffffff"
     bordercolor="#000000"
     borderopacity="0.25"
     inkscape:showpageshadow="2"
     inkscape:pageopacity="0.0"
     inkscape:pagecheckerboard="0"
     inkscape:deskcolor="#d1d1d1"
     inkscape:zoom="29.843196"
     inkscape:cx="15.145831"
     inkscape:cy="4.1382967"
     inkscape:window-width="1920"
     inkscape:window-height="1009"
     inkscape:window-x="-8"
     inkscape:window-y="-8"
     inkscape:window-maximized="1"
     inkscape:current-layer="Layer_1" />
  <defs
     id="defs1">
    <style
       id="style1">
      .cls-1, .cls-2 {
        stroke-width: 1.5px;
      }

      .cls-1, .cls-2, .cls-3, .cls-4, .cls-5 {
        stroke: #171717;
      }

      .cls-1, .cls-3 {
        fill: #474747;
      }

      .cls-2, .cls-6, .cls-5 {
        fill: #787878;
      }

      .cls-7 {
        fill: #ff3700;
      }

      .cls-8, .cls-4 {
        fill: #252525;
      }

      .cls-3, .cls-4, .cls-5 {
        stroke-width: 3px;
      }
    </style>
  </defs>
  <path
     id="rect2"
     class="cls-3"
     d="M57.81,5v5.5c0,.4-.3,.7-.6,.7H25.71c-.3,0-.6-.3-.6-.7V5c0-.4,.3-.7,.6-.7h31.4c.4,0,.7,.3,.7,.7Z" />
  <path
     id="path4"
     class="cls-3"
     d="M 28.81,14 H 2.71 l -1.1,-1.2 -0.1,-10 1.4,-1.3 h 26"
     sodipodi:nodetypes="cccccc" />
  <path
     id="path4-2"
     data-name="path4"
     class="cls-3"
     d="m 28.71,1.5 h 25.8 l 1.3,1.3 v 9.9 l -1.2,1.3 h -25.8"
     sodipodi:nodetypes="cccccc" />
  <path
     id="path6"
     class="cls-8"
     d="M53.51,8.7l-.3,.4h-2.9l-.3-.3v-1.9l.3-.3h2.9l.3,.3v1.8Z" />
  <path
     id="path8"
     class="cls-2"
     d="m 10.863768,5.9038842 0.4,0.3 v 3.1997685 l -0.3,0.3 H 5.9637685 l -0.4,-0.4 V 6.2038842 l 0.3,-0.4 z"
     sodipodi:nodetypes="ccccccccc" />
  <path
     id="path12-2"
     data-name="path12"
     class="cls-4"
     d="m 216.5,2.5 h -5 v 10.4 h 5 c 0,0 0.4,1.1 1.7,1.1 1.1,0 1.7,-1.1 1.7,-1.1 h 4.2 V 2.5 h -4.3 c 0,0 -0.4,-1 -1.7,-1 -1.2,0 -1.6,1 -1.6,1 z" />
</svg>
